<svg id="Group_514" data-name="Group 514" xmlns="http://www.w3.org/2000/svg" xmlns:xlink="http://www.w3.org/1999/xlink" width="1500" height="1500" viewBox="0 0 1500 1500">
  <defs>
    <clipPath id="clip-path">
      <rect id="Rectangle_2388" data-name="Rectangle 2388" width="1132" height="980" transform="translate(184 260)" fill="#fff"/>
    </clipPath>
  </defs>
  <g id="undraw_in_the_office_re_jtgc">
    <rect id="Rectangle_2387" data-name="Rectangle 2387" width="1500" height="1500" fill="#fff" opacity="0"/>
    <g id="Group_513" data-name="Group 513" clip-path="url(#clip-path)">
      <path id="Path_19147" data-name="Path 19147" d="M1077.9,340.928c-1.27-.848-2.56-1.653-3.83-2.472a555.773,555.773,0,0,0-117.433-56.951l-9.564,131.983H886.447V262.238c-3.817-.79-7.662-1.536-11.508-2.238V413.488H802.892A149.58,149.58,0,0,1,653.344,263.877h0c-3.86.834-7.691,1.726-11.523,2.677V413.488H583.14l-9.11-125.854a556.845,556.845,0,0,0-119.82,63.681c-.643.439-1.286.892-1.915,1.331-3.232,2.267-6.42,4.579-9.593,6.92V863.084H615.646l-3.056-42.351L595.774,588.2h338.65l-16.816,232.53-3.056,42.351H1085.58V346.019Q1081.77,343.43,1077.9,340.928ZM641.821,549.8H593l-9.023-124.786h57.848Zm233.118,0H792.934V547.33a9.038,9.038,0,0,0-9.052-9.041h-35.65a9.036,9.036,0,0,0-9.037,9.041V549.8H653.344V425.016h221.6Zm11.508,0V425.016H946.24L937.217,549.8Z" fill="#f2f2f2"/>
      <path id="Path_19148" data-name="Path 19148" d="M1265.72,1175.12l1.15-25.71a83,83,0,0,1,38.71-9.81c-18.59,15.21-16.27,44.53-28.87,64.98a49.945,49.945,0,0,1-36.62,23.09l-15.56,9.53a83.715,83.715,0,0,1,17.64-67.83,81,81,0,0,1,14.85-13.8C1260.75,1165.4,1265.72,1175.12,1265.72,1175.12Z" fill="#f2f2f2"/>
      <path id="Path_19149" data-name="Path 19149" d="M430.832,1146.94l-37.552-11.37a126.723,126.723,0,0,1,.1-60.94c15.464,33.23,59.65,40.83,85.115,67.18a76.171,76.171,0,0,1,20.308,62.82l8.22,26.6a127.561,127.561,0,0,1-93.552-51.62,123.364,123.364,0,0,1-14.8-27.16C414.6,1150.64,430.832,1146.94,430.832,1146.94Z" fill="#f2f2f2"/>
      <path id="Path_19150" data-name="Path 19150" d="M1236.5,1232.99a2.944,2.944,0,0,1-.86,2.08,2.767,2.767,0,0,1-.95.63,2.818,2.818,0,0,1-1.11.22h-11.76a2.9,2.9,0,0,1-1.12-.22,3.029,3.029,0,0,1-.95-.63,2.972,2.972,0,0,1-.63-.95,2.916,2.916,0,0,1-.22-1.13V877.3c0-7.841-2.63-14.2-5.87-14.219H332.022c-3.246.014-5.864,6.378-5.879,14.219V1230.81a2.941,2.941,0,0,1-2.646,2.92c-2.369.23-4.738.43-7.092.63-.059,0-.117.01-.176.01-1.287.12-2.573.2-3.86.31h-.015c-.673-1.22-1.316-2.46-1.974-3.7a3.088,3.088,0,0,1-.322-1.36V858.856c0-2.165.088-4.345.234-6.495a83.3,83.3,0,0,1,1.1-8.807c2.471-13.591,8.057-22.792,14.4-22.822H1219.25a6.889,6.889,0,0,1,2.69.571,10.513,10.513,0,0,1,3.32,2.326,20.621,20.621,0,0,1,3.26,4.462c3.13,5.515,5.37,13.736,6.16,23.3,0,.088.01.175.01.263.2,2.37.31,4.784.29,7.2l.21,31.35.13,18.7.39,58.662.15,20.832Z" fill="#e6e6e6"/>
      <path id="Path_19151" data-name="Path 19151" d="M1314.26,1239.55l-403.226.45a1.738,1.738,0,0,1-1.736-1.74,1.738,1.738,0,0,1,1.736-1.74l403.226-.45a1.724,1.724,0,0,1,1.73,1.74,1.724,1.724,0,0,1-1.73,1.74Z" fill="#cacaca"/>
      <path id="Path_19152" data-name="Path 19152" d="M813.759,716.809H742.344a3.812,3.812,0,0,0-3.8,3.816V833.488h79.035V720.625a3.813,3.813,0,0,0-1.117-2.7,3.813,3.813,0,0,0-2.7-1.117Zm-35.467,64.127a8.473,8.473,0,0,1-8.433-8.436V759.482a8.433,8.433,0,1,1,16.866,0V772.5a8.474,8.474,0,0,1-8.433,8.436Z" fill="#2f2e41"/>
      <path id="Path_19153" data-name="Path 19153" d="M932.017,540.674H626.744a9.912,9.912,0,0,0-9.894,9.9V756.659a9.9,9.9,0,0,0,9.894,9.9H932.017a9.9,9.9,0,0,0,9.894-9.9V550.572a9.913,9.913,0,0,0-9.894-9.9Z" fill="#3f3d56"/>
      <path id="Path_19154" data-name="Path 19154" d="M929.463,547.82H629.289a5.3,5.3,0,0,0-5.291,5.3V754.1a5.3,5.3,0,0,0,5.291,5.294H929.463a5.3,5.3,0,0,0,5.291-5.294V553.125a5.3,5.3,0,0,0-5.291-5.3Z" fill="#fff"/>
      <path id="Path_19155" data-name="Path 19155" d="M738.294,829.879v10.889a2.132,2.132,0,0,0,2.128,2.129h75.269a2.141,2.141,0,0,0,2.128-2.129V829.879Z" fill="#3f3d56"/>
      <path id="Path_19156" data-name="Path 19156" d="M871,846.685H692.412a3.288,3.288,0,0,1-3.215-3.964l2.771-13.166a3.3,3.3,0,0,1,3.215-2.61H868.229a3.3,3.3,0,0,1,3.214,2.61l2.771,13.166A3.285,3.285,0,0,1,871,846.685Z" fill="#2f2e41"/>
      <path id="Path_19157" data-name="Path 19157" d="M701.238,829.316h-4.073a.715.715,0,0,0-.714.715V831.9a.714.714,0,0,0,.714.714h4.073a.714.714,0,0,0,.714-.714v-1.873A.715.715,0,0,0,701.238,829.316Z" fill="#3f3d56"/>
      <path id="Path_19158" data-name="Path 19158" d="M712.238,829.316h-4.072a.714.714,0,0,0-.714.715V831.9a.714.714,0,0,0,.714.714h4.072a.714.714,0,0,0,.714-.714v-1.873A.715.715,0,0,0,712.238,829.316Z" fill="#3f3d56"/>
      <path id="Path_19159" data-name="Path 19159" d="M723.239,829.316h-4.073a.715.715,0,0,0-.714.715V831.9a.714.714,0,0,0,.714.714h4.073a.714.714,0,0,0,.714-.714v-1.873A.715.715,0,0,0,723.239,829.316Z" fill="#3f3d56"/>
      <path id="Path_19160" data-name="Path 19160" d="M734.24,829.316h-4.073a.715.715,0,0,0-.714.715V831.9a.714.714,0,0,0,.714.714h4.073a.714.714,0,0,0,.713-.714v-1.873A.714.714,0,0,0,734.24,829.316Z" fill="#3f3d56"/>
      <path id="Path_19161" data-name="Path 19161" d="M745.24,829.316h-4.073a.714.714,0,0,0-.713.715V831.9a.714.714,0,0,0,.713.714h4.073a.714.714,0,0,0,.714-.714v-1.873A.715.715,0,0,0,745.24,829.316Z" fill="#3f3d56"/>
      <path id="Path_19162" data-name="Path 19162" d="M756.241,829.316h-4.073a.715.715,0,0,0-.714.715V831.9a.714.714,0,0,0,.714.714h4.073a.714.714,0,0,0,.713-.714v-1.873A.714.714,0,0,0,756.241,829.316Z" fill="#3f3d56"/>
      <path id="Path_19163" data-name="Path 19163" d="M767.241,829.316h-4.072a.714.714,0,0,0-.714.715V831.9a.714.714,0,0,0,.714.714h4.072a.714.714,0,0,0,.714-.714v-1.873A.714.714,0,0,0,767.241,829.316Z" fill="#3f3d56"/>
      <path id="Path_19164" data-name="Path 19164" d="M778.242,829.316h-4.073a.714.714,0,0,0-.713.715V831.9a.714.714,0,0,0,.713.714h4.073a.714.714,0,0,0,.714-.714v-1.873A.715.715,0,0,0,778.242,829.316Z" fill="#3f3d56"/>
      <path id="Path_19165" data-name="Path 19165" d="M789.243,829.316H785.17a.715.715,0,0,0-.714.715V831.9a.714.714,0,0,0,.714.714h4.073a.714.714,0,0,0,.713-.714v-1.873A.714.714,0,0,0,789.243,829.316Z" fill="#3f3d56"/>
      <path id="Path_19166" data-name="Path 19166" d="M800.243,829.316h-4.072a.714.714,0,0,0-.714.715V831.9a.714.714,0,0,0,.714.714h4.072a.714.714,0,0,0,.714-.714v-1.873A.715.715,0,0,0,800.243,829.316Z" fill="#3f3d56"/>
      <path id="Path_19167" data-name="Path 19167" d="M811.244,829.316h-4.073a.714.714,0,0,0-.713.715V831.9a.714.714,0,0,0,.713.714h4.073a.714.714,0,0,0,.714-.714v-1.873A.715.715,0,0,0,811.244,829.316Z" fill="#3f3d56"/>
      <path id="Path_19168" data-name="Path 19168" d="M822.244,829.316h-4.072a.715.715,0,0,0-.714.715V831.9a.714.714,0,0,0,.714.714h4.072a.714.714,0,0,0,.714-.714v-1.873A.714.714,0,0,0,822.244,829.316Z" fill="#3f3d56"/>
      <path id="Path_19169" data-name="Path 19169" d="M833.245,829.316h-4.073a.715.715,0,0,0-.714.715V831.9a.714.714,0,0,0,.714.714h4.073a.714.714,0,0,0,.714-.714v-1.873A.715.715,0,0,0,833.245,829.316Z" fill="#3f3d56"/>
      <path id="Path_19170" data-name="Path 19170" d="M844.246,829.316h-4.073a.715.715,0,0,0-.714.715V831.9a.714.714,0,0,0,.714.714h4.073a.714.714,0,0,0,.714-.714v-1.873A.715.715,0,0,0,844.246,829.316Z" fill="#3f3d56"/>
      <path id="Path_19171" data-name="Path 19171" d="M855.246,829.316h-4.072a.715.715,0,0,0-.714.715V831.9a.714.714,0,0,0,.714.714h4.072a.714.714,0,0,0,.714-.714v-1.873A.714.714,0,0,0,855.246,829.316Z" fill="#3f3d56"/>
      <path id="Path_19172" data-name="Path 19172" d="M866.247,829.316h-4.073a.715.715,0,0,0-.714.715V831.9a.714.714,0,0,0,.714.714h4.073a.714.714,0,0,0,.714-.714v-1.873A.715.715,0,0,0,866.247,829.316Z" fill="#3f3d56"/>
      <path id="Path_19173" data-name="Path 19173" d="M701.108,834.82h-4.073a.714.714,0,0,0-.714.714v1.874a.714.714,0,0,0,.714.714h4.073a.714.714,0,0,0,.714-.714v-1.874A.714.714,0,0,0,701.108,834.82Z" fill="#3f3d56"/>
      <path id="Path_19174" data-name="Path 19174" d="M712.108,834.82h-4.072a.714.714,0,0,0-.714.714v1.874a.714.714,0,0,0,.714.714h4.072a.714.714,0,0,0,.714-.714v-1.874A.714.714,0,0,0,712.108,834.82Z" fill="#3f3d56"/>
      <path id="Path_19175" data-name="Path 19175" d="M723.109,834.82h-4.073a.714.714,0,0,0-.714.714v1.874a.714.714,0,0,0,.714.714h4.073a.714.714,0,0,0,.714-.714v-1.874A.714.714,0,0,0,723.109,834.82Z" fill="#3f3d56"/>
      <path id="Path_19176" data-name="Path 19176" d="M734.109,834.82h-4.072a.714.714,0,0,0-.714.714v1.874a.714.714,0,0,0,.714.714h4.072a.714.714,0,0,0,.714-.714v-1.874A.714.714,0,0,0,734.109,834.82Z" fill="#3f3d56"/>
      <path id="Path_19177" data-name="Path 19177" d="M745.11,834.82h-4.072a.714.714,0,0,0-.714.714v1.874a.714.714,0,0,0,.714.714h4.072a.714.714,0,0,0,.714-.714v-1.874A.714.714,0,0,0,745.11,834.82Z" fill="#3f3d56"/>
      <path id="Path_19178" data-name="Path 19178" d="M756.111,834.82h-4.073a.714.714,0,0,0-.714.714v1.874a.714.714,0,0,0,.714.714h4.073a.714.714,0,0,0,.714-.714v-1.874A.714.714,0,0,0,756.111,834.82Z" fill="#3f3d56"/>
      <path id="Path_19179" data-name="Path 19179" d="M767.111,834.82h-4.072a.714.714,0,0,0-.714.714v1.874a.714.714,0,0,0,.714.714h4.072a.714.714,0,0,0,.714-.714v-1.874A.714.714,0,0,0,767.111,834.82Z" fill="#3f3d56"/>
      <path id="Path_19180" data-name="Path 19180" d="M778.112,834.82h-4.073a.714.714,0,0,0-.714.714v1.874a.714.714,0,0,0,.714.714h4.073a.714.714,0,0,0,.714-.714v-1.874A.714.714,0,0,0,778.112,834.82Z" fill="#3f3d56"/>
      <path id="Path_19181" data-name="Path 19181" d="M789.113,834.82H785.04a.714.714,0,0,0-.714.714v1.874a.714.714,0,0,0,.714.714h4.073a.714.714,0,0,0,.713-.714v-1.874A.714.714,0,0,0,789.113,834.82Z" fill="#3f3d56"/>
      <path id="Path_19182" data-name="Path 19182" d="M800.113,834.82h-4.072a.714.714,0,0,0-.714.714v1.874a.714.714,0,0,0,.714.714h4.072a.714.714,0,0,0,.714-.714v-1.874A.714.714,0,0,0,800.113,834.82Z" fill="#3f3d56"/>
      <path id="Path_19183" data-name="Path 19183" d="M811.114,834.82h-4.073a.714.714,0,0,0-.714.714v1.874a.714.714,0,0,0,.714.714h4.073a.714.714,0,0,0,.714-.714v-1.874A.714.714,0,0,0,811.114,834.82Z" fill="#3f3d56"/>
      <path id="Path_19184" data-name="Path 19184" d="M822.115,834.82h-4.073a.714.714,0,0,0-.714.714v1.874a.714.714,0,0,0,.714.714h4.073a.714.714,0,0,0,.713-.714v-1.874A.714.714,0,0,0,822.115,834.82Z" fill="#3f3d56"/>
      <path id="Path_19185" data-name="Path 19185" d="M833.115,834.82h-4.073a.714.714,0,0,0-.713.714v1.874a.714.714,0,0,0,.713.714h4.073a.714.714,0,0,0,.714-.714v-1.874A.714.714,0,0,0,833.115,834.82Z" fill="#3f3d56"/>
      <path id="Path_19186" data-name="Path 19186" d="M844.116,834.82h-4.073a.714.714,0,0,0-.714.714v1.874a.714.714,0,0,0,.714.714h4.073a.714.714,0,0,0,.713-.714v-1.874A.714.714,0,0,0,844.116,834.82Z" fill="#3f3d56"/>
      <path id="Path_19187" data-name="Path 19187" d="M855.116,834.82h-4.072a.714.714,0,0,0-.714.714v1.874a.714.714,0,0,0,.714.714h4.072a.714.714,0,0,0,.714-.714v-1.874A.714.714,0,0,0,855.116,834.82Z" fill="#3f3d56"/>
      <path id="Path_19188" data-name="Path 19188" d="M866.117,834.82h-4.073a.714.714,0,0,0-.713.714v1.874a.714.714,0,0,0,.713.714h4.073a.714.714,0,0,0,.714-.714v-1.874A.714.714,0,0,0,866.117,834.82Z" fill="#3f3d56"/>
      <path id="Path_19189" data-name="Path 19189" d="M792.413,841.422H749.838a.714.714,0,0,0-.714.714v1.873a.714.714,0,0,0,.714.714h42.575a.714.714,0,0,0,.714-.714v-1.873A.714.714,0,0,0,792.413,841.422Z" fill="#3f3d56"/>
      <path id="Path_19190" data-name="Path 19190" d="M914.379,575.514H633.508a1.118,1.118,0,0,1,0-2.235H914.379a1.118,1.118,0,0,1,0,2.235Z" fill="#cacaca"/>
      <path id="Path_19191" data-name="Path 19191" d="M652.627,567.573a6.7,6.7,0,1,0-6.546-6.7A6.622,6.622,0,0,0,652.627,567.573Z" fill="#3f3d56"/>
      <path id="Path_19192" data-name="Path 19192" d="M675.24,567.573a6.7,6.7,0,1,0-6.546-6.7A6.622,6.622,0,0,0,675.24,567.573Z" fill="#3f3d56"/>
      <path id="Path_19193" data-name="Path 19193" d="M697.853,567.573a6.7,6.7,0,1,0-6.546-6.7A6.622,6.622,0,0,0,697.853,567.573Z" fill="#3f3d56"/>
      <path id="Path_19194" data-name="Path 19194" d="M900.764,555.844H884.7a1.217,1.217,0,0,0,0,2.433h16.063a1.217,1.217,0,0,0,0-2.433Z" fill="#3f3d56"/>
      <path id="Path_19195" data-name="Path 19195" d="M900.764,560.41H884.7a1.217,1.217,0,0,0,0,2.434h16.063a1.217,1.217,0,0,0,0-2.434Z" fill="#3f3d56"/>
      <path id="Path_19196" data-name="Path 19196" d="M900.764,564.973H884.7a1.217,1.217,0,0,0,0,2.433h16.063a1.217,1.217,0,0,0,0-2.433Z" fill="#3f3d56"/>
      <path id="Path_19197" data-name="Path 19197" d="M796.38,640.795h-35.1a4.774,4.774,0,0,0-4.773,4.775h0a4.774,4.774,0,0,0,4.773,4.775h35.1a4.774,4.774,0,0,0,4.773-4.775h0A4.774,4.774,0,0,0,796.38,640.795Z" fill="#ff639d"/>
      <path id="Path_19198" data-name="Path 19198" d="M819.052,659.9H738.611a4.773,4.773,0,0,0-4.773,4.775h0a4.774,4.774,0,0,0,4.773,4.775h80.441a4.775,4.775,0,0,0,0-9.55Z" fill="#e6e6e6"/>
      <path id="Path_19199" data-name="Path 19199" d="M819.052,679H738.611a4.775,4.775,0,0,0,0,9.55h80.441a4.775,4.775,0,0,0,0-9.55Z" fill="#e6e6e6"/>
      <path id="Path_19200" data-name="Path 19200" d="M636.25,861.051H548.513a11.7,11.7,0,0,0,0,23.406h32.17v90.7h23.4v-90.7h32.17a11.7,11.7,0,0,0,0-23.406Z" fill="#3f3d56"/>
      <path id="Path_19201" data-name="Path 19201" d="M694.158,1025.39H459.487A94.789,94.789,0,0,1,366.022,944l-8.306-30.569a686.4,686.4,0,0,0-77.767-179.8c-15.715-25.533-23.8-50.249-5.432-74.045l.462-.6c14.735-19.188,88.08-23.341,111.99-24.149q1.416-.048,2.844-.048H535.777q1.428,0,2.844.048a71.423,71.423,0,0,1,61.761,39.383,73.655,73.655,0,0,1-4.176,75.383c-51.273,77.053-66.971,125.367-50.9,156.655,15.546,30.264,63.2,45.738,149.969,48.694,23.318.794,34.02,18.959,34.095,35.5.073,16.115-10.216,33.9-32.979,34.885C695.653,1025.37,694.908,1025.39,694.158,1025.39Z" fill="#3f3d56"/>
      <path id="Path_19202" data-name="Path 19202" d="M499.352,1233.85h87.737a11.7,11.7,0,1,0,0-23.4h-32.17v-197.5h-23.4v197.5h-32.17a11.7,11.7,0,0,0,0,23.4Z" fill="#3f3d56"/>
      <path id="Path_19203" data-name="Path 19203" d="M492.345,642.124l1.839,11.181c.87,5.421,4.021,43.72,1.687,48.289-.206-8.531-16.085-21.944-26.374-18.881L453.35,686.3l-10.022,2.231-8.157,1.789-23.7,5.181c-.041-.276-.071-.568-.113-.843-.056-.347-.112-.694-.182-1.038a20.6,20.6,0,0,0-2.383-6.322,15.768,15.768,0,0,1-2.255,7.435,1.305,1.305,0,0,0-.1.185,18.591,18.591,0,0,1-1.391,1.957.3.3,0,0,0-.062.057s-4.871-77.665-4.36-78.382c.373-.51.749-1.005,1.143-1.489s.77-.978,1.178-1.465a.657.657,0,0,0,.131-.161,52.489,52.489,0,0,1,3.625-3.878c.374-.36.762-.724,1.151-1.087a54.009,54.009,0,0,1,20.733-11.964c.87-.268,1.775-.513,2.7-.761.908-.23,1.833-.45,2.764-.64l.316-.065c.444-.091.9-.17,1.352-.247.562-.1,1.126-.186,1.679-.254a54.414,54.414,0,0,1,21.517,1.21c.015,0,.017.011.032.008A55.5,55.5,0,0,1,475.43,605.1c8.749,5.78,12.155,15.207,14.574,25.791C490.852,634.53,491.565,638.311,492.345,642.124Z" fill="#2f2e41"/>
      <path id="Path_19204" data-name="Path 19204" d="M578.763,1154.23l15.114,8.22,40.011-55.35-22.309-12.12Z" fill="#ffb6b6"/>
      <path id="Path_19205" data-name="Path 19205" d="M586.038,1134.51l27.438,8.6-4.367,11.5,18.815,27.32a7.682,7.682,0,0,1-9.053,11.54l-31.942-12.14-1.186-13.47-6.469,10.56-12.044-4.58Z" fill="#2f2e41"/>
      <path id="Path_19206" data-name="Path 19206" d="M664.374,906.694a16.987,16.987,0,0,1-20.968-15.451l-128.917-46.4,23.659-20.6,122.36,48.74a17.083,17.083,0,0,1,3.866,33.706Z" fill="#ffb6b6"/>
      <path id="Path_19207" data-name="Path 19207" d="M478.475,729.9s-21.713.479-23.643,25.278,45.446,86.139,52.786,96.254S596.491,874,596.491,874l27.716-20.13c-29.123-18.879-55.7-33.354-73.538-32.7Z" fill="#ff639d"/>
      <path id="Path_19208" data-name="Path 19208" d="M451.845,839.322l5.291,22.742s.052,20.971,3.765,24.837c3.686,3.849,84.747-3.878,84.747-3.878s-8.6-33.793-8.48-59.363Z" fill="#ffb6b6"/>
      <path id="Path_19209" data-name="Path 19209" d="M623.09,1130.23l-29.246-16.1c-.556-38.07,22.334-89.59,49.483-143.554-60.718,10.447-118,13.793-167.547,1.156a32.042,32.042,0,0,1-22.9-38.706q.289-1.2.669-2.38c5.93-18.1-7.366-29.445,4.863-49.353,32.165-10.989,62.721-14.093,90.662-4.388l17.507,38.725L653.353,904.4a32.006,32.006,0,0,1,35.6,28.225q.174,1.413.228,2.839C671.632,1017.75,651.958,1091.8,623.09,1130.23Z" fill="#2f2e41"/>
      <path id="Path_19210" data-name="Path 19210" d="M455.864,682.165a36.287,36.287,0,1,0-42.807-28.276A36.287,36.287,0,0,0,455.864,682.165Z" fill="#ffb6b6"/>
      <path id="Path_19211" data-name="Path 19211" d="M440.066,695.338l33.43-1.975a6.788,6.788,0,0,1,6.673,4.189l9.447,22.912,39.263,32.464s15.545,19.791,15.581,45.349,5.515,84.717,5.515,84.717-22.687-31.948-36.69-23.451c-2.382,1.446-3.22,4.4-5.716,5.9-1.245.745-4.12.021-5.377.768-19.3,11.459-39.42,22.655-41.3,20.692-3.691-3.855-8.17-23.55-8.17-23.55l-30.6-112.478a41.672,41.672,0,0,1,5.921-35.054c2.138-3.011,4.378-5.252,6.46-5.622C439.175,709.2,436.689,698.72,440.066,695.338Z" fill="#ff639d"/>
      <path id="Path_19212" data-name="Path 19212" d="M724.435,1201.88l14.111-9.82-31.966-60.33-20.826,14.48Z" fill="#ffb6b6"/>
      <path id="Path_19213" data-name="Path 19213" d="M726.568,1161.39l-22.115,19.78c-35.164-39.2-61.748-94.18-84.276-156.61-59.026-17.29-103.54-45.184-142.4-78.3-13.183-11.16-23.065-25.5-11.822-39.091q.788-.953,1.646-1.843c13.275-13.649,46.941-11.048,66.658-23.553l44.046,47.1L575.534,941.5l82.732,28.037a31.971,31.971,0,0,1,19.5,40.984c-.31.9-.658,1.78-1.044,2.65Z" fill="#2f2e41"/>
      <path id="Path_19214" data-name="Path 19214" d="M716.208,1197.9l22.589-17.8,7.018,10.1,33.162-.1a7.675,7.675,0,0,1,7.35,5.38,7.691,7.691,0,0,1-2.942,8.62l-28.057,19.51-11.778-6.63,5.054,11.31-10.578,7.35Z" fill="#2f2e41"/>
      <path id="Path_19215" data-name="Path 19215" d="M489.43,978.8a16.993,16.993,0,0,1-7.589-24.922l-75.68-114.256,31.273-2.378,69.023,112.215A17.081,17.081,0,0,1,489.43,978.8Z" fill="#ffb6b6"/>
      <path id="Path_19216" data-name="Path 19216" d="M445.917,725.922s-17.7-12.592-34.055,6.142S396.872,828.3,396.718,840.8c-.048,3.914,5.6,12.359,13.385,22.114,3.494,4.38,7.418,9.023,11.45,13.639,2.333,2.671.323,8.231,2.666,10.827s9.014,2.2,11.23,4.6c10.52,11.375,19.066,20.033,19.066,20.033l34.247.421c.387-25.469-17.048-48.2-39.446-70.176Z" fill="#ff639d"/>
      <path id="Path_19217" data-name="Path 19217" d="M493.927,628.988c-1.342.663-2.644,1.3-3.923,1.908a121.6,121.6,0,0,1-15.873,6.46,19.993,19.993,0,0,0-4.062-6.649,15.893,15.893,0,0,1-.673,7.947,44.881,44.881,0,0,1-24.914-.962c5.263,9.748,9.151,30.29,8.868,48.61-.123,9.687-1.434,18.75-4.3,25.264l-3.677-11.193a69.764,69.764,0,0,0-2.049-11.84c-2.466-10.888-4.768-3.608-8.157,1.789l-23.7,5.181c-.041-.276-.071-.568-.113-.843-.056-.347-.112-.694-.182-1.038a20.607,20.607,0,0,0-2.382-6.321,15.788,15.788,0,0,1-2.256,7.435,1.24,1.24,0,0,0-.1.184,18.731,18.731,0,0,1-1.39,1.957.312.312,0,0,0-.063.057c-15.3,2.049-26.03-76.9-4.357-78.368.63-.042.749-1,1.14-1.5s.77-.979,1.178-1.466a.635.635,0,0,0,.131-.161c1.159-1.342,2.357-2.633,3.625-3.878.374-.36.763-.724,1.151-1.087a54.835,54.835,0,0,1,20.736-11.95c.87-.267,1.772-.527,2.692-.775.908-.23,1.833-.45,2.764-.64l.316-.065c.444-.091.9-.17,1.352-.247.562-.1,1.126-.186,1.68-.254a13.739,13.739,0,0,1,5.165,4.527l15.142-3.1c.4-.083.805-.15,1.212-.2l.029-.006C477.847,594.591,490,609.8,493.927,628.988Z" fill="#2f2e41"/>
      <path id="Path_19218" data-name="Path 19218" d="M411.4,615.029c-3.242,2.341-6.653,4.753-10.61,5.333s-8.588-1.333-9.683-5.18c-1.339-4.705,2.907-8.988,6.724-12.045l12.1-9.7a29.263,29.263,0,0,1,7.419-4.8,9.885,9.885,0,0,1,8.561.287,9.2,9.2,0,0,1,4.04,8.007,17.087,17.087,0,0,1-3,8.771,30.838,30.838,0,0,1-20.02,13.615" fill="#2f2e41"/>
      <path id="Path_19219" data-name="Path 19219" d="M503.182,866.9H415.445a11.7,11.7,0,0,0,0,23.407h32.171v90.7h23.4v-90.7h32.17a11.7,11.7,0,0,0,0-23.407Z" fill="#3f3d56"/>
      <path id="Path_19220" data-name="Path 19220" d="M827.318,1238.09l-641.577.45a1.755,1.755,0,0,1-1.736-1.75,1.712,1.712,0,0,1,.508-1.22,1.73,1.73,0,0,1,1.228-.52l641.577-.45a1.755,1.755,0,0,1,1.736,1.75,1.738,1.738,0,0,1-1.736,1.74Z" fill="#cacaca"/>
      <path id="Path_19221" data-name="Path 19221" d="M1014.02,1043.79l14.29,15.57,66.83-47.7-21.08-22.982Z" fill="#f0b7bf"/>
      <path id="Path_19222" data-name="Path 19222" d="M1043.58,1065.83v-.02l-1.44-15.55-.66-.3-3.85-1.83-18.14-8.59-.38-.41-3.65-3.98L995.3,1053.67l27.311,29.79,18.74,20.42.63-.59a26.521,26.521,0,0,0,6.98-28.62,26.34,26.34,0,0,0-5.38-8.84Z" fill="#2f2e41"/>
      <path id="Path_19223" data-name="Path 19223" d="M940.027,1199.13l20.212,6.14,33.3-75.07-29.832-9.07Z" fill="#f0b7bf"/>
      <path id="Path_19224" data-name="Path 19224" d="M992.36,1215.94a26.315,26.315,0,0,0-15.676-12.88l-9.168-12.65-.717.06-24.23,2.22-.541-.16-5.147-1.56-7.955,26.2,65.174,19.8.249-.83a26.416,26.416,0,0,0-1.989-20.2Z" fill="#2f2e41"/>
      <path id="Path_19225" data-name="Path 19225" d="M1106.7,806.057s129.05,124.65,47.46,163.234h-25.21s-7.58-26.932-24.93-49.644c-2.38-3.119-11.3-2.486-13.78-5.525-15.14-18.56-31.54-34.5-42.87-33.867l2.71,86.125,4.38,30.722c2.31,15.878-62.7,154.548-62.7,154.548L950.9,1135.58s42.572-114.21,43.071-130.67L959.851,823.864Z" fill="#2f2e41"/>
      <path id="Path_19226" data-name="Path 19226" d="M1117.46,812.2a7.694,7.694,0,0,1-2.52,2.282,17.633,17.633,0,0,1-5.28,1.96c-29.05,6.6-123.968,20.276-148.607,13.752-3.027-.79-5-1.9-5.645-3.365-2.061-4.623-1.8-24.152-.585-47.735.22-4.418,5.089-9.2,5.382-13.824.2-3.467-4.168-6.729-3.934-10.255,1.609-23.845,3.685-48.144,5.074-63.505.878-9.874,1.477-16.048,1.477-16.048l-14.988-94.548.7-1.155.789-.4,48.329-23.933,2.636-6.73a10.393,10.393,0,0,1,9.63-6.6l31.84-.131a10.36,10.36,0,0,1,8.46,4.3l8.63,11.952,57.03,36.572-.22.673-26.76,81.47-.13,6.349v.014l-1,51.056,2.77,6.919-3.12,11.352s1.44,13.269,9.11,23.129c6.96,8.953,15.83,18.286,19.83,25.864v.015C1118.58,805.825,1119.33,809.453,1117.46,812.2Z" fill="#ff639d"/>
      <path id="Path_19227" data-name="Path 19227" d="M1160.36,961.885l-6.9,8.72s-63.44,44.405-65.62,48.555l-10.02,9.49-24.26-25.95,12.62-15.814a99.042,99.042,0,0,1,37.98-29.1h0l19.34-17.16Z" fill="#2f2e41"/>
      <path id="Path_19228" data-name="Path 19228" d="M1120.05,837.264,1108.5,725.4l-3.05-46.042,32.33-5.849s-1.28,32.921,2.96,51.495c4.18,18.33.55,109.809.29,112.255a15.724,15.724,0,1,1-20.98.01Z" fill="#f0b7bf"/>
      <path id="Path_19229" data-name="Path 19229" d="M1151.59,748.577l-41.56,8.606-3.63-14.494-4.24-4.5-8.47-44.36-12.14-25.986,3.16-88.863,30.84,16.367.04.029c4.72,5.123,7.97,12.456,13.38,19.814,17.03,23.185,18.92,79.523,18.4,110.382,0,.507.51,1.041,1.12,1.6a17.1,17.1,0,0,1,3.1,21.4Z" fill="#ff639d"/>
      <path id="Path_19230" data-name="Path 19230" d="M931.848,841.653,943.4,729.783l3.049-46.041-32.335-5.849s1.282,32.921-2.954,51.495c-4.18,18.329-.555,109.808-.3,112.255a15.731,15.731,0,1,0,20.985.01Z" fill="#f0b7bf"/>
      <path id="Path_19231" data-name="Path 19231" d="M970.353,672.233l-9.008,19.281-3.144,6.715-8.466,44.355-4.226,4.491-3.642,14.5-1.71-.351L909.3,754.828l-8.993-1.858a17.109,17.109,0,0,1,3.1-21.4c.615-.556,1.126-1.1,1.112-1.609-.512-30.853,1.374-87.189,18.41-110.377,5.41-7.358,8.657-14.687,13.38-19.807.014-.015.014-.03.029-.03l11.494-18.827.7-1.156.79-.4Z" fill="#ff639d"/>
      <path id="Path_19232" data-name="Path 19232" d="M1024.92,532.908a42.374,42.374,0,1,0-42.356-42.374A42.37,42.37,0,0,0,1024.92,532.908Z" fill="#f0b7bf"/>
      <path id="Path_19233" data-name="Path 19233" d="M1072.54,471.945c-.15-7.226-.97-16.472-6.03-23.845-4.27-6.2-12.88-11.118-20.91-8.661a8.691,8.691,0,0,0-4.33-8.016c-3.04-1.858-6.69-2.2-9.93-2.5-8.14-.761-16.58-1.551-24.82.015-9.261,1.755-16.836,6.524-20.769,13.093l-.088.205-.8,3.891a3.693,3.693,0,0,1-1.828,2.487,3.627,3.627,0,0,1-3.086.219,3.35,3.35,0,0,0-4.489,3.628l.22,1.551-2.326-.439a3.341,3.341,0,0,0-3.758,4.462l.644,1.77a3.577,3.577,0,0,0-2.559,1.127,3.273,3.273,0,0,0-.439,3.832,30.434,30.434,0,0,0,10.733,10.8,25.3,25.3,0,0,0,6.391,2.735q.7.2,1.447.351a150.655,150.655,0,0,0,54.621,1.639,31.089,31.089,0,0,0-1.22,11.059c.59,4.667,3.32,8.515,6.98,9.8a14.516,14.516,0,0,0,2.54.614,15.523,15.523,0,0,1,2.44.6,7.119,7.119,0,0,1,2.08,12.172s3.83,3.174,4.31,3.013a9.851,9.851,0,0,0,4.51-4.008C1069.36,503.032,1072.89,489.047,1072.54,471.945Z" fill="#2f2e41"/>
      <path id="Path_25492" data-name="Path 25492" d="M5,0c2.761,0,5,2.686,5,6s-2.239,6-5,6S0,9.314,0,6,2.239,0,5,0Z" transform="translate(471 645)" fill="#2f2e41"/>
      <path id="Path_25495" data-name="Path 25495" d="M5,0c2.761,0,5,2.686,5,6s-2.239,6-5,6S0,9.314,0,6,2.239,0,5,0Z" transform="translate(1009 491)" fill="#2f2e41"/>
      <path id="Path_25496" data-name="Path 25496" d="M5,0c2.761,0,5,2.686,5,6s-2.239,6-5,6S0,9.314,0,6,2.239,0,5,0Z" transform="translate(984 491)" fill="#2f2e41"/>
    </g>
  </g>
  <g id="XMLID_609_" transform="translate(1099.015 360.106)">
    <g id="Group_92" data-name="Group 92" transform="translate(38.985 44.745)">
      <path id="Path_2164" data-name="Path 2164" d="M73.611,125.222a50.611,50.611,0,1,1,50.611-50.611A50.67,50.67,0,0,1,73.611,125.222Zm0-98.33A47.719,47.719,0,1,0,121.33,74.611,47.773,47.773,0,0,0,73.611,26.892Z" transform="translate(-23 -24)" fill="#3f3d56"/>
    </g>
    <path id="Path_2165" data-name="Path 2165" d="M42.45,57.619,65.485,34.87l-2.033-2.059L40.729,55.256A2.693,2.693,0,0,1,42.45,57.619Z" transform="translate(49.529 37.416)" fill="#3f3d56"/>
    <path id="Path_2166" data-name="Path 2166" d="M54.048,50.139,34.422,35.5l-1.729,2.319,19.5,14.544A2.64,2.64,0,0,1,54.048,50.139Z" transform="translate(34.324 42.501)" fill="#3f3d56"/>
    <g id="XMLID_622_" transform="translate(85.258 91.018)">
      <g id="XMLID_623_">
        <g id="Group_93" data-name="Group 93">
          <path id="Path_2167" data-name="Path 2167" d="M43.338,48.676a4.338,4.338,0,1,1,4.338-4.338A4.343,4.343,0,0,1,43.338,48.676Zm0-5.784a1.446,1.446,0,1,0,1.446,1.446A1.447,1.447,0,0,0,43.338,42.892Z" transform="translate(-39 -40)" fill="#3f3d56"/>
        </g>
      </g>
    </g>
    <g id="XMLID_631_" transform="translate(47.661 53.421)">
      <g id="Group_94" data-name="Group 94" transform="translate(19.709 4.908)">
        <rect id="Rectangle_526" data-name="Rectangle 526" width="2.889" height="5.781" transform="matrix(-0.866, -0.5, 0.5, -0.866, 41.552, 6.451)" fill="#3f3d56"/>
        <rect id="Rectangle_527" data-name="Rectangle 527" width="2.892" height="5.784" transform="translate(2.505 74.064) rotate(-150.007)" fill="#3f3d56"/>
      </g>
      <g id="Group_95" data-name="Group 95" transform="translate(4.902 19.72)">
        <rect id="Rectangle_528" data-name="Rectangle 528" width="2.889" height="5.784" transform="matrix(-0.5, -0.866, 0.866, -0.5, 69.054, 5.394)" fill="#3f3d56"/>
        <rect id="Rectangle_529" data-name="Rectangle 529" width="2.892" height="5.784" transform="translate(1.446 44.433) rotate(-119.993)" fill="#3f3d56"/>
      </g>
      <g id="Group_96" data-name="Group 96" transform="translate(0 40.489)">
        <rect id="Rectangle_530" data-name="Rectangle 530" width="5.784" height="2.892" transform="translate(78.085)" fill="#3f3d56"/>
        <rect id="Rectangle_531" data-name="Rectangle 531" width="5.784" height="2.892" fill="#3f3d56"/>
      </g>
      <g id="Group_97" data-name="Group 97" transform="translate(4.897 19.71)">
        <rect id="Rectangle_532" data-name="Rectangle 532" width="2.892" height="5.784" transform="translate(67.61 41.555) rotate(-59.991)" fill="#3f3d56"/>
        <rect id="Rectangle_533" data-name="Rectangle 533" width="2.892" height="5.784" transform="translate(0 2.505) rotate(-60.007)" fill="#3f3d56"/>
      </g>
      <g id="Group_98" data-name="Group 98" transform="translate(19.717 4.9)">
        <rect id="Rectangle_534" data-name="Rectangle 534" width="2.892" height="5.784" transform="translate(39.042 69.071) rotate(-29.993)" fill="#3f3d56"/>
        <rect id="Rectangle_535" data-name="Rectangle 535" width="2.892" height="5.784" transform="translate(0 1.446) rotate(-29.993)" fill="#3f3d56"/>
      </g>
      <g id="Group_99" data-name="Group 99" transform="translate(40.489)">
        <rect id="Rectangle_536" data-name="Rectangle 536" width="2.892" height="5.784" transform="translate(0 78.085)" fill="#3f3d56"/>
        <rect id="Rectangle_537" data-name="Rectangle 537" width="2.892" height="5.784" fill="#3f3d56"/>
      </g>
    </g>
  </g>
</svg>
