<svg id="undraw_memory_storage_reh0" xmlns="http://www.w3.org/2000/svg" xmlns:xlink="http://www.w3.org/1999/xlink" width="1500" height="1500" viewBox="0 0 1500 1500">
  <defs>
    <clipPath id="clip-path">
      <rect id="Rectangle_2426" data-name="Rectangle 2426" width="793.58" height="828" transform="translate(205 289)" fill="#fff"/>
    </clipPath>
  </defs>
  <g id="Group_106" data-name="Group 106" transform="translate(768.077 686.766)">
    <path id="Path_1424" data-name="Path 1424" d="M787.534,405.668V394.89a16.142,16.142,0,0,1,15.207-16.107V336.692h3.578v42.044h16.1v26.836h76.036V714.191H730.283V466.172a60.6,60.6,0,0,1,57.248-60.5Z" transform="translate(-730.283 -336.692)" fill="#f2f2f2"/>
    <rect id="Rectangle_248" data-name="Rectangle 248" width="22.364" height="17.891" transform="translate(118.08 112.713)" fill="#fff"/>
    <rect id="Rectangle_249" data-name="Rectangle 249" width="22.364" height="17.891" transform="translate(81.404 112.713)" fill="#fff"/>
    <rect id="Rectangle_250" data-name="Rectangle 250" width="22.364" height="17.891" transform="translate(44.727 112.713)" fill="#fff"/>
    <rect id="Rectangle_251" data-name="Rectangle 251" width="22.364" height="17.891" transform="translate(118.08 158.334)" fill="#fff"/>
    <rect id="Rectangle_252" data-name="Rectangle 252" width="22.364" height="17.891" transform="translate(81.404 158.334)" fill="#fff"/>
    <rect id="Rectangle_253" data-name="Rectangle 253" width="22.364" height="17.891" transform="translate(44.727 158.334)" fill="#fff"/>
    <rect id="Rectangle_254" data-name="Rectangle 254" width="22.364" height="17.891" transform="translate(118.08 203.956)" fill="#fff"/>
    <rect id="Rectangle_255" data-name="Rectangle 255" width="22.364" height="17.891" transform="translate(81.404 203.956)" fill="#fff"/>
    <rect id="Rectangle_256" data-name="Rectangle 256" width="22.364" height="17.891" transform="translate(44.727 203.956)" fill="#fff"/>
    <rect id="Rectangle_257" data-name="Rectangle 257" width="22.364" height="17.891" transform="translate(118.08 249.578)" fill="#fff"/>
    <rect id="Rectangle_258" data-name="Rectangle 258" width="22.364" height="17.891" transform="translate(81.404 249.578)" fill="#fff"/>
    <rect id="Rectangle_259" data-name="Rectangle 259" width="22.364" height="17.891" transform="translate(44.727 249.578)" fill="#fff"/>
    <rect id="Rectangle_260" data-name="Rectangle 260" width="22.364" height="17.891" transform="translate(118.08 295.2)" fill="#fff"/>
    <rect id="Rectangle_261" data-name="Rectangle 261" width="22.364" height="17.891" transform="translate(81.404 295.2)" fill="#fff"/>
    <rect id="Rectangle_262" data-name="Rectangle 262" width="22.364" height="17.891" transform="translate(44.727 295.2)" fill="#fff"/>
    <rect id="Rectangle_263" data-name="Rectangle 263" width="22.364" height="17.891" transform="translate(118.08 340.822)" fill="#fff"/>
    <rect id="Rectangle_264" data-name="Rectangle 264" width="22.364" height="17.891" transform="translate(81.404 340.822)" fill="#fff"/>
    <rect id="Rectangle_265" data-name="Rectangle 265" width="22.364" height="17.891" transform="translate(44.727 340.822)" fill="#fff"/>
    <path id="Path_1443" data-name="Path 1443" d="M816.255,733.327a16.4,16.4,0,0,1-11.536-3.133c-.328-.244-.689.278-.362.522a17.061,17.061,0,0,0,12.011,3.235C816.775,733.906,816.659,733.282,816.255,733.327Z" transform="translate(-714.594 -378.182)" fill="#fff"/>
    <path id="Path_1455" data-name="Path 1455" d="M713.005,614.205a.348.348,0,0,1-.161-.28c.047.041.092.084.14.124C712.991,614.1,712.993,614.152,713.005,614.205Z" transform="translate(-529.23 -365.928)" fill="#2f2e41"/>
  </g>
  <g id="undraw_memory_storage_reh0-2" data-name="undraw_memory_storage_reh0">
    <rect id="Rectangle_2425" data-name="Rectangle 2425" width="1500" height="1500" fill="#fff" opacity="0"/>
    <g id="Group_533" data-name="Group 533" clip-path="url(#clip-path)">
      <path id="Path_20388" data-name="Path 20388" d="M605.98,1117c162.372,0,294-23.28,294-52s-131.628-52-294-52-294,23.28-294,52S443.609,1117,605.98,1117Z" fill="#3f3d56"/>
      <path id="Path_20389" data-name="Path 20389" d="M360.964,575.2c0-75.756,111.082-137.169,248.11-137.169s248.11,61.413,248.11,137.169" fill="none" stroke="#3f3d56" stroke-miterlimit="10" stroke-width="2"/>
      <path id="Path_20390" data-name="Path 20390" d="M687.087,490.851H485.236q-59.885-100.926,0-201.851H687.087Q603.354,389.926,687.087,490.851Z" fill="#e6e6e6"/>
      <path id="Path_20391" data-name="Path 20391" d="M627.814,313.031H514.072v14.418H627.814Z" fill="#ff639d"/>
      <path id="Path_20392" data-name="Path 20392" d="M627.814,360.289H477.227V365.1H627.814Z" fill="#fff"/>
      <path id="Path_20393" data-name="Path 20393" d="M627.814,385.121H477.227v4.806H627.814Z" fill="#fff"/>
      <path id="Path_20394" data-name="Path 20394" d="M627.814,409.949H477.227v4.806H627.814Z" fill="#fff"/>
      <path id="Path_20395" data-name="Path 20395" d="M767.677,937.66c0,64.02,40.16,115.82,89.791,115.82Z" fill="#3f3d56"/>
      <path id="Path_20396" data-name="Path 20396" d="M857.468,1053.48c0-64.738,44.816-117.121,100.2-117.121Z" fill="#ff639d"/>
      <path id="Path_20397" data-name="Path 20397" d="M800.209,943.461c0,60.809,25.609,110.009,57.258,110.009Z" fill="#ff639d"/>
      <path id="Path_20398" data-name="Path 20398" d="M857.468,1053.48c0-82.722,51.8-149.656,115.817-149.656Z" fill="#3f3d56"/>
      <path id="Path_20399" data-name="Path 20399" d="M838.578,1054.29s12.734-.39,16.572-3.12,19.587-6,20.539-1.61,19.137,21.79,4.761,21.91-33.405-2.24-37.235-4.57S838.578,1054.29,838.578,1054.29Z" fill="#a8a8a8"/>
      <path id="Path_20400" data-name="Path 20400" d="M880.706,1069.94c-14.376.12-33.4-2.24-37.235-4.57-2.917-1.78-4.079-8.15-4.468-11.09-.269.01-.425.01-.425.01s.807,10.27,4.637,12.61,22.858,4.69,37.235,4.57c4.149-.03,5.583-1.51,5.5-3.7C885.378,1069.09,883.795,1069.92,880.706,1069.94Z" opacity="0.2"/>
      <path id="Path_20401" data-name="Path 20401" d="M562.829,446.68c1.169.536,2.576-.263,3.265-1.349,2.624-4.134-2.207-9.465-1.161-14.249.838-3.832,5.193-6.107,6.083-9.928.865-3.712-1.8-7.9,0-11.256,1.412-2.632,4.938-3.324,7.889-2.863s5.751,1.758,8.732,1.94c3.972.242,7.759-1.507,11.643-2.373s8.622-.527,10.907,2.731c2.933,4.183-.043,10.009.979,15.015.811,3.976,4.139,7.268,4.211,11.325.025,1.442-3.765.28-3.564,1.708s-1.59.171-.158,0a2.838,2.838,0,0,0,2.155-2.564c.171-1.189,2.406-1.585,2.38-2.787-.061-2.815,5.029-.917,5.868-3.605a27.259,27.259,0,0,0-1.115-19.017c-1.141-2.561-2.7-4.985-3.246-7.734-.748-3.733.428-7.74-.8-11.342-1.662-4.854-7.161-7.328-12.267-7.83s-10.294.4-15.371-.344c-4.547-.664-8.95-2.635-13.537-2.35-5.5.343-10.294,3.889-14.109,7.871s-7.052,8.562-11.385,11.973a22.33,22.33,0,0,0-3.651,3.143c-2.207,2.689-2.431,6.521-1.817,9.945s1.95,6.691,2.514,10.124c.53,3.227.367,6.523.595,9.784s.906,6.622,2.87,9.236a8.711,8.711,0,0,0,6.782,3.543c.919.021,1.695-.8,2.621-.589C561.3,445.108,561.8,446.209,562.829,446.68Z" fill="#2f2e41"/>
      <path id="Path_20402" data-name="Path 20402" d="M523.546,683.705l3.4,20.912,6.809-9.241-3.891-14.1Z" fill="#a0616a"/>
      <path id="Path_20403" data-name="Path 20403" d="M527.923,525.652l-5.361,14.127s-5.338,71.953-5.338,77.3,3.89,73.921,5.349,76.839c0,0,6.322-9.24,14.59-7.781s4.863-24.316,4.863-24.316l7.781-63.709-1.459-32.1Z" fill="#575a89"/>
      <path id="Path_20404" data-name="Path 20404" d="M527.923,525.652l-5.361,14.127s-5.338,71.953-5.338,77.3,3.89,73.921,5.349,76.839c0,0,6.322-9.24,14.59-7.781s4.863-24.316,4.863-24.316l7.781-63.709-1.459-32.1Z" opacity="0.1"/>
      <path id="Path_20405" data-name="Path 20405" d="M560.993,447.837s16.049,40.852,6.809,48.633,51.55-13.131,51.55-13.131l-1.459-5.35s-19.939-7.781-10.213-30.152S560.993,447.837,560.993,447.837Z" fill="#a0616a"/>
      <path id="Path_20406" data-name="Path 20406" d="M560.993,447.837s16.049,40.852,6.809,48.633,51.55-13.131,51.55-13.131l-1.459-5.35s-19.939-7.781-10.213-30.152S560.993,447.837,560.993,447.837Z" opacity="0.1"/>
      <path id="Path_20407" data-name="Path 20407" d="M535.7,993.5s-6.808-1.946-10.7,2.918-18.48,17.024-18.48,17.024-28.207-2.92-32.1,11.18,44.256,14.11,55.928,10.7,14.1,0,14.1,0,35.988,2.92,35.988-2.92-3.4-25.77-3.4-25.77Z" fill="#575a89"/>
      <path id="Path_20408" data-name="Path 20408" d="M649.991,1026.08l-6.323,19.45s-18.966,26.26-8.267,31.61,48.632,10.7,48.632-3.4v-26.75s-3.89-18.97-7.781-20.91S649.991,1026.08,649.991,1026.08Z" fill="#575a89"/>
      <path id="Path_20409" data-name="Path 20409" d="M542.591,676.589s-20.5,17.815-20.018,20.247,10.213,158.542,10.213,158.542l5.349,101.156s-6.808,23.83-3.4,29.18-4.863,6.808-4.863,6.808,35.015,31.608,49.605,18L593.09,833.98l37.447,128.39s6.323,68.09,13.618,68.09,36.96,1.45,36.474-2.44,1.459-33.553-1.945-51.06-26.262-156.111-26.262-156.111-1.965-118.822,3.151-129.928-2.665-22.778-2.665-22.778l-34.042-13.131-40.852,4.863Z" fill="#2f2e41"/>
      <path id="Path_20410" data-name="Path 20410" d="M583.85,464.375a34.043,34.043,0,1,0-34.042-34.043A34.043,34.043,0,0,0,583.85,464.375Z" fill="#a0616a"/>
      <path id="Path_20411" data-name="Path 20411" d="M666.526,503.765a30.541,30.541,0,0,0-21.4-19.453,188.585,188.585,0,0,1-28.694-9.726s-34.529,16.535-41.337,16.535-6.809-4.377-6.809-4.377-17.508,18.48-26.748,20.426-22.857,24.8-17.994,37.447a70.586,70.586,0,0,0,14.1,21.885s-1.945,68.085,4.377,80.73c0,0-15.562,29.666-.972,31.611s70.517-4.863,80.244,1.945,27.72-1.459,30.152,7.781,7.781,11.186,7.781,11.186,8.268-13.131,3.4-20.912S666.526,503.765,666.526,503.765Z" fill="#575a89"/>
      <path id="Path_20412" data-name="Path 20412" d="M630.538,686.625l-7.781,4.863s8.267,28.693,11.672,29.666,11.417-24.534,11.417-24.534Z" fill="#a0616a"/>
      <path id="Path_20413" data-name="Path 20413" d="M556.993,443.278c1.169.536,2.576-.263,3.265-1.349,2.624-4.134-2.207-9.465-1.161-14.249.838-3.833,5.193-6.107,6.083-9.928.866-3.713-1.8-7.9,0-11.256,1.412-2.632,4.939-3.325,7.889-2.864s5.752,1.759,8.732,1.94c3.973.242,7.759-1.506,11.643-2.372s8.622-.528,10.907,2.731c2.933,4.183-.043,10.008.979,15.015.811,3.976,10.053,6.766,10.892,4.078a27.268,27.268,0,0,0-1.114-19.018c-1.142-2.561-2.7-4.984-3.247-7.734-.748-3.732.429-7.74-.8-11.341-1.662-4.854-7.161-7.328-12.267-7.831s-10.294.4-15.371-.344c-4.547-.664-8.95-2.635-13.537-2.349-5.5.343-10.294,3.889-14.109,7.871s-7.052,8.561-11.385,11.973a22.324,22.324,0,0,0-3.651,3.142c-2.207,2.69-2.43,6.521-1.817,9.946s1.95,6.691,2.514,10.124c.531,3.226.367,6.522.595,9.784s.906,6.622,2.87,9.235a8.719,8.719,0,0,0,6.783,3.544c.918.021,1.694-.8,2.621-.589C555.461,441.706,555.965,442.806,556.993,443.278Z" fill="#2f2e41"/>
      <path id="Path_20414" data-name="Path 20414" d="M647.316,512.276l15.806-8.51S701.542,595.2,692.3,620.484s-44.742,77.326-44.742,77.326-28.207-5.836-25.289-11.672,21.885-43.283,23.344-48.146,11.185-36.475,6.809-39.879-12.888-82.432-12.888-82.432Z" opacity="0.1"/>
      <path id="Path_20415" data-name="Path 20415" d="M647.073,498.418l19.453,5.35s38.42,91.429,29.18,116.718-44.742,77.326-44.742,77.326-28.207-5.836-25.289-11.672,21.884-43.283,23.343-48.146,11.186-36.475,6.809-39.879-25.289-87.539-25.289-87.539Z" fill="#575a89"/>
      <path id="Path_20416" data-name="Path 20416" d="M857.184,575.207c0,79.425-111.083,143.812-248.11,143.812s-248.11-64.387-248.11-143.812" fill="none" stroke="#3f3d56" stroke-miterlimit="10" stroke-width="2"/>
      <path id="Path_20417" data-name="Path 20417" d="M812.054,721.059c-55.459,29.91-127.823,48.011-206.982,48.011-75.9,0-145.547-16.64-200.04-44.374" fill="none" stroke="#3f3d56" stroke-miterlimit="10" stroke-width="2"/>
      <path id="Path_20418" data-name="Path 20418" d="M732.978,400.906c105.544,27.741,180.712,88.762,187.7,160.631" fill="none" stroke="#3f3d56" stroke-miterlimit="10" stroke-width="2"/>
      <path id="Path_20419" data-name="Path 20419" d="M304.163,514.822c17.784-32.686,50.271-61.45,92.837-83.549" fill="none" stroke="#3f3d56" stroke-miterlimit="10" stroke-width="2"/>
      <path id="Path_20420" data-name="Path 20420" d="M522.357,864.706H724.208q59.884-100.925,0-201.851H522.357Q606.09,763.781,522.357,864.706Z" fill="#f2f2f2"/>
      <path id="Path_20421" data-name="Path 20421" d="M702.887,701.3H589.146v14.418H702.887Z" fill="#ff639d"/>
      <path id="Path_20422" data-name="Path 20422" d="M730.922,744.559H580.335v4.806H730.922Z" fill="#fff"/>
      <path id="Path_20423" data-name="Path 20423" d="M730.922,769.387H580.335v4.806H730.922Z" fill="#fff"/>
      <path id="Path_20424" data-name="Path 20424" d="M436.793,727.7H234.942q-59.885-100.925,0-201.85H436.793Q353.06,626.772,436.793,727.7Z" fill="#f2f2f2"/>
      <path id="Path_20425" data-name="Path 20425" d="M371.111,549.879H257.37V564.3H371.111Z" fill="#ff639d"/>
      <path id="Path_20426" data-name="Path 20426" d="M383.126,589.93H232.539v4.806H383.126Z" fill="#fff"/>
      <path id="Path_20427" data-name="Path 20427" d="M383.126,614.758H232.539v4.806H383.126Z" fill="#fff"/>
      <path id="Path_20428" data-name="Path 20428" d="M383.126,639.59H232.539V644.4H383.126Z" fill="#fff"/>
      <path id="Path_20429" data-name="Path 20429" d="M383.126,664.422H232.539v4.806H383.126Z" fill="#fff"/>
      <path id="Path_20430" data-name="Path 20430" d="M766.787,634.722H968.638q59.883-100.926,0-201.851H766.787Q850.52,533.8,766.787,634.722Z" fill="#f2f2f2"/>
      <path id="Path_20431" data-name="Path 20431" d="M944.913,452.895H831.172v14.417H944.913Z" fill="#ff639d"/>
      <path id="Path_20432" data-name="Path 20432" d="M969.744,492.945H819.157v4.806H969.744Z" fill="#fff"/>
      <path id="Path_25492" data-name="Path 25492" d="M3.513,0c1.94,0,3.513,1.887,3.513,4.216S5.453,8.432,3.513,8.432,0,6.544,0,4.216,1.573,0,3.513,0Z" transform="translate(571 424)" fill="#2f2e41"/>
      <path id="Path_25505" data-name="Path 25505" d="M3.513,0c1.94,0,3.513,1.887,3.513,4.216S5.453,8.432,3.513,8.432,0,6.544,0,4.216,1.573,0,3.513,0Z" transform="translate(594.764 424)" fill="#2f2e41"/>
    </g>
  </g>
</svg>
