<svg id="undraw_absorbed_in_re_ymd6" xmlns="http://www.w3.org/2000/svg" width="1500" height="1500" viewBox="0 0 1500 1500">
  <g id="undraw_absorbed_in_re_ymd6-2" data-name="undraw_absorbed_in_re_ymd6">
    <rect id="Rectangle_2438" data-name="Rectangle 2438" width="1500" height="1500" fill="#fff" opacity="0"/>
    <path id="Path_21194" data-name="Path 21194" d="M687.014,455.96c-.221,0-.441-.007-.662-.021-14.585-.938-64.492-8.005-94.3-59.589a10.581,10.581,0,0,1,1.083-12.052h0c24.89-20.263,44.333-42.193,55.81-66.56a10.662,10.662,0,0,1,8.33-3.768,10.529,10.529,0,0,1,8.171,4.18c14.151,18.612,42.088,51.56,70.2,63.111a10.574,10.574,0,0,1,4.188,16.5l-44.71,54.342a10.538,10.538,0,0,1-8.112,3.856Z" fill="#e6e6e6"/>
    <path id="Path_21195" data-name="Path 21195" d="M601.586,386.918l.778.654a2.916,2.916,0,0,0-.345,3.233c26.963,49.7,75.169,53.6,84.559,53.873a2.806,2.806,0,0,0,2.326-1.053l44.389-53.951a2.887,2.887,0,0,0-1.434-4.612c-30.148-8.819-61.78-49.668-70.756-61.979a2.859,2.859,0,0,0-2.224-1.18,2.934,2.934,0,0,0-2.324,1.041,190.168,190.168,0,0,1-54.191,64.628l-.778-.654Z" fill="#fff"/>
    <path id="Path_21196" data-name="Path 21196" d="M624.718,399.213l40.237-41.065c2.75-2.808-1.559-7.128-4.313-4.317L620.405,394.9c-2.75,2.808,1.559,7.128,4.313,4.317Z" fill="#e6e6e6"/>
    <path id="Path_21197" data-name="Path 21197" d="M649,410.781a159.086,159.086,0,0,0,28.657-34.157c2.086-3.341-3.189-6.409-5.266-3.081a153.253,153.253,0,0,1-27.7,32.921c-2.929,2.628,1.4,6.934,4.312,4.317Z" fill="#e6e6e6"/>
    <path id="Path_21198" data-name="Path 21198" d="M670.891,424.633a168.538,168.538,0,0,0,25.493-37.219c1.757-3.5-3.5-6.6-5.267-3.081a162.539,162.539,0,0,1-24.539,35.983C663.954,423.226,668.254,427.557,670.891,424.633Z" fill="#e6e6e6"/>
    <path id="Path_21199" data-name="Path 21199" d="M723.607,472.238c-.221,0-.441-.008-.662-.022-14.585-.938-64.492-8-94.3-59.588a10.582,10.582,0,0,1,1.083-12.053h0a278.515,278.515,0,0,0,55.81-66.56,10.658,10.658,0,0,1,8.33-3.767,10.525,10.525,0,0,1,8.171,4.179c14.151,18.612,42.088,51.56,70.2,63.112a10.573,10.573,0,0,1,4.188,16.5l-44.71,54.343a10.54,10.54,0,0,1-8.112,3.855Z" fill="#e6e6e6"/>
    <path id="Path_21200" data-name="Path 21200" d="M638.179,403.2l.778.654a2.916,2.916,0,0,0-.345,3.233c26.963,49.7,75.17,53.6,84.559,53.874A2.809,2.809,0,0,0,725.5,459.9l44.389-53.95a2.887,2.887,0,0,0-1.434-4.613c-30.148-8.819-61.78-49.668-70.756-61.979a2.862,2.862,0,0,0-2.224-1.18,2.937,2.937,0,0,0-2.324,1.041c-15.386,25.592-32.7,48.277-54.191,64.628l-.778-.654Z" fill="#fff"/>
    <path id="Path_21201" data-name="Path 21201" d="M661.311,415.49l40.237-41.065c2.75-2.807-1.559-7.127-4.313-4.317L657,411.174c-2.75,2.807,1.559,7.127,4.313,4.316Z" fill="#e6e6e6"/>
    <path id="Path_21202" data-name="Path 21202" d="M685.6,427.058A159.081,159.081,0,0,0,714.253,392.9c2.086-3.341-3.189-6.409-5.266-3.081a153.3,153.3,0,0,1-27.7,32.921c-2.929,2.627,1.4,6.933,4.312,4.316Z" fill="#e6e6e6"/>
    <path id="Path_21203" data-name="Path 21203" d="M707.484,440.91a168.567,168.567,0,0,0,25.493-37.218c1.757-3.5-3.5-6.6-5.267-3.081a162.585,162.585,0,0,1-24.539,35.983C700.547,439.5,704.847,443.834,707.484,440.91Z" fill="#e6e6e6"/>
    <path id="Path_21204" data-name="Path 21204" d="M1124.1,850.73c-.22,0-.44-.008-.66-.022-14.59-.938-64.5-8-94.3-59.588a10.585,10.585,0,0,1,1.08-12.053h0l55.81-66.559a10.681,10.681,0,0,1,8.33-3.768c3.23.076,7.38,1.036,8.17,4.179,6.43,25.543,34.12,58.712,70.2,63.112,3.39.413,5.45,3.936,6.28,7.239a10.448,10.448,0,0,1-2.09,9.263l-44.71,54.342a10.533,10.533,0,0,1-8.11,3.855Z" fill="#e6e6e6"/>
    <path id="Path_21205" data-name="Path 21205" d="M1038.67,781.688l.78.653a2.929,2.929,0,0,0-.35,3.234c26.97,49.7,75.17,53.6,84.56,53.873a2.816,2.816,0,0,0,2.33-1.053l44.39-53.951a2.837,2.837,0,0,0,.53-2.683,2.435,2.435,0,0,0-1.97-1.929c-38.37-1.8-69.2-43.341-70.75-61.98-.08-.887-1.34-1.15-2.23-1.18a2.931,2.931,0,0,0-2.32,1.041l-54.19,64.628-.78-.653Z" fill="#fff"/>
    <path id="Path_21206" data-name="Path 21206" d="M1061.8,793.983l40.24-41.066c2.75-2.807-1.56-7.127-4.31-4.317l-40.24,41.066C1054.74,792.473,1059.05,796.793,1061.8,793.983Z" fill="#e6e6e6"/>
    <path id="Path_21207" data-name="Path 21207" d="M1086.09,805.551a159.142,159.142,0,0,0,28.65-34.157c2.09-3.341-3.18-6.409-5.26-3.081a153.163,153.163,0,0,1-27.71,32.921c-2.92,2.628,1.4,6.933,4.32,4.317Z" fill="#e6e6e6"/>
    <path id="Path_21208" data-name="Path 21208" d="M1107.97,819.4a168.423,168.423,0,0,0,25.5-37.219c1.76-3.5-3.5-6.6-5.27-3.081a162.732,162.732,0,0,1-24.54,35.983C1101.04,818,1105.34,822.326,1107.97,819.4Z" fill="#e6e6e6"/>
    <path id="Path_21209" data-name="Path 21209" d="M956.9,1205.52H932.792l-11.469-93.08h35.582Z" fill="#ffb6b6"/>
    <path id="Path_21210" data-name="Path 21210" d="M874.3,1204.97c-.751,1.27-1.147,5.35-1.147,6.82a8.191,8.191,0,0,0,8.183,8.2H956a5.591,5.591,0,0,0,5.582-5.59v-3.11s3.694-9.36-3.911-20.88c0,0-9.451,9.02-23.573-5.11l-4.165-7.55-30.145,22.06-16.709,2.06c-3.656.45-6.9-.07-8.778,3.1Z" fill="#2f2e41"/>
    <path id="Path_21211" data-name="Path 21211" d="M1179.53,1157.9l-20.54,12.64-58.49-73.27,30.31-18.66Z" fill="#ffb6b6"/>
    <path id="Path_21212" data-name="Path 21212" d="M1108.89,1200.75c.02,1.47,1.82,5.16,2.59,6.41a8.177,8.177,0,0,0,11.26,2.69l63.59-39.16a5.587,5.587,0,0,0,1.83-7.69l-1.63-2.65s-1.75-9.9-14.26-15.73c0,0-3.32,12.65-22.75,8.01l-7.5-4.25-14.12,34.61-13.16,10.52c-2.88,2.3-5.91,3.56-5.85,7.24Z" fill="#2f2e41"/>
    <path id="Path_21213" data-name="Path 21213" d="M1028,770.16a30.392,30.392,0,0,1,.01-14.461L1013.49,706.8l23.65-6.418,12.19,50.289a30.373,30.373,0,0,1,6.3,12.971c2.72,11.9-1.25,23.012-8.88,24.81s-16.03-6.394-18.75-18.3Z" fill="#ffb6b6"/>
    <path id="Path_21214" data-name="Path 21214" d="M893.423,444.245s38.116-16.606,59.4,7.391c19.372,21.843,58.7,87.572,54.658,93.967l38.72,183.109-28.7,8.849L941.376,526.943l-47.953-82.7Z" fill="#ff639d"/>
    <path id="Path_21215" data-name="Path 21215" d="M851.444,715.607l19.639,229.34,47.461,212.963,50.733-4.92L944.729,920.375l15.026-206.727Z" fill="#2f2e41"/>
    <path id="Path_21216" data-name="Path 21216" d="M855.5,765.37,977.825,960.286l139.565,167.6,42.86-27.61L1032.07,904.7c-19.62-86.151-41.344-165.9-81.16-190.689L855.5,765.37h0Z" fill="#2f2e41"/>
    <path id="Path_21217" data-name="Path 21217" d="M862.642,766.32a24.753,24.753,0,0,1-24.512-26.506L848.8,637.339l-4.076-111.9.026-.121,12.668-60.808a24,24,0,0,1,1.183-5.943l18.712-56.312a24.684,24.684,0,0,1,23.454-16.934h16.546a24.663,24.663,0,0,1,20.568,11.018l14.484,21.748a24.753,24.753,0,0,1,2.414,4.611l31.978,80.783a24.759,24.759,0,0,1,1.715,8.017l9.921,224.2a24.695,24.695,0,0,1-28.362,25.552,267.032,267.032,0,0,0-101.61,4.389,24.867,24.867,0,0,1-5.779.686h0Z" fill="#ff639d"/>
    <path id="Path_21218" data-name="Path 21218" d="M857.991,543.6l-27.822-21.3S843.262,406,877.63,406,930,386.34,930,386.34s122.74,172,88.37,191.663-81.824,9.828-81.824,9.828L919.83,440.894a8.488,8.488,0,0,0-15.976-1.259L857.991,543.6Z" fill="#3f3d56"/>
    <path id="Path_21219" data-name="Path 21219" d="M903.76,380.308a47.617,47.617,0,1,0-47.571-47.617A47.594,47.594,0,0,0,903.76,380.308Z" fill="#ffb6b6"/>
    <path id="Path_21220" data-name="Path 21220" d="M941.432,368.69c-4.291,1.6-10.87,4.1-15.161,5.7-4-7.985.9-12.129,1.41-21.049a64.119,64.119,0,0,0,.353-8.928c-.247-2.971-1.266-6.021-3.506-7.987-3.425-3.007-9.13-2.518-12.446.61s-4.261,8.3-2.906,12.65c-13.044-5.644-21.47-20.45-19.669-34.559-3.9-1.529-7.888-3.078-12.071-3.195s-8.663,1.481-10.892,5.025c-1.563,2.486-1.874,5.641-3.628,7.995-2.85,3.825-9.009,4.121-12.793,1.22S844.89,318,845.7,313.3s-5.066-14.3-1.778-17.755c2.242-2.357,13.373.983,15.875-1.1a66.34,66.34,0,0,1,7.09-5.374,33.17,33.17,0,0,1,10.408-4.258,66.133,66.133,0,0,1,10.61-1.17c3.611-.2,8.607-7.4,12.218-7.6,10.631-.6,20.132,5.829,30.332,8.889s16.617,11.844,22.263,20.881c8.043,12.872,5.309,26.976-.229,39.285-1.369,3.042,3.225,6.239,2.545,9.506-.633,3.036-3.474,5.235-4.139,8.265-.568,2.59-3.927-.411-4.728,2.117a7.32,7.32,0,0,1-4.907,4.418,21.6,21.6,0,0,1-6.8.661" fill="#2f2e41"/>
    <path id="Path_21221" data-name="Path 21221" d="M931.221,385.117l1.676,1.222,4.227,3.08a21.547,21.547,0,0,1-2.214,36.236L917.726,398.18" fill="#3f3d56"/>
    <path id="Path_21222" data-name="Path 21222" d="M1207.69,1187.73a4.623,4.623,0,0,0,3.35-8.01l-.32-1.25c.04-.1.09-.2.13-.31,4.24-10.13,18.64-10.06,22.85.09,3.74,9.01,8.5,18.04,9.67,27.56a36.922,36.922,0,0,1-.64,12.62,147.326,147.326,0,0,0,13.36-61.09,142.368,142.368,0,0,0-.88-15.84q-.72-6.465-2.02-12.84a148.956,148.956,0,0,0-29.48-63.06,39.6,39.6,0,0,1-16.45-17.08,30.393,30.393,0,0,1-2.74-8.26c.8.11,3.02-12.1,2.41-12.85,1.12-1.7,3.12-2.54,4.33-4.19,6.07-8.23,14.42-6.8,18.78,4.39,9.32,4.7,9.41,12.51,3.69,20.01-3.64,4.78-4.13,11.24-7.33,16.35.33.42.67.83,1,1.25a150.178,150.178,0,0,1,15.62,24.76,62.314,62.314,0,0,1,3.71-28.91c3.55-8.58,10.22-15.81,16.08-23.23,7.05-8.91,21.5-5.02,22.74,6.27l.03.33c-.87.49-1.72,1.02-2.55,1.57a6.264,6.264,0,0,0,2.52,11.4l.13.02a62.975,62.975,0,0,1-1.65,9.32c7.53,29.13-8.72,39.74-31.92,40.21-.51.27-1.01.53-1.52.78a148.629,148.629,0,0,1,5.62,20.31,150.494,150.494,0,0,1,2.6,18.41,146.375,146.375,0,0,1-.1,23.41l.03-.28a38.341,38.341,0,0,1,13.07-22.12c10.05-8.27,24.26-11.31,35.11-17.95,5.22-3.2,11.91.93,11,6.99l-.05.29a43.373,43.373,0,0,0-4.71,2.27c-.87.5-1.73,1.02-2.56,1.57a6.266,6.266,0,0,0,2.52,11.4l.13.02a2.305,2.305,0,0,1,.26.04,62.434,62.434,0,0,1-11.46,17.96c-4.71,25.44-24.92,27.85-46.54,20.44h-.01a153.221,153.221,0,0,1-10.25,29.97h-36.64c-.13-.41-.25-.83-.37-1.24a41.491,41.491,0,0,0,10.14-.6c-2.72-3.34-5.43-6.7-8.15-10.04a1.505,1.505,0,0,1-.17-.2c-1.38-1.71-2.77-3.4-4.15-5.11h0a61.1,61.1,0,0,1,1.78-15.55Z" fill="#f2f2f2"/>
    <path id="Path_21223" data-name="Path 21223" d="M574.326,1220.58a2.414,2.414,0,0,0,2.42,2.42H1315.3a2.42,2.42,0,0,0,0-4.84H576.746A2.408,2.408,0,0,0,574.326,1220.58Z" fill="#ccc"/>
    <path id="Path_21224" data-name="Path 21224" d="M691.308,441.789a29.413,29.413,0,0,1,9.589,10.043l42.572,24.412-12.2,19.937L689.4,469.271a29.362,29.362,0,0,1-13-4.875c-9.8-6.474-14.409-16.782-10.294-23.025s15.4-6.056,25.2.418Z" fill="#ffb6b6"/>
    <path id="Path_21225" data-name="Path 21225" d="M891.608,416.054c27.148-16.666,54.429,21.5,30.291,42.293l-.082.07-96.449,90.8L709.942,492.164l11.414-30.8,89.426,35.459,67.083-69.708a74.865,74.865,0,0,1,13.743-11.056Z" fill="#ff639d"/>
    <path id="Path_21226" data-name="Path 21226" d="M319.84,567.664a4.072,4.072,0,0,0-4.066,4.07v63.082a4.066,4.066,0,1,0,8.132,0V571.734A4.071,4.071,0,0,0,319.84,567.664Z" fill="#3f3d56"/>
    <path id="Path_21227" data-name="Path 21227" d="M359.688,628.451a24.832,24.832,0,1,0-25.337-24.827A25.086,25.086,0,0,0,359.688,628.451Z" fill="#ff639d"/>
    <path id="Path_21228" data-name="Path 21228" d="M562.806,595.132H426.426a8.494,8.494,0,0,1,0-16.987h136.38a8.494,8.494,0,0,1,0,16.987Z" fill="#f2f2f2"/>
    <path id="Path_21229" data-name="Path 21229" d="M669.238,623.878H426.426a8.494,8.494,0,0,1,0-16.987H669.238a8.494,8.494,0,0,1,0,16.987Z" fill="#f2f2f2"/>
    <path id="Path_21230" data-name="Path 21230" d="M206.337,762.713A24.832,24.832,0,1,0,181,737.886,25.086,25.086,0,0,0,206.337,762.713Z" fill="#ff639d"/>
    <path id="Path_21231" data-name="Path 21231" d="M409.455,729.393H273.075a8.494,8.494,0,0,1,0-16.987h136.38a8.494,8.494,0,0,1,0,16.987Z" fill="#f2f2f2"/>
    <path id="Path_21232" data-name="Path 21232" d="M444.31,844.131A24.832,24.832,0,1,0,418.973,819.3,25.086,25.086,0,0,0,444.31,844.131Z" fill="#ff639d"/>
    <path id="Path_21233" data-name="Path 21233" d="M753.86,839.557H511.048a8.494,8.494,0,0,1,0-16.987H753.86a8.494,8.494,0,0,1,0,16.987Z" fill="#f2f2f2"/>
    <path id="Path_21234" data-name="Path 21234" d="M693.872,379.9a24.832,24.832,0,1,0-25.337-24.827A25.086,25.086,0,0,0,693.872,379.9Z" fill="#ff639d"/>
    <path id="Path_21235" data-name="Path 21235" d="M1160.25,796.119a24.832,24.832,0,1,0-25.33-24.827A25.084,25.084,0,0,0,1160.25,796.119Z" fill="#ff639d"/>
    <path id="Path_25492" data-name="Path 25492" d="M3.957,0C6.142,0,7.913,2.126,7.913,4.748S6.142,9.5,3.957,9.5,0,7.37,0,4.748,1.771,0,3.957,0Z" transform="matrix(0.951, -0.309, 0.309, 0.951, 863.391, 342.839)" fill="#2f2e41"/>
  </g>
  <path id="Path_21881" data-name="Path 21881" d="M84.962,198.43A56.317,56.317,0,0,1,141.2,145.056c1.712,0,3.4.089,5.074.239a74.823,74.823,0,0,1,129.342-.061c1.411-.106,2.832-.178,4.27-.178a56.316,56.316,0,0,1,56.238,53.372" transform="translate(174.158 275.537)" fill="#f2f2f2"/>
  <path id="Path_21882" data-name="Path 21882" d="M102.053,192.118a56.317,56.317,0,0,1,56.238-53.373c1.712,0,3.4.089,5.074.239a74.823,74.823,0,0,1,129.342-.061c1.411-.106,2.832-.178,4.27-.178a56.316,56.316,0,0,1,56.238,53.372" transform="translate(168.797 277.517)" fill="none" stroke="#3f3d56" stroke-miterlimit="10" stroke-width="1"/>
  <path id="Path_21877" data-name="Path 21877" d="M831.938,216.534a31.231,31.231,0,0,1,31.188-29.6c.949,0,1.886.05,2.814.132a41.494,41.494,0,0,1,71.728-.034c.783-.059,1.57-.1,2.368-.1a31.231,31.231,0,0,1,31.187,29.6" transform="translate(242 364.433)" fill="#f2f2f2"/>
  <path id="Path_21878" data-name="Path 21878" d="M844.569,211.869a31.231,31.231,0,0,1,31.188-29.6c.949,0,1.886.05,2.814.132a41.494,41.494,0,0,1,71.728-.034c.783-.059,1.57-.1,2.368-.1a31.231,31.231,0,0,1,31.187,29.6" transform="translate(235.874 366.695)" fill="none" stroke="#3f3d56" stroke-miterlimit="10" stroke-width="1"/>
</svg>
