<svg id="undraw_blogging_re_kl0d" xmlns="http://www.w3.org/2000/svg" xmlns:xlink="http://www.w3.org/1999/xlink" width="1500" height="1500" viewBox="0 0 1500 1500">
  <defs>
    <clipPath id="clip-path">
      <rect id="Rectangle_2415" data-name="Rectangle 2415" width="1191" height="571" transform="translate(154 464)" fill="#fff"/>
    </clipPath>
  </defs>
  <g id="undraw_blogging_re_kl0d-2" data-name="undraw_blogging_re_kl0d">
    <rect id="Rectangle_2414" data-name="Rectangle 2414" width="1500" height="1500" fill="#fff" opacity="0"/>
    <g id="Group_528" data-name="Group 528" clip-path="url(#clip-path)">
      <path id="Path_19978" data-name="Path 19978" d="M426.891,963c2.946-23.694,17.626-47.039,40.216-54.75a110.032,110.032,0,0,0,.006,75.527c3.471,9.393,8.31,19.473,5.044,28.943-2.031,5.89-7,10.4-12.557,13.21s-11.721,4.17-17.81,5.48l-1.2.99C430.927,1010.57,423.945,986.693,426.891,963Z" fill="#f0f0f0"/>
      <path id="Path_19979" data-name="Path 19979" d="M467.331,908.7a94.037,94.037,0,0,0-23.368,52.918,40.5,40.5,0,0,0,.46,12.678,23.223,23.223,0,0,0,5.775,10.771c2.6,2.861,5.6,5.485,7.458,8.928a14.218,14.218,0,0,1,.694,11.608c-1.644,4.72-4.884,8.56-8.184,12.21-3.663,4.05-7.533,8.21-9.09,13.58-.189.65-1.187.32-1-.33,2.709-9.35,11.78-14.66,16.106-23.08,2.018-3.92,2.866-8.485.973-12.632-1.654-3.626-4.739-6.335-7.4-9.208a24.782,24.782,0,0,1-6.038-10.322,37.438,37.438,0,0,1-.947-12.614,91.259,91.259,0,0,1,6.661-27.722,95.717,95.717,0,0,1,17.2-27.575c.45-.5,1.143.289.7.79Z" fill="#fff"/>
      <path id="Path_19980" data-name="Path 19980" d="M444.246,955.247a14.105,14.105,0,0,1-10.735-14.778.526.526,0,0,1,1.051.053,13.063,13.063,0,0,0,10.014,13.726C445.234,954.4,444.9,955.4,444.246,955.247Z" fill="#fff"/>
      <path id="Path_19981" data-name="Path 19981" d="M448.687,983.79a27.194,27.194,0,0,0,12.139-15.66c.191-.65,1.189-.319,1,.33a28.281,28.281,0,0,1-12.665,16.269C448.577,985.076,448.107,984.134,448.687,983.79Z" fill="#fff"/>
      <path id="Path_19982" data-name="Path 19982" d="M454.529,926.376a7.979,7.979,0,0,0,7.565-.384c.579-.353,1.048.589.473.94a8.945,8.945,0,0,1-8.368.443.542.542,0,0,1-.334-.664.529.529,0,0,1,.664-.335Z" fill="#fff"/>
      <path id="Path_19983" data-name="Path 19983" d="M535.966,950.57c-.355.231-.71.462-1.065.7a105.119,105.119,0,0,0-13.443,10.5c-.328.293-.657.6-.977.9a110.873,110.873,0,0,0-24.07,32.959,107.914,107.914,0,0,0-5.9,15.255c-2.175,7.22-3.96,15.23-8.266,21.13a18.508,18.508,0,0,1-1.439,1.78H441.894c-.088-.05-.177-.08-.266-.13l-1.554.08c.062-.28.133-.56.2-.84.036-.16.08-.32.116-.48.026-.11.053-.21.071-.31.009-.04.018-.07.026-.1.018-.1.045-.18.063-.27q.585-2.385,1.207-4.77c0-.01,0-.01.009-.02a158.5,158.5,0,0,1,13.318-34.975c.178-.329.355-.666.551-.995a102.827,102.827,0,0,1,9.225-14,90.738,90.738,0,0,1,6.047-6.918A75.5,75.5,0,0,1,489.8,955.908c13.958-7.372,30.117-10.2,45.034-5.693C535.211,950.33,535.585,950.446,535.966,950.57Z" fill="#f0f0f0"/>
      <path id="Path_19984" data-name="Path 19984" d="M535.879,951.065a93.986,93.986,0,0,0-50.51,28.179,40.475,40.475,0,0,0-7.264,10.4,23.227,23.227,0,0,0-1.873,12.076c.357,3.85,1.167,7.75.582,11.62a14.241,14.241,0,0,1-6.433,9.69c-4.152,2.77-9.053,3.89-13.885,4.82-5.364,1.03-10.952,2.01-15.429,5.36-.542.41-1.141-.45-.6-.86,7.789-5.83,18.227-4.61,26.748-8.72,3.976-1.93,7.4-5.06,8.383-9.51.861-3.89.029-7.91-.366-11.81a24.772,24.772,0,0,1,1.392-11.873,37.45,37.45,0,0,1,6.836-10.641,91.19,91.19,0,0,1,22-18.123A95.651,95.651,0,0,1,535.8,950.015c.662-.131.739.919.081,1.05Z" fill="#fff"/>
      <path id="Path_19985" data-name="Path 19985" d="M489.428,974.327a14.111,14.111,0,0,1,.323-18.265c.449-.506,1.257.168.807.675a13.064,13.064,0,0,0-.265,16.99c.431.522-.436,1.118-.865.6Z" fill="#fff"/>
      <path id="Path_19986" data-name="Path 19986" d="M475.794,999.794a27.177,27.177,0,0,0,19.118-5.193c.544-.4,1.142.461.6.865a28.275,28.275,0,0,1-19.9,5.364c-.674-.08-.482-1.111.188-1.036Z" fill="#fff"/>
      <path id="Path_19987" data-name="Path 19987" d="M515.017,957.468a7.983,7.983,0,0,0,6.271,4.249c.675.066.483,1.1-.187,1.035a8.944,8.944,0,0,1-6.949-4.685.545.545,0,0,1,.133-.732.529.529,0,0,1,.732.133Z" fill="#fff"/>
      <path id="Path_19988" data-name="Path 19988" d="M1127.32,971.379c-2.54-20.484-15.23-40.666-34.76-47.332a95.109,95.109,0,0,1-.01,65.294c-3,8.12-7.18,16.839-4.36,25.019,1.76,5.1,6.05,8.99,10.86,11.43s10.13,3.59,15.39,4.73l1.04.86C1123.84,1012.51,1129.87,991.862,1127.32,971.379Z" fill="#f0f0f0"/>
      <path id="Path_19989" data-name="Path 19989" d="M1092.36,924.435a81.259,81.259,0,0,1,20.21,45.748,35.366,35.366,0,0,1-.4,10.961,20.193,20.193,0,0,1-4.99,9.312c-2.25,2.473-4.84,4.742-6.45,7.718a12.444,12.444,0,0,0-1.38,4.956,12.226,12.226,0,0,0,.78,5.08c1.42,4.08,4.22,7.4,7.07,10.56,3.17,3.5,6.51,7.09,7.86,11.73.16.57,1.03.28.86-.28-2.34-8.08-10.18-12.67-13.92-19.95-1.74-3.4-2.48-7.34-.84-10.924,1.43-3.134,4.1-5.476,6.4-7.96a21.5,21.5,0,0,0,5.22-8.924,32.281,32.281,0,0,0,.81-10.9,78.906,78.906,0,0,0-5.75-23.966,82.925,82.925,0,0,0-14.88-23.839c-.38-.436-.98.249-.6.682Z" fill="#fff"/>
      <path id="Path_19990" data-name="Path 19990" d="M1112.32,964.676a12.187,12.187,0,0,0,9.28-12.776.456.456,0,0,0-.91.046,11.281,11.281,0,0,1-8.65,11.866C1111.47,963.947,1111.75,964.81,1112.32,964.676Z" fill="#fff"/>
      <path id="Path_19991" data-name="Path 19991" d="M1108.48,989.351a23.521,23.521,0,0,1-10.49-13.538c-.17-.562-1.03-.277-.87.285a24.449,24.449,0,0,0,10.95,14.065c.51.3.91-.515.41-.812Z" fill="#fff"/>
      <path id="Path_19992" data-name="Path 19992" d="M1103.43,939.716a6.9,6.9,0,0,1-6.54-.332c-.5-.306-.91.509-.41.812a7.74,7.74,0,0,0,7.24.384.451.451,0,0,0,.25-.23.448.448,0,0,0-.54-.634Z" fill="#fff"/>
      <path id="Path_19993" data-name="Path 19993" d="M1033.03,960.631c.3.2.61.4.92.607a90.935,90.935,0,0,1,11.62,9.075c.28.253.57.515.84.776a95.765,95.765,0,0,1,20.81,28.493,92.771,92.771,0,0,1,5.1,13.188c1.88,6.24,3.42,13.16,7.15,18.27a14.057,14.057,0,0,0,1.24,1.53h33.64a1.575,1.575,0,0,0,.23-.1l1.35.06c-.06-.24-.12-.49-.17-.72-.03-.14-.07-.28-.1-.42a2.612,2.612,0,0,1-.06-.27.687.687,0,0,0-.03-.08,1.673,1.673,0,0,0-.05-.24c-.34-1.37-.69-2.75-1.04-4.12,0-.01,0-.01-.01-.02a137.275,137.275,0,0,0-11.51-30.234c-.16-.284-.31-.576-.48-.86a88.743,88.743,0,0,0-7.98-12.1,78.922,78.922,0,0,0-5.22-5.982,65.342,65.342,0,0,0-16.34-12.238c-12.06-6.373-26.03-8.815-38.93-4.922C1033.68,960.424,1033.36,960.524,1033.03,960.631Z" fill="#f0f0f0"/>
      <path id="Path_19994" data-name="Path 19994" d="M1033.1,961.062a81.226,81.226,0,0,1,43.67,24.361,35.109,35.109,0,0,1,6.28,8.991,20.13,20.13,0,0,1,1.62,10.446c-.31,3.32-1.01,6.69-.5,10.04a12.286,12.286,0,0,0,5.56,8.38c3.59,2.4,7.82,3.36,12,4.16,4.64.89,9.47,1.74,13.34,4.64.47.35.99-.4.52-.75-6.74-5.04-15.76-3.98-23.13-7.54-3.43-1.66-6.39-4.37-7.24-8.21-.75-3.37-.03-6.84.31-10.21a21.391,21.391,0,0,0-1.2-10.271,32.442,32.442,0,0,0-5.91-9.2,78.863,78.863,0,0,0-19.02-15.668,82.825,82.825,0,0,0-26.23-10.078c-.57-.113-.64.795-.07.908Z" fill="#fff"/>
      <path id="Path_19995" data-name="Path 19995" d="M1073.26,981.171a12.2,12.2,0,0,0-.28-15.789c-.39-.438-1.09.145-.7.583a11.292,11.292,0,0,1,.23,14.688c-.37.451.38.967.75.518Z" fill="#fff"/>
      <path id="Path_19996" data-name="Path 19996" d="M1085.05,1003.19a23.528,23.528,0,0,1-16.53-4.494c-.47-.349-.99.4-.52.748a24.42,24.42,0,0,0,17.21,4.636c.58-.06.42-.96-.16-.89Z" fill="#fff"/>
      <path id="Path_19997" data-name="Path 19997" d="M1051.14,966.6a6.914,6.914,0,0,1-5.42,3.674c-.59.057-.42.952.16.9a7.73,7.73,0,0,0,6.01-4.051.486.486,0,0,0-.12-.633.455.455,0,0,0-.63.115Z" fill="#fff"/>
      <path id="Path_19998" data-name="Path 19998" d="M1197.55,505.381H405.784a1.15,1.15,0,0,1,0-2.3H1197.55a1.15,1.15,0,0,1,0,2.3Z" fill="#cacaca"/>
      <path id="Path_19999" data-name="Path 19999" d="M431.649,489.288a12.644,12.644,0,1,0-12.64-12.644A12.643,12.643,0,0,0,431.649,489.288Z" fill="#3f3d56"/>
      <path id="Path_20000" data-name="Path 20000" d="M475.317,489.288a12.644,12.644,0,1,0-12.641-12.644A12.643,12.643,0,0,0,475.317,489.288Z" fill="#3f3d56"/>
      <path id="Path_20001" data-name="Path 20001" d="M518.984,489.288a12.644,12.644,0,1,0-12.64-12.644A12.642,12.642,0,0,0,518.984,489.288Z" fill="#3f3d56"/>
      <path id="Path_20002" data-name="Path 20002" d="M1171.38,471.735h-31.02a2.3,2.3,0,1,1,0-4.6h31.02a2.314,2.314,0,0,1,.89.173,2.224,2.224,0,0,1,.74.5,2.126,2.126,0,0,1,.5.747,2.247,2.247,0,0,1,0,1.762,2.122,2.122,0,0,1-.5.746,2.209,2.209,0,0,1-.74.5,2.334,2.334,0,0,1-.89.174Z" fill="#3f3d56"/>
      <path id="Path_20003" data-name="Path 20003" d="M1171.38,480.356h-31.02a2.3,2.3,0,1,1,0-4.6h31.02a2.3,2.3,0,1,1,0,4.6Z" fill="#3f3d56"/>
      <path id="Path_20004" data-name="Path 20004" d="M1171.38,488.977h-31.02a2.3,2.3,0,1,1,0-4.6h31.02a2.314,2.314,0,0,1,.89.173,2.24,2.24,0,0,1,.74.5,2.136,2.136,0,0,1,.5.747,2.247,2.247,0,0,1,0,1.762,2.122,2.122,0,0,1-.5.746,2.21,2.21,0,0,1-.74.5,2.315,2.315,0,0,1-.89.174Z" fill="#3f3d56"/>
      <path id="Path_20005" data-name="Path 20005" d="M1173.68,554.672H1008.21v99.241h165.47Z" fill="#ff639d"/>
      <path id="Path_20006" data-name="Path 20006" d="M1140.67,699.5h-98.46a4.639,4.639,0,0,1,0-9.277h98.46a4.639,4.639,0,1,1,0,9.277Z" fill="#e4e4e4"/>
      <path id="Path_20007" data-name="Path 20007" d="M1124.79,683.625h-66.7a4.63,4.63,0,0,1-1.78-.351,4.553,4.553,0,0,1-1.51-1.005,4.769,4.769,0,0,1-1.01-1.506,4.682,4.682,0,0,1,0-3.553,4.769,4.769,0,0,1,1.01-1.506,4.554,4.554,0,0,1,1.51-1.005,4.63,4.63,0,0,1,1.78-.351h66.7a4.63,4.63,0,0,1,1.78.351,4.554,4.554,0,0,1,1.51,1.005,4.769,4.769,0,0,1,1.01,1.506,4.684,4.684,0,0,1,0,3.553,4.769,4.769,0,0,1-1.01,1.506,4.553,4.553,0,0,1-1.51,1.005A4.63,4.63,0,0,1,1124.79,683.625Z" fill="#e4e4e4"/>
      <path id="Path_20008" data-name="Path 20008" d="M1173.68,735.137H1008.21v99.241h165.47Z" fill="#f0f0f0"/>
      <path id="Path_20009" data-name="Path 20009" d="M1140.67,879.969h-98.46a4.639,4.639,0,0,1,0-9.278h98.46a4.639,4.639,0,0,1,0,9.278Z" fill="#e4e4e4"/>
      <path id="Path_20010" data-name="Path 20010" d="M1124.79,864.09h-66.7a4.639,4.639,0,0,1,0-9.278h66.7a4.639,4.639,0,0,1,0,9.278Z" fill="#e4e4e4"/>
      <path id="Path_20011" data-name="Path 20011" d="M923.35,624.254h-499.5a4.639,4.639,0,0,1,0-9.277h499.5a4.639,4.639,0,1,1,0,9.277Z" fill="#e4e4e4"/>
      <path id="Path_20012" data-name="Path 20012" d="M923.35,659.4h-499.5a4.639,4.639,0,0,1,0-9.278h499.5a4.639,4.639,0,0,1,0,9.278Z" fill="#e4e4e4"/>
      <path id="Path_20013" data-name="Path 20013" d="M923.35,694.547h-499.5a4.638,4.638,0,0,1,0-9.277h499.5a4.638,4.638,0,0,1,0,9.277Z" fill="#e4e4e4"/>
      <path id="Path_20014" data-name="Path 20014" d="M923.35,729.692h-499.5a4.639,4.639,0,0,1,0-9.278h499.5a4.639,4.639,0,0,1,0,9.278Z" fill="#e4e4e4"/>
      <path id="Path_20015" data-name="Path 20015" d="M923.35,799.985h-499.5a4.639,4.639,0,0,1,0-9.278h499.5a4.639,4.639,0,0,1,0,9.278Z" fill="#e4e4e4"/>
      <path id="Path_20016" data-name="Path 20016" d="M923.35,835.129h-499.5a4.639,4.639,0,0,1,0-9.277h499.5a4.639,4.639,0,1,1,0,9.277Z" fill="#e4e4e4"/>
      <path id="Path_20017" data-name="Path 20017" d="M840.838,588.985H506.365a4.639,4.639,0,1,1,0-9.278H840.838a4.639,4.639,0,1,1,0,9.278Z" fill="#e4e4e4"/>
      <path id="Path_20018" data-name="Path 20018" d="M969,1024.87h9.656l4.594-37.261-14.252,0Z" fill="#ffb6b6"/>
      <path id="Path_20019" data-name="Path 20019" d="M966.533,1021.72l19.018-.01h0a12.138,12.138,0,0,1,12.12,12.13v.39H966.534Z" fill="#2f2e41"/>
      <path id="Path_20020" data-name="Path 20020" d="M919.638,1024.87h9.657l4.594-37.261-14.253,0Z" fill="#ffb6b6"/>
      <path id="Path_20021" data-name="Path 20021" d="M917.175,1021.72l19.018-.01h0a12.139,12.139,0,0,1,12.12,12.13v.39H917.175Z" fill="#2f2e41"/>
      <path id="Path_20022" data-name="Path 20022" d="M1032.41,609.675a10.975,10.975,0,0,0-20.64-5.2,10.978,10.978,0,0,0-.48,9.364L989.1,648.964l-13.815,27.85,11.4,10.121,8.773-9.236,28.691-57.4a10.968,10.968,0,0,0,8.26-10.619Z" fill="#ffb6b6"/>
      <path id="Path_20023" data-name="Path 20023" d="M917.236,724.876,895.483,721.5,890.3,760.869l-28.234,60.772a10.974,10.974,0,1,0,15.125,3.52l29.519-53.319Z" fill="#ffb6b6"/>
      <path id="Path_20024" data-name="Path 20024" d="M929.29,790.457s-19.129,17.694-16.7,62.184l5.359,68.731L916.6,1017.18l19.648-1.54,17.166-160.566L969.866,920.9l-5.907,87.7,18.926.43,19.885-99.1-4.712-73.462-7.918-46.013Z" fill="#2f2e41"/>
      <path id="Path_20025" data-name="Path 20025" d="M949.757,686.844l-45.7,12.8,23.238,69.644-3.473,26.642,70.467.457-16.32-51.5s9.159-18.838-1.3-32.043Z" fill="#ff639d"/>
      <path id="Path_20026" data-name="Path 20026" d="M944.272,697.815l5.485-10.971s-.177-2.758,12.708-4.122l15.119-15.031,13.838,13.8L968.038,716.1Z" fill="#ff639d"/>
      <path id="Path_20027" data-name="Path 20027" d="M922.335,708.785s-16.452-18.286-25.593-9.143-4.454,38.216-4.454,38.216l28.47,4.419Z" fill="#ff639d"/>
      <path id="Path_20028" data-name="Path 20028" d="M930.68,638.5c28.02.126,28.018,42.74,0,42.862C902.661,681.233,902.663,638.618,930.68,638.5Z" fill="#ffb6b6"/>
      <path id="Path_20029" data-name="Path 20029" d="M933.8,658.51c3.787,2.231,7.723,4.513,12.092,4.991s9.316-1.361,11.069-5.393a12.428,12.428,0,0,0,.858-4.382,29.137,29.137,0,0,0-7.371-20.874,26.411,26.411,0,0,0-20.267-8.571c-7.239.315-13.93,3.743-20.354,7.1-5.908,3.084-12.146,6.482-15.356,12.324-4.757,8.656-1.289,19.254-.365,29.088A54.817,54.817,0,0,1,880.9,713.549l39.866,3.779c4.852.46,9.8.914,14.555-.148A23.274,23.274,0,0,0,946.383,677.7c-5.659-5.449-14.759-9.307-14.982-17.161" fill="#2f2e41"/>
      <path id="Path_20030" data-name="Path 20030" d="M1230.9,1023.98h-10.58l-5.03-40.808h15.61Z" fill="#ffb8b8"/>
      <path id="Path_20031" data-name="Path 20031" d="M1233.6,1034.23h-34.11v-.43a13.281,13.281,0,0,1,13.28-13.28h20.83Z" fill="#2f2e41"/>
      <path id="Path_20032" data-name="Path 20032" d="M1329.25,1023.98h-10.58l-5.03-40.808h15.61Z" fill="#ffb8b8"/>
      <path id="Path_20033" data-name="Path 20033" d="M1331.95,1034.23h-34.11v-.43a13.281,13.281,0,0,1,13.28-13.28h20.83Z" fill="#2f2e41"/>
      <path id="Path_20034" data-name="Path 20034" d="M1226.68,816.889s-8.87,24.1-7.61,34.253-8.87,81.192-7.6,87.535-1.27,38.059,0,43.134-3.56,11.135-1.03,16.21,6.1,15.509,6.1,15.509l16.49-1.27,2.53-13.957s7.61-1.269,6.34-8.881,6.35-58.357,6.35-58.357l21.56-71.043,30.43,64.7s1.27,45.671,5.08,50.745-3.81,19.03,0,24.1,7.61,13.959,7.61,13.959h19.02v-10.15s11.42-6.346,0-25.375l-7.71-114.28-7.61-52.014Z" fill="#2f2e41"/>
      <path id="Path_20035" data-name="Path 20035" d="M1273.96,657.37a23.7,23.7,0,1,0-23.68-23.7A23.688,23.688,0,0,0,1273.96,657.37Z" fill="#ffb8b8"/>
      <path id="Path_20036" data-name="Path 20036" d="M1253.81,632.043l5.01,12.815c2.05,5.252,4.41,10.87,9.23,13.8,5.94,3.618,13.88,1.854,19.64-2.066a30.684,30.684,0,0,0-13.81-55.842l-.24,4.29-5.26-4.412a5.119,5.119,0,0,1-1.56,1.67,5.2,5.2,0,0,1-2.14.82,5.125,5.125,0,0,1-4.25-1.365c1.38,2.866-.21,6.361-2.52,8.557-2.83,2.7-10.92,5.938-10.59,10.76C1247.55,624.288,1252.5,628.708,1253.81,632.043Z" fill="#2f2e41"/>
      <path id="Path_20037" data-name="Path 20037" d="M1339.17,851.937a9.919,9.919,0,0,0,1.58-4.05,10.1,10.1,0,0,0-.28-4.339,9.991,9.991,0,0,0-2.09-3.812,10.092,10.092,0,0,0-3.51-2.57l.48-22.922-13.86-3.685-.21,32.38a10.083,10.083,0,0,0,17.89,9Z" fill="#ffb8b8"/>
      <path id="Path_20038" data-name="Path 20038" d="M1291.56,672.016s-18.36-9.181-35.69-3.061-26.52,13.262-26.52,13.262l11.22,59.165-15.3,79.567s78.53-6.12,85.67,0,7.14-7.141,7.14-7.141l-6.12-75.486,11.21-47.945Z" fill="#3f3d56"/>
      <path id="Path_20039" data-name="Path 20039" d="M1214.08,853.3a9.972,9.972,0,0,0,3.6-7.687,9.981,9.981,0,0,0-3.58-7.7l6.89-21.868-12.26-7.428-9.3,31.018a10.086,10.086,0,0,0,14.65,13.662Z" fill="#ffb8b8"/>
      <path id="Path_20040" data-name="Path 20040" d="M1236.49,682.215h-7.14s-11.22,7.141-11.22,17.341-16.31,129.552-16.31,129.552l17.33,3.06,15.3-83.647,11.22-22.442Z" fill="#3f3d56"/>
      <path id="Path_20041" data-name="Path 20041" d="M1303.8,690.375h19.37s6.12,6.121,9.18,20.4,6.12,70.386,6.12,70.386l-2.04,51.005h-15.3l-2.03-66.306-10.2-42.844Z" fill="#3f3d56"/>
      <path id="Path_20042" data-name="Path 20042" d="M405.626,758.261a10.343,10.343,0,0,0-1.4.823l-45.364-17.737-1.8-11.7-18.005.407,1.171,21.02a7.858,7.858,0,0,0,6.07,7.218l53.979,12.526a10.311,10.311,0,1,0,5.352-12.558Z" fill="#ffb8b8"/>
      <path id="Path_20043" data-name="Path 20043" d="M337.515,1022.56h12.04l5.728-46.458H337.512Z" fill="#ffb8b8"/>
      <path id="Path_20044" data-name="Path 20044" d="M334.443,1018.63l23.713-.01h0a15.118,15.118,0,0,1,15.111,15.12v.49H334.444Z" fill="#2f2e41"/>
      <path id="Path_20045" data-name="Path 20045" d="M279.569,1022.56h12.04l5.729-46.458H279.567Z" fill="#ffb8b8"/>
      <path id="Path_20046" data-name="Path 20046" d="M276.5,1018.63l23.712-.01h0a15.118,15.118,0,0,1,15.111,15.12v.49H276.5Z" fill="#2f2e41"/>
      <path id="Path_20047" data-name="Path 20047" d="M286.551,668.373c-3.429-14.162-6.334-30.136.133-43.18,4.487-9.051,21.086-12.1,30.6-8.838s16.395,12.107,19.421,21.752,2.674,20.038,1.356,30.065C320.562,667.835,303.062,667.5,286.551,668.373Z" fill="#2f2e41"/>
      <path id="Path_20048" data-name="Path 20048" d="M316.083,668.369a20.413,20.413,0,1,0-20.407-20.413A20.41,20.41,0,0,0,316.083,668.369Z" fill="#ffb8b8"/>
      <path id="Path_20049" data-name="Path 20049" d="M291.136,643.749a25.633,25.633,0,1,1,51.234.675C324.9,644.461,307.435,644.5,291.136,643.749Z" fill="#2f2e41"/>
      <path id="Path_20050" data-name="Path 20050" d="M299.147,743.68l-8.535,14.228s-23.373,43.85-21.983,80.2l5.172,45.273-5.676,11.11,3.8,19.547-7.056,14,12.756,67.6.543,14.664h20.627l-1.086-14.935,8.685-65.856L321.049,859.2l7.6,60.7-2.714,15.2,3.528,12.76,4.886,39.365.542,19,18.728,2.18,7.056-70.318,4.071-33.549L342.928,755.78Z" fill="#2f2e41"/>
      <path id="Path_20051" data-name="Path 20051" d="M296.44,674.977l-12.706,5.4L276.6,709.917l15.026,38.491-5.617,19.232c17,29.094,38.05,33.321,62.815,14.664-5.241-14.721-4.484-29.857.739-45.3,0,0,13.028-12.135,3.927-27.912l-8.681-23.569-10.748-5.376Z" fill="#cbcbcb"/>
      <path id="Path_20052" data-name="Path 20052" d="M342.3,690.659l2.884-5.358s7.607,1.144,10.714,10.3,3.915,46.165,3.915,46.165l-16.277.824Z" fill="#cbcbcb"/>
      <path id="Path_20053" data-name="Path 20053" d="M739.712,690.224,256.019,814.915a4.639,4.639,0,0,1-2.314-8.984L737.4,681.24a4.639,4.639,0,1,1,2.315,8.984Z" fill="#ff639d"/>
      <path id="Path_20054" data-name="Path 20054" d="M278.538,816.253a10.554,10.554,0,0,0,3.773-15.736l7.89-77.158h-17.05l-6.27,75.341a10.609,10.609,0,0,0,11.657,17.553Z" fill="#ffb8b8"/>
      <path id="Path_20055" data-name="Path 20055" d="M294.117,689.1l-5.975-8.45s-10.507-7.126-15.864,9.274-4.533,46.783-4.533,46.783l20.4,8.449Z" fill="#cbcbcb"/>
      <path id="Path_20056" data-name="Path 20056" d="M616.83,1035H155.212a1.2,1.2,0,0,1-.857-.36,1.187,1.187,0,0,1-.355-.85,1.221,1.221,0,0,1,1.212-1.22H616.83a1.221,1.221,0,0,1,1.212,1.22,1.187,1.187,0,0,1-.355.85A1.206,1.206,0,0,1,616.83,1035Z" fill="#cacaca"/>
      <path id="Path_20057" data-name="Path 20057" d="M1343.79,1035H882.17a1.206,1.206,0,0,1-.857-.36,1.187,1.187,0,0,1-.355-.85,1.221,1.221,0,0,1,1.212-1.22h461.62a1.219,1.219,0,0,1,.86.36,1.235,1.235,0,0,1,.35.86,1.212,1.212,0,0,1-1.21,1.21Z" fill="#cacaca"/>
      <path id="Path_25492" data-name="Path 25492" d="M2.3,0A2.561,2.561,0,0,1,4.6,2.76,2.561,2.561,0,0,1,2.3,5.52,2.561,2.561,0,0,1,0,2.76,2.561,2.561,0,0,1,2.3,0Z" transform="translate(327 646.583)" fill="#2f2e41"/>
      <path id="Path_25510" data-name="Path 25510" d="M2.3,0A2.561,2.561,0,0,1,4.6,2.76,2.561,2.561,0,0,1,2.3,5.52,2.561,2.561,0,0,1,0,2.76,2.561,2.561,0,0,1,2.3,0Z" transform="translate(306.337 646.583)" fill="#2f2e41"/>
    </g>
  </g>
  <path id="Path_2708" data-name="Path 2708" d="M811.515,315.452l19.625-15.7c-15.246-1.679-21.511,6.633-24.067,13.215-11.91-4.946-24.879,1.535-24.879,1.535L821.46,328.76a29.711,29.711,0,0,0-9.94-13.31Z" transform="translate(96.224 72.731)" fill="#2f2e41"/>
  <path id="Path_2709" data-name="Path 2709" d="M621.42,250.651l19.625-15.7c-15.246-1.679-21.511,6.633-24.067,13.215-11.91-4.946-24.879,1.535-24.879,1.535l39.267,14.256a29.714,29.714,0,0,0-9.946-13.308Z" transform="translate(-68.337 16.635)" fill="#2f2e41"/>
  <path id="Path_2710" data-name="Path 2710" d="M886.181,266.317l19.625-15.7c-15.246-1.679-21.511,6.632-24.067,13.215-11.91-4.946-24.879,1.535-24.879,1.535l39.267,14.256a29.712,29.712,0,0,0-9.94-13.31Z" transform="translate(160.863 30.196)" fill="#2f2e41"/>
</svg>
