<svg id="undraw_spreadsheet_re_cn18" xmlns="http://www.w3.org/2000/svg" xmlns:xlink="http://www.w3.org/1999/xlink" width="1500" height="1500" viewBox="0 0 1500 1500">
  <defs>
    <clipPath id="clip-path">
      <rect id="Rectangle_2458" data-name="Rectangle 2458" width="1188" height="833" transform="translate(156 334)" fill="#fff"/>
    </clipPath>
  </defs>
  <circle id="Ellipse_1510" data-name="Ellipse 1510" cx="49.432" cy="49.432" r="49.432" transform="translate(123.743 206)" fill="#ff6584"/>
  <path id="Path_21972" data-name="Path 21972" d="M439.607,433.148a81.057,81.057,0,0,1-52.681-19.453c-4.9-4.192-10.116-11.48-15.509-21.66a49.536,49.536,0,0,1-1.571-42.765,56.843,56.843,0,0,1-9.387,7.7l-1.716,1.142-.1-2.058c-.065-1.338-.1-2.672-.1-3.965,0-7.616,5.76-15.344,3.1-22.383-11.2-29.669-46.709-59.154,4.759-105.072,4.761-4.248-1.6-12.74-1.6-19.167,0-62.982,68.432-157.46,114.243-114.221,26.74,25.239,82.452,43.168,108.464,78.274l.344,1.04-1.015.411A61.223,61.223,0,0,1,570.58,175.3a77.569,77.569,0,0,0,18.138,1.52l.943-.033.23.917a114.742,114.742,0,0,1,3.406,27.766l0,1.012A50.592,50.592,0,0,0,610.005,244.2a81.244,81.244,0,0,1,26.506,59.951c0,13.352-9.075,30.879-16.687,43.231a24.445,24.445,0,0,1-17.946,11.494,23.873,23.873,0,0,1-19.267-6.224,78.948,78.948,0,0,0,13.923,19.712l1.039,1.07-1.29.751a81,81,0,0,1-40.832,11.027l-.84,0c-21.782,0-42.457,8.438-56.724,23.152a81.673,81.673,0,0,1-58.28,24.785Z" transform="translate(-210.807 137.474)" fill="#e6e6e6"/>
  <path id="Path_21973" data-name="Path 21973" d="M411.022,560.126a1.458,1.458,0,0,1-1.441-1.252c-.062-.435-6.128-44.187-.68-102.335,5.032-53.7,21.19-131.05,69.594-194.575a1.458,1.458,0,0,1,2.319,1.767C432.828,326.707,416.8,403.489,411.8,456.811c-5.417,57.81.6,101.221.664,101.652a1.459,1.459,0,0,1-1.445,1.663Z" transform="translate(-210.807 137.474)" fill="#ccc"/>
  <path id="Path_21974" data-name="Path 21974" d="M455.219,349.962a1.458,1.458,0,0,1-.858-2.637,200.92,200.92,0,0,1,44.356-22.58c24.472-8.959,61.686-17.082,100-4.889a1.458,1.458,0,1,1-.884,2.778c-37.526-11.942-74.065-3.954-98.11,4.849a197.621,197.621,0,0,0-43.645,22.2A1.452,1.452,0,0,1,455.219,349.962Z" transform="translate(-210.807 137.474)" fill="#ccc"/>
  <path id="Path_21975" data-name="Path 21975" d="M387.5,177.786a1.458,1.458,0,0,1,2.568-1.046,200.922,200.922,0,0,1,25.715,42.615c10.7,23.763,21.48,60.3,12.077,99.384a1.458,1.458,0,1,1-2.834-.682c9.209-38.288-1.39-74.157-11.9-97.506a197.619,197.619,0,0,0-25.286-41.933A1.452,1.452,0,0,1,387.5,177.786Z" transform="translate(-210.807 137.474)" fill="#ccc"/>
  <g id="undraw_spreadsheet_re_cn18-2" data-name="undraw_spreadsheet_re_cn18">
    <rect id="Rectangle_2457" data-name="Rectangle 2457" width="1500" height="1500" fill="#fff" opacity="0"/>
    <g id="Group_578" data-name="Group 578" clip-path="url(#clip-path)">
      <path id="Path_21824" data-name="Path 21824" d="M1332.87,876.453H509.951a11.139,11.139,0,0,1-11.126-11.13V355.43H1344V865.323a11.135,11.135,0,0,1-11.13,11.13Z" fill="#e6e6e6"/>
      <path id="Path_21825" data-name="Path 21825" d="M1308.74,844.586H534.08a11.262,11.262,0,0,1-11.246-11.251V413.419a11.262,11.262,0,0,1,11.246-11.251h774.66a11.265,11.265,0,0,1,11.25,11.251V833.335a11.265,11.265,0,0,1-11.25,11.251Z" fill="#fff"/>
      <path id="Path_21826" data-name="Path 21826" d="M1343.64,371.174H498.465V345.13A11.141,11.141,0,0,1,509.59,334h822.92a11.137,11.137,0,0,1,11.13,11.13Z" fill="#ff639d"/>
      <path id="Path_21827" data-name="Path 21827" d="M525.761,359.638a6.647,6.647,0,1,0-6.645-6.647A6.645,6.645,0,0,0,525.761,359.638Z" fill="#fff"/>
      <path id="Path_21828" data-name="Path 21828" d="M550.982,359.638a6.647,6.647,0,1,0-6.645-6.647A6.646,6.646,0,0,0,550.982,359.638Z" fill="#fff"/>
      <path id="Path_21829" data-name="Path 21829" d="M576.2,359.638a6.647,6.647,0,1,0-6.644-6.647A6.646,6.646,0,0,0,576.2,359.638Z" fill="#fff"/>
      <path id="Path_21830" data-name="Path 21830" d="M682.293,477.469H602.451v35.353h79.842Z" fill="#e6e6e6"/>
      <path id="Path_21831" data-name="Path 21831" d="M841.976,550.793H762.135v35.354h79.841Z" fill="#e6e6e6"/>
      <path id="Path_21832" data-name="Path 21832" d="M682.293,660.785H602.451v35.354h79.842Z" fill="#ff639d"/>
      <path id="Path_21833" data-name="Path 21833" d="M841.976,734.109H762.135v35.354h79.841Z" fill="#ff639d"/>
      <path id="Path_21834" data-name="Path 21834" d="M1239.87,770.773h-79.84v35.354h79.84Z" fill="#ff639d"/>
      <path id="Path_21835" data-name="Path 21835" d="M1160.03,624.121h-79.84v35.354h79.84Z" fill="#e6e6e6"/>
      <path id="Path_21836" data-name="Path 21836" d="M1001.66,624.121H841.977v35.354H1001.66Z" fill="#ff639d"/>
      <path id="Path_21837" data-name="Path 21837" d="M1001.66,439.5H841.977V474.85H1001.66Z" fill="#ff639d"/>
      <path id="Path_21838" data-name="Path 21838" d="M522.61,401.523V845.409h798.42V401.523Zm795.8,36.773h-76.96V404.142h76.96ZM843.547,695.7V661.548H1000.09V695.7Zm156.543,2.619v34.154H843.547V698.32Zm0-147.089v34.154H843.547V551.231Zm-156.543-2.618V514.459H1000.09v34.154Zm0,73.544V588H1000.09v34.154Zm156.543,2.619v34.153H843.547V624.776ZM840.93,585.385H763.968V551.231H840.93Zm0,2.618v34.154H763.968V588Zm0,36.773v34.153H763.968V624.776Zm0,36.772V695.7H763.968V661.548Zm161.78,0h76.96V695.7h-76.96Zm0-2.619V624.776h76.96v34.153Zm0-36.772V588h76.96v34.154Zm0-36.772V551.231h76.96v34.154Zm0-36.772V514.459h76.96v34.154Zm0-36.773V477.687h76.96V511.84Zm-2.62,0H843.547V477.687H1000.09Zm-159.16,0H763.968V477.687H840.93Zm0,2.619v34.154H763.968V514.459Zm-79.58,34.154H684.387V514.459H761.35Zm0,2.618v34.154H684.387V551.231Zm0,36.772v34.154H684.387V588Zm0,36.773v34.153H684.387V624.776Zm0,36.772V695.7H684.387V661.548Zm0,36.772v34.154H684.387V698.32Zm2.618,0H840.93v34.154H763.968Zm76.962,36.773v34.153H763.968V735.093Zm2.617,0H1000.09v34.153H843.547Zm159.163,0h76.96v34.153h-76.96Zm0-2.619V698.32h76.96v34.154Zm79.58-34.154h76.96v34.154h-76.96Zm0-2.619V661.548h76.96V695.7Zm0-36.772V624.776h76.96v34.153Zm0-36.772V588h76.96v34.154Zm0-36.772V551.231h76.96v34.154Zm0-36.772V514.459h76.96v34.154Zm0-36.773V477.687h76.96V511.84Zm0-36.772V440.915h76.96v34.153Zm-2.62,0h-76.96V440.915h76.96Zm-79.58,0H843.547V440.915H1000.09Zm-159.16,0H763.968V440.915H840.93Zm-79.58,0H684.387V440.915H761.35Zm0,2.619V511.84H684.387V477.687ZM681.769,511.84H604.808V477.687h76.961Zm0,2.619v34.154H604.808V514.459Zm0,36.772v34.154H604.808V551.231Zm0,36.772v34.154H604.808V588Zm0,36.773v34.153H604.808V624.776Zm0,36.772V695.7H604.808V661.548Zm0,36.772v34.154H604.808V698.32Zm0,36.773v34.153H604.808V735.093Zm2.618,0H761.35v34.153H684.387Zm76.963,36.771v34.155H684.387V771.864Zm2.618,0H840.93v34.155H763.968Zm79.579,0H1000.09v34.155H843.547Zm159.163,0h76.96v34.155h-76.96Zm79.58,0h76.96v34.155h-76.96Zm0-2.618V735.093h76.96v34.153Zm79.58-34.153h76.96v34.153h-76.96Zm0-2.619V698.32h76.96v34.154Zm0-36.773V661.548h76.96V695.7Zm0-36.772V624.776h76.96v34.153Zm0-36.772V588h76.96v34.154Zm0-36.772V551.231h76.96v34.154Zm0-36.772V514.459h76.96v34.154Zm0-36.773V477.687h76.96V511.84Zm0-36.772V440.915h76.96v34.153Zm0-36.772V404.142h76.96V438.3Zm-2.62,0h-76.96V404.142h76.96Zm-79.58,0h-76.96V404.142h76.96Zm-79.58,0H843.547V404.142H1000.09Zm-159.16,0H763.968V404.142H840.93Zm-79.58,0H684.387V404.142H761.35Zm-79.581,0H604.808V404.142h76.961Zm0,2.619v34.153H604.808V440.915ZM602.19,475.068H525.228V440.915H602.19Zm0,2.619V511.84H525.228V477.687Zm0,36.772v34.154H525.228V514.459Zm0,36.772v34.154H525.228V551.231Zm0,36.772v34.154H525.228V588Zm0,36.773v34.153H525.228V624.776Zm0,36.772V695.7H525.228V661.548Zm0,36.772v34.154H525.228V698.32Zm0,36.773v34.153H525.228V735.093Zm0,36.771v34.155H525.228V771.864Zm2.618,0h76.961v34.155H604.808Zm76.961,36.773V842.79H604.808V808.637Zm2.618,0H761.35V842.79H684.387Zm79.581,0H840.93V842.79H763.968Zm79.579,0H1000.09V842.79H843.547Zm159.163,0h76.96V842.79h-76.96Zm79.58,0h76.96V842.79h-76.96Zm79.58,0h76.96V842.79h-76.96Zm0-2.618V771.864h76.96v34.155Zm79.58-34.155h76.96v34.155h-76.96Zm0-2.618V735.093h76.96v34.153Zm0-36.772V698.32h76.96v34.154Zm0-36.773V661.548h76.96V695.7Zm0-36.772V624.776h76.96v34.153Zm0-36.772V588h76.96v34.154Zm0-36.772V551.231h76.96v34.154Zm0-36.772V514.459h76.96v34.154Zm0-36.773V477.687h76.96V511.84Zm0-36.772V440.915h76.96v34.153ZM602.19,404.142V438.3H525.228V404.142Zm-76.962,404.5H602.19V842.79H525.228ZM1241.45,842.79V808.637h76.96V842.79Z" fill="#e6e6e6"/>
      <path id="Path_21839" data-name="Path 21839" d="M305.269,642.031s-40.391-9.311-62.606,7.759,28.273,55.867,28.273,55.867Z" fill="#2f2e41"/>
      <path id="Path_21840" data-name="Path 21840" d="M347.039,864.7a15.605,15.605,0,0,1,11.7-20.873l8.162-54.85,21.451,19.234-11.04,49.138A15.683,15.683,0,0,1,347.04,864.7Z" fill="#ffb8b8"/>
      <path id="Path_21841" data-name="Path 21841" d="M262.49,1149.45l18.976-1.26,4.173-73.83-28.006,1.86Z" fill="#ffb8b8"/>
      <path id="Path_21842" data-name="Path 21842" d="M318.533,1165.39h-59.77v-23.11H295.44a23.1,23.1,0,0,1,23.093,23.11Z" fill="#2f2e41"/>
      <path id="Path_21843" data-name="Path 21843" d="M295.284,1123.16l17.841,6.59,33.893-65.71-26.332-9.72Z" fill="#ffb8b8"/>
      <path id="Path_21844" data-name="Path 21844" d="M341.419,1159.03l-56.072-20.7,8-21.68,34.408,12.71a23.1,23.1,0,0,1,13.667,29.67Z" fill="#2f2e41"/>
      <path id="Path_21845" data-name="Path 21845" d="M347.161,839.563s19.217,10.352,13.3,51.761l-5.913,156.756-32.668,71.47-28.088-7.4L311.682,1054,288.029,951.958l-3.1,185.332-26.609,4.44-38.29-308.082,48.784-22.183Z" fill="#2f2e41"/>
      <path id="Path_21846" data-name="Path 21846" d="M278.471,624.437a38.115,38.115,0,1,0-38.1-38.115A38.107,38.107,0,0,0,278.471,624.437Z" fill="#ffb8b8"/>
      <path id="Path_21847" data-name="Path 21847" d="M300.6,634.738l-19.218,31.057L253.29,637.7l-52.509,36.771a9.937,9.937,0,0,0-3.527,11.861c8.077,19.981,28.761,79.041,22.774,147.318,0,0,39.914-10.352,81.306,1.479s51.74,7.4,51.74,7.4-10.348-75.423-4.435-91.69c4.9-13.494,14.895-58.531,18.16-73.5a6.748,6.748,0,0,0-3.3-7.326Z" fill="#ff639d"/>
      <path id="Path_21848" data-name="Path 21848" d="M361.976,670.185a6.756,6.756,0,0,1,7.466,4.887l25.024,90.4-5.914,54.719-28.087-4.437,2.957-38.451-20.7-48.8,13.662-53.3a6.755,6.755,0,0,1,5.588-5.012Z" fill="#ff639d"/>
      <path id="Path_21849" data-name="Path 21849" d="M249.009,532.819a27.154,27.154,0,0,1,25.039-13.328,53.208,53.208,0,0,1,15.132,4.238l24.907,9.719c6.445,2.515,13.5,5.6,16.3,11.926,2.6,5.875.659,12.66-1.3,18.777l-9.319,29.075a88.474,88.474,0,0,0-5.281-19.207c-2.706-6.079-6.987-11.684-12.906-14.722-6.47-3.32-14.1-3.251-21.358-2.9-10.286.5-21.47,1.8-28.778,9.063a29.906,29.906,0,0,0-7.585,14.819,89.247,89.247,0,0,0-1.59,16.774,139.077,139.077,0,0,1-10.616-22.768,56.326,56.326,0,0,1-3.944-18.43,25.923,25.923,0,0,1,5.938-17.53c4.208-4.7,11.064-7.244,17.094-5.382" fill="#2f2e41"/>
      <path id="Path_21850" data-name="Path 21850" d="M227.82,886.423a15.6,15.6,0,0,0-11.7-20.873L207.961,810.7l-21.45,19.235,11.04,49.138a15.683,15.683,0,0,0,30.269,7.351Z" fill="#ffb8b8"/>
      <path id="Path_21851" data-name="Path 21851" d="M201.319,673.944a9.95,9.95,0,0,0-8.3,9.32l-8.47,169.462h31.044l10.348-90.211-13.169-80.364a9.95,9.95,0,0,0-11.453-8.207Z" fill="#ff639d"/>
      <path id="Path_21852" data-name="Path 21852" d="M422.407,1167H156v-3.27H423Z" fill="#ccc"/>
      <path id="Path_25515" data-name="Path 25515" d="M6,1A5.006,5.006,0,0,0,1,6v4a5.006,5.006,0,0,0,5,5h8a4.88,4.88,0,0,0,3.888-1.853l.006-.008A5.206,5.206,0,0,0,19,10V6a4.828,4.828,0,0,0-1.1-3.136l-.007-.008A5.143,5.143,0,0,0,14,1H6M6,0h8a6.144,6.144,0,0,1,4.63,2.184A5.777,5.777,0,0,1,20,6v4a6.192,6.192,0,0,1-1.294,3.723A5.845,5.845,0,0,1,14,16H6a6,6,0,0,1-6-6V6A6,6,0,0,1,6,0Z" transform="translate(253 584)" fill="#2f2e41"/>
      <path id="Path_25516" data-name="Path 25516" d="M6,1A5.006,5.006,0,0,0,1,6v4a5.006,5.006,0,0,0,5,5h8a4.88,4.88,0,0,0,3.888-1.853l.006-.008A5.206,5.206,0,0,0,19,10V6a4.828,4.828,0,0,0-1.1-3.136l-.007-.008A5.143,5.143,0,0,0,14,1H6M6,0h8a6.144,6.144,0,0,1,4.63,2.184A5.777,5.777,0,0,1,20,6v4a6.192,6.192,0,0,1-1.294,3.723A5.845,5.845,0,0,1,14,16H6a6,6,0,0,1-6-6V6A6,6,0,0,1,6,0Z" transform="translate(284 584)" fill="#2f2e41"/>
    </g>
  </g>
</svg>
