<svg id="undraw_spreadsheets_re_alt0" xmlns="http://www.w3.org/2000/svg" xmlns:xlink="http://www.w3.org/1999/xlink" width="1500" height="1500" viewBox="0 0 1500 1500">
  <defs>
    <clipPath id="clip-path">
      <rect id="Rectangle_2402" data-name="Rectangle 2402" width="1161" height="706" transform="translate(170 397)" fill="#fff"/>
    </clipPath>
  </defs>
  <g id="undraw_spreadsheets_re_alt0-2" data-name="undraw_spreadsheets_re_alt0">
    <rect id="Rectangle_2401" data-name="Rectangle 2401" width="1500" height="1500" fill="#fff" opacity="0"/>
    <g id="Group_521" data-name="Group 521" transform="translate(0 97)" clip-path="url(#clip-path)">
      <path id="Path_19605" data-name="Path 19605" d="M803.533,1103c-1.008-1.09-2.016-2.18-3-3.28a169.694,169.694,0,0,1-22.632-31.67,134.137,134.137,0,0,1-14.113-39.51c-5.164-27.5-1.478-56.34,13.974-79.247q.58-.869,1.2-1.738c.193.717.4,1.421.621,2.139a186.754,186.754,0,0,0,10.757,28.3c.318.718.663,1.422,1.022,2.125a196.137,196.137,0,0,0,43.139,57.97q6.069,5.61,12.58,10.67v.01q5.032,3.87,10.3,7.42c14.748,9.91,32.188,19.41,37.311,36.41a34.506,34.506,0,0,1,1.409,10.4Z" fill="#e6e6e6"/>
      <path id="Path_19606" data-name="Path 19606" d="M868.738,1103H866.86c-.014-.21-.056-.43-.083-.64-.138-.89-.3-1.78-.5-2.64-1.533-6.77-4.985-13-11.213-16.55a30.063,30.063,0,0,0-6.5-2.69c-4.46-1.35-9.183-1.96-13.712-2.87-1.174-.24-2.334-.51-3.466-.81a42.157,42.157,0,0,1-15.949-7.77,66.578,66.578,0,0,1-14.458-17.17,143.307,143.307,0,0,1-6.96-12.67q-.435-.84-.828-1.68a169.5,169.5,0,0,1-11.393-32.44,165.878,165.878,0,0,1-3.258-17.4,169.036,169.036,0,0,1-.774-38.375c.042-.58.111-1.159.166-1.739.124-1.2,1.947-.772,1.823.414-.056.58-.111,1.146-.166,1.725a166.224,166.224,0,0,0,.663,36.857c.069.621.152,1.229.248,1.85a165.381,165.381,0,0,0,14.693,48.891c.069.16.152.32.221.48.014.02.014.02.014.03q2.61,5.385,5.62,10.54a71.959,71.959,0,0,0,13.823,17.76,39.9,39.9,0,0,0,16.225,8.69c.594.17,1.2.34,1.809.47.483.13.966.24,1.463.33,4.613.98,9.39,1.61,13.961,2.87a37.217,37.217,0,0,1,6.048,2.24,25.28,25.28,0,0,1,13.05,15.98c.3,1.01.552,2.01.759,3.04.239,1.08.423,2.18.553,3.28Z" fill="#fff"/>
      <path id="Path_19607" data-name="Path 19607" d="M794.841,1038.88a25.03,25.03,0,0,1-30.8-10.12c-.623-1.02.944-2.04,1.568-1.01a23.191,23.191,0,0,0,28.669,9.35C795.39,1036.64,795.946,1038.43,794.841,1038.88Z" fill="#fff"/>
      <path id="Path_19608" data-name="Path 19608" d="M830.866,1075.33a48.187,48.187,0,0,0,1.223-35.12c-.4-1.14,1.381-1.7,1.781-.56a50.116,50.116,0,0,1-1.347,36.54c-.48,1.11-2.135.24-1.657-.86Z" fill="#fff"/>
      <path id="Path_19609" data-name="Path 19609" d="M779.675,986.675a14.17,14.17,0,0,0,10.495-8.4c.466-1.109,2.12-.24,1.657.861a15.88,15.88,0,0,1-11.59,9.322.965.965,0,0,1-1.171-.609.936.936,0,0,1,.609-1.171Z" fill="#fff"/>
      <path id="Path_19610" data-name="Path 19610" d="M928.792,1103h-76.1c-.263-1.09-.511-2.18-.746-3.28-1.394-6.38-2.541-12.8-3.383-19.24-.083-.66-.18-1.34-.235-2.01a181.063,181.063,0,0,1-1.242-29.7v-.01a159.99,159.99,0,0,1,1.518-16.22,133.71,133.71,0,0,1,12.511-39.973l.083-.166c12.456-25.017,32.754-45.771,58.853-54.754.677-.235,1.326-.456,2-.676-.262.69-.524,1.38-.787,2.083,0,.014-.014.028-.014.042a187.322,187.322,0,0,0-8.464,29.033v.014c-.166.759-.318,1.531-.47,2.3a196.609,196.609,0,0,0-.442,72.393c.014.04.014.08.028.12a191.079,191.079,0,0,0,7.319,27.94c3.231,9.37,7.221,19.13,9.044,28.82C928.474,1100.82,928.654,1101.91,928.792,1103Z" fill="#e6e6e6"/>
      <path id="Path_19611" data-name="Path 19611" d="M922.44,937.771c-.4.428-.787.855-1.174,1.283a166.581,166.581,0,0,0-21.68,29.834c-.317.524-.621,1.076-.911,1.614a165.336,165.336,0,0,0-17.731,47.868c-.041.18-.082.36-.11.55q-1.16,5.865-1.864,11.8a71.573,71.573,0,0,0,.331,22.51,39.985,39.985,0,0,0,7.719,16.69c.359.5.746,1,1.146,1.48.318.39.649.76.981,1.15,4.515,5.17,9.721,9.93,12.9,16.11a23.618,23.618,0,0,1,2.61,11.06,26.211,26.211,0,0,1-.235,3.28h-1.891a23.9,23.9,0,0,0,.276-3.28,20.883,20.883,0,0,0-1.7-8.68c-2.8-6.49-8.175-11.42-12.787-16.6-.8-.9-1.56-1.82-2.292-2.75a41.782,41.782,0,0,1-8.037-15.79,66.743,66.743,0,0,1-1.2-22.41c.456-4.78,1.146-9.56,2.071-14.29.111-.62.235-1.24.359-1.85a170.392,170.392,0,0,1,40.833-79.7c.386-.428.787-.87,1.187-1.3C922.053,935.48,923.255,936.9,922.44,937.771Z" fill="#fff"/>
      <path id="Path_19612" data-name="Path 19612" d="M879.71,1019.45a25.022,25.022,0,0,1-18.495-26.613c.12-1.195,1.984-1.064,1.863.133a23.166,23.166,0,0,0,17.255,24.72c1.163.3.533,2.06-.623,1.76Z" fill="#fff"/>
      <path id="Path_19613" data-name="Path 19613" d="M886.513,1070.22a48.186,48.186,0,0,0,22.137-27.31c.364-1.14,2.124-.52,1.761.63a50.2,50.2,0,0,1-23.094,28.37c-1.049.59-1.847-1.1-.8-1.69Z" fill="#fff"/>
      <path id="Path_19614" data-name="Path 19614" d="M899.054,968.637a14.183,14.183,0,0,0,13.442-.4c1.04-.6,1.838,1.084.8,1.684a15.892,15.892,0,0,1-14.87.471.965.965,0,0,1-.568-1.192.938.938,0,0,1,1.192-.568Z" fill="#fff"/>
      <path id="Path_19615" data-name="Path 19615" d="M1331,1101.36a1.72,1.72,0,0,1-.12.63,1.707,1.707,0,0,1-.89.89,1.72,1.72,0,0,1-.63.12H736.546a1.636,1.636,0,0,1-1.162-.48,1.653,1.653,0,0,1-.481-1.16,1.618,1.618,0,0,1,.481-1.16,1.646,1.646,0,0,1,1.162-.49H1329.36a1.732,1.732,0,0,1,.63.13,1.584,1.584,0,0,1,.53.35,1.961,1.961,0,0,1,.36.54,1.682,1.682,0,0,1,.12.63Z" fill="#ccc"/>
      <path id="Path_19616" data-name="Path 19616" d="M883.924,481.1H174.654a1.38,1.38,0,1,1,0-2.76h709.27a1.38,1.38,0,1,1,0,2.76Z" fill="#e6e6e6"/>
      <path id="Path_19617" data-name="Path 19617" d="M883.924,536.293H174.654a1.38,1.38,0,1,1,0-2.76h709.27a1.38,1.38,0,1,1,0,2.76Z" fill="#e6e6e6"/>
      <path id="Path_19618" data-name="Path 19618" d="M883.924,591.49H174.654a1.38,1.38,0,1,1,0-2.76h709.27a1.38,1.38,0,1,1,0,2.76Z" fill="#e6e6e6"/>
      <path id="Path_19619" data-name="Path 19619" d="M883.924,646.686H174.654a1.38,1.38,0,1,1,0-2.76h709.27a1.38,1.38,0,1,1,0,2.76Z" fill="#e6e6e6"/>
      <path id="Path_19620" data-name="Path 19620" d="M883.924,701.881H174.654a1.38,1.38,0,1,1,0-2.76h709.27a1.38,1.38,0,1,1,0,2.76Z" fill="#e6e6e6"/>
      <path id="Path_19621" data-name="Path 19621" d="M342.61,704.029a1.381,1.381,0,0,1-1.381-1.372l-1.381-223.544a1.379,1.379,0,0,1,1.372-1.388h.009a1.381,1.381,0,0,1,1.381,1.371l1.38,223.545a1.379,1.379,0,0,1-1.372,1.388Z" fill="#e6e6e6"/>
      <path id="Path_19622" data-name="Path 19622" d="M534.552,704.029a1.381,1.381,0,0,1-1.381-1.372L531.79,479.113a1.379,1.379,0,0,1,1.372-1.388h.009a1.381,1.381,0,0,1,1.381,1.371l1.38,223.545a1.379,1.379,0,0,1-1.372,1.388Z" fill="#e6e6e6"/>
      <path id="Path_19623" data-name="Path 19623" d="M726.493,704.029a1.381,1.381,0,0,1-1.38-1.372l-1.381-223.544a1.379,1.379,0,0,1,1.372-1.388h.009a1.379,1.379,0,0,1,1.38,1.371l1.381,223.545a1.379,1.379,0,0,1-1.372,1.388Z" fill="#e6e6e6"/>
      <path id="Path_19624" data-name="Path 19624" d="M319.825,434.257H188.642a18.628,18.628,0,1,1,0-37.257H319.825a18.628,18.628,0,1,1,0,37.257Z" fill="#e6e6e6"/>
      <path id="Path_19625" data-name="Path 19625" d="M280.545,523.261H227.922a15.1,15.1,0,1,1,0-30.208h52.623a15.1,15.1,0,1,1,0,30.208Z" fill="#ff639d"/>
      <path id="Path_19626" data-name="Path 19626" d="M464.2,577.078H411.579a15.1,15.1,0,1,1,0-30.209H464.2a15.1,15.1,0,1,1,0,30.209Z" fill="#ff639d"/>
      <path id="Path_19627" data-name="Path 19627" d="M464.2,636.414H411.579a15.1,15.1,0,1,1,0-30.209H464.2a15.1,15.1,0,1,1,0,30.209Z" fill="#ff639d"/>
      <path id="Path_19628" data-name="Path 19628" d="M660.286,524.64H607.663a15.1,15.1,0,1,1,0-30.208h52.623a15.1,15.1,0,1,1,0,30.208Z" fill="#ff639d"/>
      <path id="Path_19629" data-name="Path 19629" d="M958.555,803.383H905.933a15.1,15.1,0,1,1,0-30.209h52.622a15.1,15.1,0,1,1,0,30.209Z" fill="#ff639d"/>
      <path id="Path_19630" data-name="Path 19630" d="M506.013,434.947H374.83a18.629,18.629,0,1,1,0-37.258H506.013a18.629,18.629,0,1,1,0,37.258Z" fill="#e6e6e6"/>
      <path id="Path_19631" data-name="Path 19631" d="M692.2,436.328H561.018a18.629,18.629,0,1,1,0-37.258H692.2a18.629,18.629,0,1,1,0,37.258Z" fill="#e6e6e6"/>
      <path id="Path_19632" data-name="Path 19632" d="M878.39,436.328H747.207a18.629,18.629,0,1,1,0-37.258H878.39a18.629,18.629,0,1,1,0,37.258Z" fill="#e6e6e6"/>
      <path id="Path_19633" data-name="Path 19633" d="M245.912,427.194l12.57-20.473-3.786-.495,7.65,19.235a2.135,2.135,0,0,0,2.548,1.446,2.084,2.084,0,0,0,1.447-2.546l-7.65-19.235a2.1,2.1,0,0,0-3.786-.495L242.335,425.1c-1.4,2.277,2.184,4.359,3.577,2.09Z" fill="#fff"/>
      <path id="Path_19634" data-name="Path 19634" d="M248.753,420.3l10.961-.164a2.07,2.07,0,1,0,0-4.14l-10.961.164a2.07,2.07,0,1,0,0,4.14Z" fill="#fff"/>
      <path id="Path_19635" data-name="Path 19635" d="M447.6,415.842a5.932,5.932,0,0,0-1.1-1.529,5.318,5.318,0,0,0,.3-6.235,7.445,7.445,0,0,0-4.362-3.072,14.889,14.889,0,0,0-6.352.133,1.958,1.958,0,0,0-.425-.05,2.1,2.1,0,0,0-2.071,2.07l-.732,16.316a1.9,1.9,0,0,0-.2.4,2.217,2.217,0,0,0,.141,1.422,2.1,2.1,0,0,0,2.061,1.919,1.994,1.994,0,0,0,1.387-.558c4.089.3,8.376-.36,10.824-4.069a6.908,6.908,0,0,0,.532-6.751Zm-4.482,5.108a7.451,7.451,0,0,1-6.077,1.685q.3-6.791.608-13.581c1.863-.307,3.986-.47,5.274.783a2.639,2.639,0,0,1,.519.7c.014.037.115.553.1.411.023.3.032.147-.05.423a1.641,1.641,0,0,1-.464.733,1.663,1.663,0,0,1-.773.4,2.121,2.121,0,0,0-2.071,2.069,2.1,2.1,0,0,0,2.071,2.07,1.9,1.9,0,0,1,1.806,1.506,3.237,3.237,0,0,1-.947,2.805Z" fill="#fff"/>
      <path id="Path_19636" data-name="Path 19636" d="M630.311,406.2A13.35,13.35,0,0,0,619.4,418.938a12.373,12.373,0,0,0,3.192,8.8c2.471,2.531,5.894,2.558,9.168,2.12a2.141,2.141,0,0,0,2.071-2.07c0-1-.955-2.22-2.071-2.07-2.133.285-4.721.749-6.344-1.016a8.456,8.456,0,0,1-1.861-6.091,9.231,9.231,0,0,1,7.861-8.425,2.086,2.086,0,0,0,1.446-2.546,2.119,2.119,0,0,0-2.548-1.446Z" fill="#fff"/>
      <path id="Path_19637" data-name="Path 19637" d="M806.343,408.151l.531,19.955a2.093,2.093,0,0,0,.226.911,2.105,2.105,0,0,0,2.4,1.085,12.248,12.248,0,0,0-.1-24,2.126,2.126,0,0,0-2.548,1.446,2.09,2.09,0,0,0,1.447,2.546,8.124,8.124,0,0,1,.1,16.02l2.622,2-.531-19.955c-.07-2.659-4.213-2.669-4.142,0Z" fill="#fff"/>
      <path id="Path_19638" data-name="Path 19638" d="M1086.83,817.57a13.88,13.88,0,0,1,3.77-20.941l-9.09-48.467,23.64,9.925,5.01,44.5a13.961,13.961,0,0,1-23.33,14.979Z" fill="#ffb6b6"/>
      <path id="Path_19639" data-name="Path 19639" d="M1059.18,1084.04l-16.93-.01-8.05-65.25h24.99Z" fill="#ffb6b6"/>
      <path id="Path_19640" data-name="Path 19640" d="M1061.35,917.211s10.3-63.025,19.96-79.584,6.58-55.658,6.58-55.658l-9.43-.781a13.1,13.1,0,0,0-.61-4.652c-4.82-13.423-72.02-8.658-72.02-8.658s-25.121,39.413-16.245,74.59S1008.13,945.26,1008.13,945.26l29.06,110.64,24.86-1.38-2.65-62.546.71.23Z" fill="#2f2e41"/>
      <path id="Path_19641" data-name="Path 19641" d="M1099.96,592.694l-25.18-29.277-40.4-1.173-15.45,24.824-3.83,27.267-19.633,162.2s64.3,30.8,98.893,15.932L1111,653.409C1117.91,625.811,1099.96,592.694,1099.96,592.694Z" fill="#e6e6e6"/>
      <path id="Path_19642" data-name="Path 19642" d="M1056.5,553.063a35.008,35.008,0,1,0-35.04-35.008A35.023,35.023,0,0,0,1056.5,553.063Z" fill="#ffb6b6"/>
      <path id="Path_19643" data-name="Path 19643" d="M1098.71,510.09c-1.08-7.686-6.29-14.984-13.7-17.312-2.94-8.54-10.73-14.827-19.34-17.567a37.817,37.817,0,0,0-43.46,15.836c-.66,1.036-2.68,3.58-2.63,4.816.08,1.569,2.48,3.189,3.69,4.179a53.844,53.844,0,0,0,9.62,5.937c12.6,6.526,8.4,16.783,8.23,28.4-.08,5.648,1.81,10.471,6.63,13.7,6.95,4.656,16.91,2.8,24.48.935,8.58-2.12,15.72-9.659,20.62-16.928C1097.19,525.651,1099.78,517.776,1098.71,510.09Z" fill="#2f2e41"/>
      <path id="Path_19644" data-name="Path 19644" d="M1098.95,638.271l13.63,149.421-43.79-2.348Z" fill="#e6e6e6"/>
      <path id="Path_19645" data-name="Path 19645" d="M950.381,784.8a13.058,13.058,0,0,0,5.666-19.215l28.1-36.966-24.087-1.607-22.994,35.35A13.137,13.137,0,0,0,950.381,784.8Z" fill="#ffb8b8"/>
      <path id="Path_19646" data-name="Path 19646" d="M1029.97,586.155l-4.67-1.815-4.52,1.594s-14.11,13.443-16.48,27.537c-1.05,6.307-17.5,67.967-17.5,67.967L942.976,748.6l23.71,15.824,60.434-90.491Z" fill="#e6e6e6"/>
      <path id="Path_19647" data-name="Path 19647" d="M1062.64,1079.08h-4.88l-19.06-7.75-10.22,7.75h0a21.766,21.766,0,0,0-21.77,21.75v.71h55.93Z" fill="#2f2e41"/>
      <path id="Path_19648" data-name="Path 19648" d="M1140.24,1020.41l-11.99,11.93-51.79-40.55,17.7-17.618Z" fill="#ffb6b6"/>
      <path id="Path_19649" data-name="Path 19649" d="M1136.01,1013.23l-2.88,3.94-17.5,10.82.24,12.81h0a21.761,21.761,0,0,0,4.75,30.4l.57.41,32.98-45.14Z" fill="#2f2e41"/>
      <path id="Path_19650" data-name="Path 19650" d="M1049.62,920.674l78.71,81.416-22.1,19.32-61.85-48.555Z" fill="#2f2e41"/>
    </g>
  </g>
  <path id="Path_19676" data-name="Path 19676" d="M101.03,310l13.809,112.008,105.87-1.534L222.014,310Z" transform="translate(1105 773.992)" fill="#f2f2f2"/>
  <path id="Path_19677" data-name="Path 19677" d="M187.332,342.44a3.482,3.482,0,0,1-2.524-6.035l.239-.949-.094-.227c-3.213-7.661-8.967-.43-17.258.085-12.194.757-12.012,9.979-7.288,20.762,1.282,2.927-9.6-20.693-9.6-36.549a107.05,107.05,0,0,1,.664-11.942q.55-4.876,1.526-9.682a112.19,112.19,0,0,1,22.248-47.549,29.857,29.857,0,0,0,12.417-12.883c.961-1.962,9.22-3.62,9.577-5.77-.6.079-9.785-9.581-9.329-10.146-.842-1.278-2.35-1.914-3.27-3.161-4.576-6.2-10.88-5.121-14.172,3.31-7.031,3.548-7.1,9.433-2.785,15.093,2.745,3.6,3.122,8.473,5.53,12.328-.248.317-.505.624-.753.942l-.285.367a7.948,7.948,0,0,1-13.813-2.235c-.158-.436-1.5,23.177-.49-1.263s-7.782-12-12.233-17.635a9.586,9.586,0,0,0-17.065,4.854q-.013.122-.026.245.987.557,1.933,1.182a4.723,4.723,0,0,1-1.906,8.594l-.1.015a47,47,0,0,0,1.239,7.026c-5.678,21.96,6.577,29.962,24.079,30.325l.912,1.3a115.341,115.341,0,0,0-5.953,28.483l-.015.2A4.458,4.458,0,0,1,140.9,314.1a14.5,14.5,0,0,0-1.959-2.011c-7.588-6.234-18.309-8.529-26.5-13.539a5.421,5.421,0,0,0-8.3,5.274l.033.219a31.721,31.721,0,0,1,3.558,1.714q.988.558,1.934,1.183a4.722,4.722,0,0,1-1.907,8.593l-.1.015-.2.03.063.149a16.819,16.819,0,0,0,16.265,10.227c8.223-.45,18.437,6.426,27.446,18.582h.01a115.22,115.22,0,0,0,7.74,22.6h27.649c.1-.307.188-.624.278-.932a31.417,31.417,0,0,1-7.651-.456c2.051-2.517,4.1-5.054,6.154-7.571a1.711,1.711,0,0,0,.129-.149c1.041-1.288,2.091-2.567,3.132-3.855v0a46.018,46.018,0,0,0-1.348-11.722h0Z" transform="translate(1106.63 722.929)" fill="#f2f2f2"/>
</svg>
