<svg id="undraw_designer_girl_re_h54c" xmlns="http://www.w3.org/2000/svg" width="1500" height="1500" viewBox="0 0 1500 1500">
  <g id="undraw_designer_girl_re_h54c-2" data-name="undraw_designer_girl_re_h54c">
    <rect id="Rectangle_2422" data-name="Rectangle 2422" width="1500" height="1500" fill="#fff" opacity="0"/>
    <path id="Path_20292" data-name="Path 20292" d="M639.231,410.646a44.6,44.6,0,1,0-44.609-44.6A44.607,44.607,0,0,0,639.231,410.646Z" fill="#fd6584"/>
    <path id="Path_20293" data-name="Path 20293" d="M739.07,344.92A22.114,22.114,0,0,0,720.408,329.4a1.892,1.892,0,0,0-.3,0,2.436,2.436,0,0,0-.367-.083c-14.936-1.938-31.543,2.773-42.72,13.03a40.012,40.012,0,0,0-9.741,13.431,21.581,21.581,0,0,0-18.093-8.821,22.026,22.026,0,0,0-19.715,15.887,2.549,2.549,0,0,0,1.153,2.823,11.147,11.147,0,0,0,4.661,2.373c3.692.785,7.418,1.5,11.144,2.155q10.926,1.9,21.97,3.09,7.293.777,14.619,1.236c10.091.635,20.232.785,30.34.468,5.012-.167,9.823-.334,14.4-2.539a21.385,21.385,0,0,0,8.27-7.2,24.3,24.3,0,0,0,3.041-20.331Z" fill="#e6e6e6"/>
    <path id="Path_20294" data-name="Path 20294" d="M647.3,409.9a22.817,22.817,0,0,0-.936-5.513,22.152,22.152,0,0,0-18.679-15.519,1.684,1.684,0,0,0-.284,0,3.127,3.127,0,0,0-.384-.084,55.47,55.47,0,0,0-24.543,2.523c-12.129,4.059-22.772,12.245-27.9,23.938a21.593,21.593,0,0,0-18.11-8.82,22.026,22.026,0,0,0-19.715,15.887,2.6,2.6,0,0,0,1.153,2.823,11.246,11.246,0,0,0,4.661,2.372c3.709.785,7.418,1.5,11.161,2.155q10.926,1.9,21.953,3.091a326.051,326.051,0,0,0,44.976,1.7c4.995-.167,9.824-.334,14.4-2.539a21.332,21.332,0,0,0,8.254-7.2A23.832,23.832,0,0,0,647.3,409.9Z" fill="#e6e6e6"/>
    <path id="Path_20295" data-name="Path 20295" d="M977.576,972.8H936.911V338.049c-2.74-2.021-5.5-4.026-8.287-5.981l-1.654-1.152a481.7,481.7,0,0,0-103.6-55.027L815.483,384.64v.007H764.744V257.663c-3.308-.818-6.616-1.587-9.958-2.3V384.647h-191.6V252c-3.325.618-6.65,1.253-9.958,1.938V384.647h-52.41v-.007l-8.27-114.047a480.634,480.634,0,0,0-101.546,49.214c-1.1.7-2.206,1.4-3.308,2.138-2.222,1.437-4.444,2.907-6.633,4.393V972.8H323.808a44.779,44.779,0,0,0-41.584,61.461,43.377,43.377,0,0,0,2.924,5.95,45.28,45.28,0,0,0,5.046,6.98,44.706,44.706,0,0,0,33.615,15.22H977.576a44.806,44.806,0,1,0,0-89.611ZM804.556,535.626,772.93,972.8H543.374L511.747,535.626ZM814.765,394.6l-7.8,107.843H764.744V394.6Zm-59.979,0V502.444H678.548a18.239,18.239,0,0,0-16.244-9.955h-9.956a18.239,18.239,0,0,0-16.244,9.955H563.189V394.6ZM553.231,502.444h-43.89L501.54,394.6h51.691Z" fill="#f2f2f2"/>
    <path id="Path_20296" data-name="Path 20296" d="M282.956,1045.04a481.583,481.583,0,0,0,46.981,48.36l634.169,1.68a483.1,483.1,0,0,0,46.984-48.37Z" fill="#3f3d56"/>
    <path id="Path_20297" data-name="Path 20297" d="M603.215,883.319V1054.65H723.256V883.319a5.761,5.761,0,0,0-4.06-5.512,5.291,5.291,0,0,0-1.72-.268H609.013a5.786,5.786,0,0,0-5.8,5.78Zm46.847,58.87a12.815,12.815,0,0,1,25.629,0v19.879a12.815,12.815,0,0,1-25.629,0Z" fill="#2f2e41"/>
    <path id="Path_20298" data-name="Path 20298" d="M602.848,1049.17v16.52a3.237,3.237,0,0,0,3.224,3.24H720.4a3.21,3.21,0,0,0,2.282-.95,3.25,3.25,0,0,0,.943-2.29v-16.52Z" fill="#3f3d56"/>
    <path id="Path_20299" data-name="Path 20299" d="M414.374,625.19V938.013a15.048,15.048,0,0,0,15.037,15.035H893.034a15.048,15.048,0,0,0,15.037-15.035V625.19a15.055,15.055,0,0,0-15.037-15.018H429.411a15.055,15.055,0,0,0-15.037,15.018Z" fill="#3f3d56"/>
    <path id="Path_20300" data-name="Path 20300" d="M425.251,629.083V934.155a8.049,8.049,0,0,0,8.036,8.035H889.175a8.049,8.049,0,0,0,8.036-8.035V629.083a8.054,8.054,0,0,0-8.036-8.052H433.287a8.054,8.054,0,0,0-8.036,8.052Z" fill="#ff639d"/>
    <path id="Path_20301" data-name="Path 20301" d="M518.209,1072.83a4.922,4.922,0,0,0,1.726,1.37,4.989,4.989,0,0,0,2.15.48H793.309a4.991,4.991,0,0,0,4.879-6.01l-4.21-20a5.005,5.005,0,0,0-3.108-3.63,4.87,4.87,0,0,0-1.771-.33H526.279a4.87,4.87,0,0,0-1.771.33,5.005,5.005,0,0,0-3.108,3.63l-4.21,20a4.967,4.967,0,0,0,.04,2.19A5.057,5.057,0,0,0,518.209,1072.83Z" fill="#2f2e41"/>
    <path id="Path_20302" data-name="Path 20302" d="M526.279,1048.89a.665.665,0,0,0-.242.04.811.811,0,0,0-.347.22.881.881,0,0,0-.2.37l-4.213,20.01a.766.766,0,0,0,.011.34.79.79,0,0,0,.159.32l.019.02a.776.776,0,0,0,.274.22.691.691,0,0,0,.346.07H793.309a.83.83,0,0,0,.786-.6.756.756,0,0,0,.01-.35l-4.215-20.02a.914.914,0,0,0-.181-.36.751.751,0,0,0-.326-.22.7.7,0,0,0-.284-.06Z" fill="#fff"/>
    <path id="Path_20303" data-name="Path 20303" d="M447.945,663.056H874.517a1.7,1.7,0,0,0,0-3.392H447.945a1.7,1.7,0,0,0,0,3.392Z" fill="#3f3d56"/>
    <path id="Path_20304" data-name="Path 20304" d="M845.48,651a10.164,10.164,0,1,0-9.942-10.161A10.053,10.053,0,0,0,845.48,651Z" fill="#3f3d56"/>
    <path id="Path_20305" data-name="Path 20305" d="M811.137,651a10.164,10.164,0,1,0-9.942-10.161A10.053,10.053,0,0,0,811.137,651Z" fill="#3f3d56"/>
    <path id="Path_20306" data-name="Path 20306" d="M776.793,651a10.164,10.164,0,1,0-9.941-10.161A10.053,10.053,0,0,0,776.793,651Z" fill="#3f3d56"/>
    <path id="Path_20307" data-name="Path 20307" d="M466.8,635.046a1.827,1.827,0,0,0,1.821,1.837h24.392a1.847,1.847,0,0,0,0-3.692H468.625a1.844,1.844,0,0,0-1.821,1.855Z" fill="#3f3d56"/>
    <path id="Path_20308" data-name="Path 20308" d="M466.8,641.979a1.834,1.834,0,0,0,1.121,1.7,1.851,1.851,0,0,0,.7.142h24.392a1.846,1.846,0,0,0,0-3.692H468.625a1.844,1.844,0,0,0-1.821,1.854Z" fill="#3f3d56"/>
    <path id="Path_20309" data-name="Path 20309" d="M466.8,648.9a1.842,1.842,0,0,0,1.821,1.854h24.392a1.846,1.846,0,0,0,0-3.691H468.625A1.828,1.828,0,0,0,466.8,648.9Z" fill="#3f3d56"/>
    <path id="Path_20310" data-name="Path 20310" d="M810.958,714.832H511.5a14.855,14.855,0,0,0-14.838,14.837V875.4A14.853,14.853,0,0,0,511.5,890.237H810.958A14.854,14.854,0,0,0,825.8,875.4V729.669a14.855,14.855,0,0,0-14.838-14.837Zm11.5,14.837v42.517H717.2V718.173h93.758a11.509,11.509,0,0,1,11.5,11.5ZM608.6,829.542V775.527H713.858v54.015Zm105.255,3.341V886.9H608.6V832.883Zm-108.6-3.341H500.007V775.527H605.262Zm3.341-57.356V718.173H713.858v54.013Zm108.6,3.341H822.455v54.015H717.2ZM511.5,718.173h93.759v54.013H500.007V729.669a11.509,11.509,0,0,1,11.5-11.5ZM500.007,875.4V832.883H605.262V886.9H511.5a11.509,11.509,0,0,1-11.5-11.5Zm310.951,11.5H717.2V832.883H822.455V875.4a11.509,11.509,0,0,1-11.5,11.5Z" fill="#3f3d56"/>
    <path id="Path_20311" data-name="Path 20311" d="M646.011,751.829c-2.657-4.394-5.806-9.086-10.738-10.521-5.711-1.662-11.577,1.639-16.553,4.9a482.239,482.239,0,0,0-42.929,31.625l.015.171,32.034-2.209c7.715-.532,15.695-1.137,22.513-4.786,2.587-1.385,5.109-3.235,8.04-3.364,3.642-.16,6.818,2.384,9.314,5.041,14.763,15.719,19.036,39.757,35.6,53.568a525.672,525.672,0,0,0-37.3-74.422Z" fill="#fff"/>
    <path id="Path_20312" data-name="Path 20312" d="M736.759,885.159c-1.633-2.061-2.3-2.544-3.91-4.624q-19.669-25.435-36.974-52.59-11.754-18.442-22.343-37.592-5.041-9.105-9.806-18.352-3.7-7.17-7.229-14.425c-.674-1.382-1.328-2.77-1.979-4.161-1.534-3.271-3.04-6.559-4.657-9.785a26.916,26.916,0,0,0-7.468-10.005,10.181,10.181,0,0,0-5.308-2.042,14.8,14.8,0,0,0-7.684,2.2,247.3,247.3,0,0,0-48.637,33.536,253.151,253.151,0,0,0-39.515,43.859c-.349.5-1.175.022-.823-.48q2.082-2.944,4.247-5.825a254.615,254.615,0,0,1,65-60.625q6.322-4.1,12.884-7.81c2.2-1.248,4.418-2.481,6.67-3.637a16.25,16.25,0,0,1,7.074-2.191c8.583-.134,13.027,9.585,16.079,16.125q1.438,3.087,2.913,6.155,5.569,11.649,11.569,23.084,3.7,7.061,7.566,14.038,12.025,21.729,25.564,42.579c11.956,18.412,23.817,34.676,37.437,51.894C737.807,884.962,737.137,885.642,736.759,885.159Z" fill="#fff"/>
    <path id="Path_20313" data-name="Path 20313" d="M579.916,762.519c-.5-.555-.994-1.111-1.5-1.667-3.958-4.377-8.2-8.7-13.64-11.212a19.779,19.779,0,0,0-8.291-1.921,23.662,23.662,0,0,0-8.608,1.877c-1.3.518-2.563,1.1-3.811,1.731-1.427.718-2.827,1.483-4.222,2.255q-3.926,2.172-7.75,4.535-7.609,4.7-14.742,10.123-3.7,2.809-7.243,5.8-3.3,2.783-6.46,5.714c-.451.416-1.125-.257-.674-.673q.834-.777,1.681-1.541,2.382-2.152,4.84-4.224,4.484-3.783,9.2-7.273,7.334-5.431,15.171-10.125,3.917-2.344,7.941-4.491c.81-.432,1.63-.855,2.459-1.255a39.2,39.2,0,0,1,5.844-2.379,20.807,20.807,0,0,1,8.828-.867,22.984,22.984,0,0,1,8.144,2.817c5.337,2.983,9.475,7.594,13.5,12.1C581,762.3,580.325,762.977,579.916,762.519Z" fill="#fff"/>
    <path id="Path_20314" data-name="Path 20314" d="M689.256,807.873l12.788-4.676,6.349-2.322a65,65,0,0,1,6.268-2.159,9.89,9.89,0,0,1,5.673.073,13.061,13.061,0,0,1,4.425,2.743,35.853,35.853,0,0,1,3.63,3.875c1.382,1.661,2.744,3.34,4.112,5.012q8.469,10.356,16.827,20.8t16.6,20.98q8.266,10.56,16.419,21.209,1,1.305,1.995,2.61c.368.481,1.2.007.823-.481q-8.213-10.755-16.54-21.423-8.348-10.694-16.811-21.3t-17.04-21.112q-2.136-2.619-4.281-5.231c-1.205-1.47-2.4-2.955-3.72-4.322a13.4,13.4,0,0,0-9.09-4.789,17.566,17.566,0,0,0-6.183,1.359c-2.137.774-4.27,1.561-6.405,2.342l-12.877,4.709L689,806.955c-.571.209-.325,1.13.253.918Z" fill="#fff"/>
    <path id="Path_20315" data-name="Path 20315" d="M563.1,755.149a20.645,20.645,0,0,0-20.791,1.487,296.752,296.752,0,0,1,33.738,7.873C571.442,761.813,567.842,757.587,563.1,755.149Z" fill="#fff"/>
    <path id="Path_20316" data-name="Path 20316" d="M542.242,756.625l-1.251,1.017c.423-.356.863-.69,1.315-1.005Z" fill="#fff"/>
    <path id="Path_20317" data-name="Path 20317" d="M724.278,807.919a10.654,10.654,0,0,0-4.5-3.759l-1.758.069a199.363,199.363,0,0,0,53.107,60.707Z" fill="#fff"/>
    <path id="Path_20318" data-name="Path 20318" d="M716.054,782.036a10.121,10.121,0,1,0-10.123-10.121A10.122,10.122,0,0,0,716.054,782.036Z" fill="#fff"/>
    <path id="Path_20319" data-name="Path 20319" d="M862.952,884.39a7.53,7.53,0,0,0,7.518-7.517V721.513a7.518,7.518,0,0,0-15.037,0v155.36a7.53,7.53,0,0,0,7.519,7.517Z" fill="#3f3d56"/>
    <path id="Path_20320" data-name="Path 20320" d="M862.952,884.39a7.53,7.53,0,0,0,7.518-7.517V843.93a9.325,9.325,0,0,0-15.037,0v32.943a7.53,7.53,0,0,0,7.519,7.517Z" fill="#2f2e41"/>
    <path id="Path_20321" data-name="Path 20321" d="M862.951,852.649a8.1,8.1,0,0,0,8.086-8.085V809.135a10.029,10.029,0,0,0-16.171,0v35.429a8.1,8.1,0,0,0,8.085,8.085Z" fill="#ff639d"/>
    <path id="Path_20322" data-name="Path 20322" d="M862.952,846.21a5.9,5.9,0,0,0,5.9-5.9V814.472a7.315,7.315,0,0,0-11.795,0v25.841a5.9,5.9,0,0,0,5.9,5.9Z" fill="#3f3d56"/>
    <path id="Path_20323" data-name="Path 20323" d="M631.017,1058.92a6.682,6.682,0,0,1-.529-9.43L696.173,976a6.682,6.682,0,1,1,9.966,8.9l-65.686,73.486a6.681,6.681,0,0,1-9.436.53Z" fill="#ff639d"/>
    <path id="Path_20324" data-name="Path 20324" d="M1175.92,1179.92c0,12.18-2.87,21.5-2.52,28.95a479.749,479.749,0,0,1-60.65,21.75c-2.34.67-4.67,1.31-7.03,1.94-12.75-39.02-25.51-74.76-30.54-78.55-11.51-8.63-17.28,27.1-17.28,18.46s5.77-8.63-8.62-20.14-5.76-63.32-5.76-63.32l-20.15-51.8,22.54-82.625,29.27-107.331h28.79s.85.618,2.27,1.771c7.2,5.88,28.92,25.525,26.51,47.159-.72,6.448.89,25.191,3.68,50.149,8.48,75.357,27.98,157.277,27.98,178.9C1164.41,1154.01,1175.92,1162.65,1175.92,1179.92Z" fill="#e6e6e6"/>
    <path id="Path_20325" data-name="Path 20325" d="M1151.78,946.05c-.03-.084-.05-.15-.08-.217a44.787,44.787,0,0,0-2.25-5.079c-4.87-9.137.28-23.17-5.2-38.672-8.85-25.125-19.65-39.943-35.47-53.223-.47-.4-.94-.785-1.42-1.186l-.02-.017c-10.56-8.67-23.29-16.772-39.09-26.862-3.29-2.1-6.73-4.293-10.31-6.6-4.61-2.957-4.36-12.813-4.09-23.237.3-11.576.62-23.571-5.06-31.055l-.37-.484-.59-.151a251.374,251.374,0,0,0-59.174-4.56h-.017a116.4,116.4,0,0,0-24.943,3.658c-.6.167-1.2.334-1.788.535-.451.117-.9.267-1.353.417l-.368.134-.284.267c-5.5,5.5-6.766,15.353-7.368,25.626v.017q-.175,2.806-.3,5.613c-.467,9.99-.9,19.428-4.577,23.521a96.549,96.549,0,0,1-29.188,22.452c-17.258,8.52-30.908,8.252-31.108,8.252l-1.588-.05-.15,1.57c-11.461,21.834-11.027,78.164-11.378,138.487q-.024,5.037-.066,10.124c-.2,28.1-.735,56.679-2.841,82.729-.918,11.19-2.105,21.9-3.692,31.9-7.719,48.73-42.687,8.27-59.411,40.7a41.089,41.089,0,0,0,2.757,9.27c1.921,1.13,3.893,2.24,5.848,3.34q13.006,7.245,26.5,13.51.752.36,1.5.69a395.286,395.286,0,0,0,50.89,19.41c3.391,1.04,6.783,2.02,10.208,2.96a390.372,390.372,0,0,0,92.909,13.91,2.455,2.455,0,0,1,.384-.01,482.094,482.094,0,0,0,110-15.86c.5-.13,1-.27,1.51-.4,2.35-.63,4.69-1.27,7.03-1.94a479.756,479.756,0,0,0,60.65-21.75,15.905,15.905,0,0,0,.21,2.19,5.382,5.382,0,0,0,.1.7c.04-.26.07-.53.09-.8.1-.78.18-1.59.26-2.39C1189.31,1073.8,1168.07,989.15,1151.78,946.05Z" fill="#3f3d56"/>
    <path id="Path_20326" data-name="Path 20326" d="M922.172,701.706a93.516,93.516,0,1,0-4.753-79.673c-.428,1.07-.814,2.14-1.2,3.254a93.384,93.384,0,0,0,5.952,76.419Z" fill="#ffb6b6"/>
    <path id="Path_20327" data-name="Path 20327" d="M908.727,625.287c4.025-11.259,2.269-5.394,6.337-16.611-2.655,9.933,1.541,15.5,1.156,16.611h111.37V560.556c-32.63-12.929-64.528-23.932-83.8,0a64.739,64.739,0,0,0-64.739,64.731Z" fill="#2f2e41"/>
    <path id="Path_20328" data-name="Path 20328" d="M948.2,805.226c.086-1.2.214-2.44.386-3.638,1.2-8.82,4.2-17.3,7.236-25.688,3.211-9.033,6.465-18.109,9.719-27.142a77.7,77.7,0,0,0,3.64,49.319c18.8-14.642,6.936-48.121,31.515-48.121,59.08,0,119.88-47.906,119.88-107.03,0-59.08-25.34-103.262-84.43-103.262-59.13,0-107.085,27.057-108.241,86.138C1000.7,642.927,934.46,799.233,948.2,805.226Z" fill="#2f2e41"/>
    <path id="Path_20329" data-name="Path 20329" d="M1113.2,633.869a68.5,68.5,0,1,0-68.51-68.5A68.5,68.5,0,0,0,1113.2,633.869Z" fill="#2f2e41"/>
    <path id="Path_20330" data-name="Path 20330" d="M1220,958.21q-.345,5.287-.62,11.259c-3.54,74.991-.48,175.941-24.36,230.721q-8.01,4.38-16.2,8.38-.33.15-.6.3c-1.47.72-2.95,1.42-4.42,2.09a.4.4,0,0,1-.18.1,398.5,398.5,0,0,1-49.8,19.56c-2.09.67-4.2,1.31-6.3,1.94-.45.13-.9.27-1.35.4a390.856,390.856,0,0,1-98.64,15.85c-1.74.05-3.45.09-5.1.12-.58.02-1.15.04-1.72.04-1.87.01-3.73.03-5.6.03q-5.655,0-11.274-.17a390.372,390.372,0,0,1-92.909-13.91c-3.425-.94-6.816-1.92-10.208-2.96a395.326,395.326,0,0,1-50.89-19.41q-.751-.33-1.5-.69-13.482-6.255-26.5-13.51c-1.955-1.1-3.926-2.21-5.848-3.34a41.083,41.083,0,0,1-2.756-9.27c-3.793-18.23-6.834-5.93-9.006-43.86-1.988-34.76-3.257-69.62-3.725-89.55-.151-5.31-.2-9.57-.217-12.48,1.771-12.66,30.239-27.03,71.757-40.679,3.926-1.286,7.986-2.572,12.146-3.842,11.227-3.458,23.223-6.849,35.753-10.123,31.911-8.353,67.347-16.021,102.518-22.352,17.36-3.107,34.65-5.9,51.44-8.269,29.45-4.176,57.32-7.067,81.16-8.253,2.29-.117,4.53-.217,6.73-.284,2.38-.1,4.7-.167,6.97-.217C1193.1,945.08,1216.56,948.654,1220,958.21Z" fill="#2f2e41"/>
    <path id="Path_20331" data-name="Path 20331" d="M1220,958.21q-.345,5.287-.62,11.259c-26.03-28.031-306.441,97.191-425.162,172.411-1.988-34.76-3.258-69.62-3.725-89.55-.151-5.31-.2-9.57-.218-12.48,1.771-12.66,30.24-27.03,71.758-40.679,3.926-1.286,7.986-2.572,12.146-3.842,11.227-3.458,23.223-6.849,35.753-10.123,31.911-8.353,67.346-16.021,102.518-22.352,17.36-3.107,34.65-5.9,51.44-8.269,29.45-4.177,57.32-7.067,81.16-8.253,2.29-.117,4.53-.217,6.73-.284,2.38-.1,4.7-.167,6.97-.217C1193.1,945.08,1216.56,948.654,1220,958.21Z" opacity="0.2"/>
    <path id="Path_20332" data-name="Path 20332" d="M649.733,1045.1a28.957,28.957,0,0,0,44.366,1.18l95.144,39.07-10.267-52.45L690.2,1003.84a29.1,29.1,0,0,0-40.467,41.26Z" fill="#ffb6b6"/>
    <path id="Path_20333" data-name="Path 20333" d="M966.224,826.7l-.522-.055-55.482,4.027a49.8,49.8,0,0,0-36.022,19.5,48.756,48.756,0,0,0-5.138,8.348l-.014.009a49.786,49.786,0,0,0-4.1,31.553l26.121,131.478-62.849-5.71-22.943,3.92L778.2,1008.85l-55.554.94-1.288,4.26L709.7,1052.68l-.914,3.03,84.831,53.45,24.594-7.48,11.587,8.9.555.02,22.976.45,97.984,1.92,26.784-47.44,4.184-7.44c31.107-69.679,38.787-118.32,36.347-151.829-1.28-17.7-5.37-31.164-10.33-41.307C992.979,833.611,967.3,826.96,966.224,826.7Z" fill="#3f3d56"/>
    <path id="Path_20334" data-name="Path 20334" d="M1121.87,626.188a79.109,79.109,0,0,1-57.1-50.422c-4.02-11.656-5.53-24.456-12.28-34.831a185.971,185.971,0,0,0,24.48-46.008c2.31-6.352,7.72-17.883-1.45-21.377-7.3-2.784-15.59,3.935-19.92,9.237a35.176,35.176,0,0,0-6.91,13.749q-2.235-9.885-4.48-19.771a2.564,2.564,0,0,0-3.08-1.75c-12.23,2.085-21.1,13.411-22.64,25.34a25.758,25.758,0,0,0,3.93,17.576c3.93,5.978,9.69,10.263,15.16,14.718,5.83,4.737,10.76,9.782,13.89,16.71,3.26,7.2,4.72,15.079,6.88,22.639a83.881,83.881,0,0,0,62.18,59.022C1123.68,631.707,1125.02,626.877,1121.87,626.188Zm-69.08-119.8a29.046,29.046,0,0,1,4.74-17.816,28.129,28.129,0,0,1,6.43-6.972c2.4-1.828,5.93-4.249,9.09-3.578,4.11.871,2.46,5.454,1.59,8.218q-1.725,5.469-3.8,10.823a178.782,178.782,0,0,1-9.34,20.225c-1.83,3.405-3.79,6.737-5.84,10.014l-4.23-18.69a2.065,2.065,0,0,0,1.06-.875,2.131,2.131,0,0,0,.3-1.349Zm-29.27,1a24.741,24.741,0,0,1,16.4-26.913q5.97,26.345,11.93,52.69c-.82,1.21-1.67,2.4-2.51,3.6-.23-.256-.43-.521-.66-.772-8.35-9.08-22.9-15.27-25.16-28.6Z" fill="#ff639d"/>
    <path id="Path_25492" data-name="Path 25492" d="M6.455,0c3.565,0,6.455,3.468,6.455,7.746s-2.89,7.746-6.455,7.746S0,12.023,0,7.746,2.89,0,6.455,0Z" transform="matrix(0.985, -0.174, 0.174, 0.985, 913.753, 671.239)" fill="#2f2e41"/>
  </g>
  <g id="Group_568" data-name="Group 568" transform="translate(-6197 8047)">
    <ellipse id="Ellipse_1495" data-name="Ellipse 1495" cx="31.058" cy="5.176" rx="31.058" ry="5.176" transform="translate(6398.378 -6889.146)" fill="#e6e6e6"/>
    <rect id="Rectangle_2393" data-name="Rectangle 2393" width="2.588" height="54.352" transform="translate(6463.083 -7378.315)" fill="#e6e6e6"/>
    <rect id="Rectangle_2394" data-name="Rectangle 2394" width="15.529" height="535.756" transform="translate(6421.671 -7413.256)" fill="#e6e6e6"/>
    <path id="Path_19339" data-name="Path 19339" d="M1071.531,361.689H929.342a11,11,0,0,1-10.915-12.364l18.117-144.939a11.018,11.018,0,0,1,10.915-9.636h105.955a11.018,11.018,0,0,1,10.915,9.636l18.117,144.939a11,11,0,0,1-10.915,12.364Z" transform="translate(5429 -7732.887)" fill="#e6e6e6"/>
    <ellipse id="Ellipse_1496" data-name="Ellipse 1496" cx="9.059" cy="9.059" rx="9.059" ry="9.059" transform="translate(6455.318 -7333.022)" fill="#e6e6e6"/>
  </g>
</svg>
