<svg id="undraw_working_re_ddwy" xmlns="http://www.w3.org/2000/svg" xmlns:xlink="http://www.w3.org/1999/xlink" width="1500" height="1500" viewBox="0 0 1500 1500">
  <defs>
    <clipPath id="clip-path">
      <rect id="Rectangle_2413" data-name="Rectangle 2413" width="1179" height="673" transform="translate(160 414)" fill="#fff"/>
    </clipPath>
  </defs>
  <g id="undraw_working_re_ddwy-2" data-name="undraw_working_re_ddwy">
    <rect id="Rectangle_2412" data-name="Rectangle 2412" width="1500" height="1500" fill="#fff" opacity="0"/>
    <g id="Group_527" data-name="Group 527" clip-path="url(#clip-path)">
      <path id="Path_19906" data-name="Path 19906" d="M353.794,720V530.868a10.193,10.193,0,0,1,20.386,0V720a10.193,10.193,0,0,1-20.386,0Z" fill="#f0f0f0"/>
      <path id="Path_19907" data-name="Path 19907" d="M329.4,720V530.868a10.193,10.193,0,0,1,20.386,0V720a10.193,10.193,0,0,1-20.386,0Z" fill="#f0f0f0"/>
      <path id="Path_19908" data-name="Path 19908" d="M305.014,720V530.868a10.193,10.193,0,0,1,20.386,0V720a10.193,10.193,0,0,1-20.386,0Z" fill="#f0f0f0"/>
      <path id="Path_19909" data-name="Path 19909" d="M1225.88,1022.09a35.311,35.311,0,0,1-12.04-2.09l-.6-.21.28-1.32c-6.92-13.97-4.5-33.1,6.19-48.835,9.72-14.3,24.51-24.7,37.55-33.876a10.139,10.139,0,0,1,15.79,10.227l-4.66,23.909c-3.37,17.248-7.37,33.575-19.24,43.755A36.311,36.311,0,0,1,1225.88,1022.09Z" fill="#e6e6e6"/>
      <path id="Path_19910" data-name="Path 19910" d="M1256.43,1063.41a27.152,27.152,0,0,1-22.67-12.46l-.33-.53.8-.71c2.09-11.38,11.9-21.51,25.08-25.87,11.98-3.96,25.2-3.31,36.86-2.74a7.785,7.785,0,0,1,4.84,13.55l-13.12,11.83c-9.53,8.59-19.04,16.35-30.5,16.91C1257.07,1063.4,1256.75,1063.41,1256.43,1063.41Z" fill="#e6e6e6"/>
      <path id="Path_19911" data-name="Path 19911" d="M1215.72,1076.05c-1.94-14.41-3.93-29-2.57-43.57,1.21-12.94,5.07-25.57,12.94-35.931a58.818,58.818,0,0,1,15.01-13.9c1.5-.968,2.88,1.463,1.39,2.426a56.561,56.561,0,0,0-22.01,27.121c-4.79,12.44-5.56,26.01-4.73,39.23.5,8,1.56,15.94,2.62,23.88a1.44,1.44,0,0,1-.96,1.72,1.4,1.4,0,0,1-.54.04,1.354,1.354,0,0,1-.51-.18,1.367,1.367,0,0,1-.64-.84Z" fill="#f2f2f2"/>
      <path id="Path_19912" data-name="Path 19912" d="M1210.25,1084.34c9.32-16.85,20.13-35.58,39.46-41.57a43.306,43.306,0,0,1,16.59-1.75c1.77.16,1.33,2.93-.43,2.78a40.222,40.222,0,0,0-26.49,7.16c-7.47,5.19-13.28,12.41-18.2,20.06-3.02,4.69-5.72,9.58-8.42,14.46-.86,1.56-3.39.43-2.51-1.14Z" fill="#f2f2f2"/>
      <path id="Path_19913" data-name="Path 19913" d="M1206.05,1084.09l9.41.22L1158.7,781.342l-9.41,1.772,14.82,78.593h-47.75l14.82-78.593-9.41-1.772-56.29,302.968,8.94-.22,29.59-156.913h72.45Zm-99.84-168.552,7.96-42.192h52.14l7.95,42.192Z" fill="#cacaca"/>
      <path id="Path_19914" data-name="Path 19914" d="M795,724.829V625.336c0-2.954,4.573-5.357,10.193-5.357s10.193,2.4,10.193,5.357v99.493c0,2.954-4.572,5.358-10.193,5.358S795,727.783,795,724.829Z" fill="#f0f0f0"/>
      <path id="Path_19915" data-name="Path 19915" d="M770.614,724.829V625.336c0-2.954,4.572-5.357,10.193-5.357S791,622.382,791,625.336v99.493c0,2.954-4.573,5.358-10.193,5.358S770.614,727.783,770.614,724.829Z" fill="#f0f0f0"/>
      <path id="Path_19916" data-name="Path 19916" d="M746.224,724.829V625.336c0-2.954,4.572-5.357,10.193-5.357s10.193,2.4,10.193,5.357v99.493c0,2.954-4.573,5.358-10.193,5.358S746.224,727.783,746.224,724.829Z" fill="#f0f0f0"/>
      <path id="Path_19917" data-name="Path 19917" d="M951.414,651.661a2.18,2.18,0,0,0-.955-1.5l-76.845-50.686a5.762,5.762,0,0,0,2.758-2.414h0a5.835,5.835,0,0,0-2.133-7.95l-6.3-3.637a5.843,5.843,0,0,0-7.956,2.13,5.733,5.733,0,0,0-.738,2.39l-55.47-36.588a33.569,33.569,0,0,0-20.78-19.141V518.137H762.6v16.132a33.478,33.478,0,0,0-23.3,31.879v4.365h20.386a13.106,13.106,0,0,0,26.211,0H806.29v-4.365a33.613,33.613,0,0,0-.59-6.235l140.327,92.56-58.291,70.81c-.453,0-.9-.007-1.359-.007-4.651,0-9.157.11-13.451.3a5.74,5.74,0,0,0,.333-2.246,5.84,5.84,0,0,0-6.119-5.508l-7.271.378a5.839,5.839,0,0,0-5.514,6.115,5.721,5.721,0,0,0,.789,2.578c-12.856,1.365-21.188,3.247-21.188,4.2,0,1.569,22.371.075,50.371,0a2.179,2.179,0,0,0,3.737.656l.539-.655c27.918.077,50.195,1.561,50.195,0,0-1.476-19.806-5.148-45.469-5.737l57.613-69.986a2.183,2.183,0,0,0,.472-1.712Z" fill="#ccc"/>
      <path id="Path_19918" data-name="Path 19918" d="M953.516,1084.82H774.1a13.691,13.691,0,0,1-13.676-13.67V776.95a12.228,12.228,0,0,0-12.22-12.209H328.519A12.228,12.228,0,0,0,316.3,776.95v294.2a13.691,13.691,0,0,1-13.676,13.67h-6.139a13.691,13.691,0,0,1-13.676-13.67V761.1a32.785,32.785,0,0,1,32.763-32.735H934.43A32.787,32.787,0,0,1,967.193,761.1V1071.15a13.693,13.693,0,0,1-13.677,13.67Z" fill="#e4e4e4"/>
      <path id="Path_19919" data-name="Path 19919" d="M966.465,804.752H761.149v8.729H966.465Z" fill="#fff"/>
      <path id="Path_19920" data-name="Path 19920" d="M966.465,922.6H761.149v8.729H966.465Z" fill="#fff"/>
      <path id="Path_19921" data-name="Path 19921" d="M591.194,726.933l-5.9-2.482L581.245,694.9H527.338l-4.387,29.435-5.28,2.637a1.253,1.253,0,0,0,.561,2.373h72.476a1.252,1.252,0,0,0,.486-2.407Z" fill="#e6e6e6"/>
      <path id="Path_19922" data-name="Path 19922" d="M686.989,698.826h-264.8a5.243,5.243,0,0,1-5.234-5.242V656.275H692.224v37.309a5.244,5.244,0,0,1-5.235,5.242Z" fill="#ccc"/>
      <path id="Path_19923" data-name="Path 19923" d="M692.5,673.909H416.709V514.272a6.33,6.33,0,0,1,6.324-6.319H686.176a6.33,6.33,0,0,1,6.325,6.319Z" fill="#3f3d56"/>
      <path id="Path_19924" data-name="Path 19924" d="M676.029,662.322H433.181a4.879,4.879,0,0,1-4.876-4.871V524.411a4.881,4.881,0,0,1,4.876-4.872H676.029a4.879,4.879,0,0,1,4.875,4.872v133.04a4.877,4.877,0,0,1-4.875,4.871Z" fill="#fff"/>
      <path id="Path_19925" data-name="Path 19925" d="M948.265,534.812A16.044,16.044,0,0,1,966.6,551.225l53.24,20.477-24.119,17.221-46.863-22.086a16.126,16.126,0,0,1-.593-32.025Z" fill="#ffb8b8"/>
      <path id="Path_19926" data-name="Path 19926" d="M1150.43,524.76l9.01,16.363a47,47,0,0,1-15.96,26.494c-13.79,11.621-85.9,54.9-85.9,54.9l-91.037-45.662,15.925-21.144,71.472,23.931a234.163,234.163,0,0,1,93.43-53.967Z" fill="#e4e4e4"/>
      <path id="Path_19927" data-name="Path 19927" d="M1133.68,795.522c39.24,0,71.05-10.356,71.05-23.13s-31.81-23.13-71.05-23.13-71.04,10.355-71.04,23.13S1094.45,795.522,1133.68,795.522Z" fill="#cacaca"/>
      <path id="Path_19928" data-name="Path 19928" d="M974.3,1064.49l-18.866-5.21,11.137-75.186,27.844,7.692Z" fill="#ffb8b8"/>
      <path id="Path_19929" data-name="Path 19929" d="M974.054,1084.09l-60.831-16.8.213-.77a24.576,24.576,0,0,1,30.221-17.12h0l37.153,10.26Z" fill="#2f2e41"/>
      <path id="Path_19930" data-name="Path 19930" d="M919.6,1064.73l-17.907-7.9,21.976-72.758,26.426,11.658Z" fill="#ffb8b8"/>
      <path id="Path_19931" data-name="Path 19931" d="M916.5,1084.09l-57.734-25.47.322-.73a24.581,24.581,0,0,1,32.394-12.54h0l35.263,15.56Z" fill="#2f2e41"/>
      <path id="Path_19932" data-name="Path 19932" d="M1188.98,715.843s9.49,29.378-48.74,66.532l-75,74.663L987.322,1043.27l-46.261-20.72,9.073-24.2,6.088-16.237,3.115-8.307,3.339-8.905L1012.2,832.819l41.6-72.778,1.21-39.491,10.23-27.837,74.24-26.32Z" fill="#2f2e41"/>
      <path id="Path_19933" data-name="Path 19933" d="M1151.12,717.3s9.49,29.379-48.74,66.532l-75,74.663L949.462,1044.73,903.2,1024l9.073-24.194,6.088-16.237,3.115-8.307,3.339-8.905,49.526-132.084,13.93-24.368a444.031,444.031,0,0,1,66.468-88.48l13.65-14.1,1.46-21.824,31.77-17.652Z" fill="#2f2e41"/>
      <path id="Path_19934" data-name="Path 19934" d="M1106.25,573.473l23.3-49.467,40.66-5.541s31.75,40.412,23.41,97.2c-3.12,21.295-5.67,42.5-5.82,61.106-.04,4.951,4.29,7.162,4.37,11.639.07,4.4-8.22,11.56-5.83,14.549a25.541,25.541,0,0,1,5.83,14.549c-2.89,6.861-90.22-30.311-126.93-24.8Z" fill="#e4e4e4"/>
      <path id="Path_19935" data-name="Path 19935" d="M1164,493.561a36.765,36.765,0,1,0-50.4,12.809A36.721,36.721,0,0,0,1164,493.561Z" fill="#ffb8b8"/>
      <path id="Path_19936" data-name="Path 19936" d="M1155.9,461.594c-.07.967-.17,2.247-.28,3.7a19.264,19.264,0,0,0,3.2,11.173c2.06,3.476-.39,24.473-.39,24.473,60.23-41.954,12.64-84.1-5.98-80.356.39-5.336-14.8-3.222-14.8-3.222-5.78-9-18.46,2.947-18.46,2.947l2.44-4.112c-9.84,2.5-19.57,32.9-19.57,32.9C1105.4,462.211,1156.29,456.259,1155.9,461.594Z" fill="#2f2e41"/>
      <path id="Path_19937" data-name="Path 19937" d="M922.22,592.932a337.221,337.221,0,0,0,48.524-90.481,8.664,8.664,0,0,0-4.1-10.43L895.814,454.1a8.566,8.566,0,0,0-7.509-.3,8.7,8.7,0,0,0-4.96,5.808,206,206,0,0,1-45.239,84.357,8.689,8.689,0,0,0-2.092,7.344,8.554,8.554,0,0,0,4.412,6.077L911.261,595.3a8.677,8.677,0,0,0,10.959-2.371Z" fill="#ccc"/>
      <path id="Path_19938" data-name="Path 19938" d="M917.387,589.3a2.619,2.619,0,0,1-3.27.675l-70.834-37.923a2.513,2.513,0,0,1-1.316-1.806,2.658,2.658,0,0,1,.655-2.272,212.073,212.073,0,0,0,46.572-86.843,2.653,2.653,0,0,1,1.528-1.8,2.508,2.508,0,0,1,2.237.093l70.834,37.921a2.613,2.613,0,0,1,1.248,3.1A331.175,331.175,0,0,1,917.387,589.3Z" fill="#fff"/>
      <path id="Path_19939" data-name="Path 19939" d="M892.6,495.454l48.857,28.612c4.861,2.847,9.263-4.7,4.409-7.537l-48.856-28.613c-4.861-2.846-9.263,4.7-4.41,7.538Z" fill="#ff639d"/>
      <path id="Path_19940" data-name="Path 19940" d="M883.868,511.456l48.857,28.612c4.861,2.847,9.263-4.7,4.41-7.538l-48.857-28.612c-4.861-2.846-9.263,4.7-4.41,7.538Z" fill="#ff639d"/>
      <path id="Path_19941" data-name="Path 19941" d="M873.675,528.915l48.857,28.612c4.861,2.847,9.262-4.7,4.409-7.538l-48.856-28.612c-4.861-2.846-9.263,4.7-4.41,7.538Z" fill="#ff639d"/>
      <path id="Path_19942" data-name="Path 19942" d="M863.482,543.464l48.857,28.612c4.861,2.847,9.263-4.7,4.409-7.538l-48.856-28.612c-4.861-2.847-9.263,4.695-4.41,7.538Z" fill="#ff639d"/>
      <path id="Path_19943" data-name="Path 19943" d="M1086.21,711.764l18.34,41.21a6.539,6.539,0,0,1,.55,3.146,6.433,6.433,0,0,1-1.02,3.028,6.523,6.523,0,0,1-6.61,2.938,6.05,6.05,0,0,1-1.26-.337,6.594,6.594,0,0,1-3.64-3.454l-18.34-41.211a6.487,6.487,0,0,1-.56-2.492,6.555,6.555,0,0,1,12.54-2.828Z" fill="#ff639d"/>
      <path id="Path_19944" data-name="Path 19944" d="M1103.07,749.65l3.67,8.318,1.88,11.791a3.555,3.555,0,0,1-.38,2.263,3.574,3.574,0,0,1-3.98,1.766,3.533,3.533,0,0,1-1.94-1.228l-7.61-9.453-3.62-8.136Z" fill="#3f3d56"/>
      <path id="Path_19945" data-name="Path 19945" d="M1070.15,700.3l2.63,16.5a3.7,3.7,0,0,0,.61,1.5,3.627,3.627,0,0,0,1.22,1.075,3.562,3.562,0,0,0,3.15.125l2.61-1.158,5.03,11.3a1.422,1.422,0,0,0,.8.765,1.479,1.479,0,0,0,1.12-.029,1.424,1.424,0,0,0,.76-.807,1.476,1.476,0,0,0-.02-1.112l-5.03-11.3,2.6-1.158a3.577,3.577,0,0,0,1.82-4.7,3.6,3.6,0,0,0-.49-.8l-10.5-13a3.576,3.576,0,0,0-5.92.539,3.625,3.625,0,0,0-.39,2.262Z" fill="#3f3d56"/>
      <path id="Path_19946" data-name="Path 19946" d="M1077.76,730.078a16.067,16.067,0,0,1,21.37-12.224l36.21-44.051,8.76,28.3-35.73,37.494a16.14,16.14,0,0,1-30.61-9.515Z" fill="#ffb8b8"/>
      <path id="Path_19947" data-name="Path 19947" d="M1123.35,727.215,1107.4,704.2l45.28-60.328-23.32-49.946,1.7-59.411,19.27-3.558.24.12a47.339,47.339,0,0,1,20.53,23.893c4.81,12.012,15.55,57.105,21.52,82.915a30.042,30.042,0,0,1-8.1,28.209Z" fill="#e4e4e4"/>
      <path id="Path_19948" data-name="Path 19948" d="M674.329,616.005a21.425,21.425,0,0,0-.133,3.369l-81.649,59.351-22.432-9.919-19.406,31.867,38,21.415a16.3,16.3,0,0,0,19.383-2.533l82.177-80.2a21.347,21.347,0,1,0-15.942-23.351Z" fill="#ffb6b6"/>
      <path id="Path_19949" data-name="Path 19949" d="M589.906,680.9l-23.811,39.643a9.168,9.168,0,0,1-13.67,2.364l-35.651-29.254a25.429,25.429,0,0,1,26.314-43.521l42.475,17.6a9.149,9.149,0,0,1,4.343,13.165Z" fill="#ff639d"/>
      <path id="Path_19950" data-name="Path 19950" d="M487.885,1025.47h46.673V948.19H487.885Z" fill="#cacaca"/>
      <path id="Path_19951" data-name="Path 19951" d="M532.219,989.08l-5.99,8.82,112.015,75.94,5.99-8.82Z" fill="#cacaca"/>
      <path id="Path_19952" data-name="Path 19952" d="M490.224,989.079,378.209,1065.02l5.99,8.82L496.214,997.9Z" fill="#cacaca"/>
      <path id="Path_19953" data-name="Path 19953" d="M641.238,1084.09a14.655,14.655,0,1,0-14.668-14.66A14.662,14.662,0,0,0,641.238,1084.09Z" fill="#cacaca"/>
      <path id="Path_19954" data-name="Path 19954" d="M510.554,1084.09a14.655,14.655,0,1,0-14.668-14.66A14.662,14.662,0,0,0,510.554,1084.09Z" fill="#cacaca"/>
      <path id="Path_19955" data-name="Path 19955" d="M381.2,1084.09a14.655,14.655,0,1,0-14.668-14.66A14.662,14.662,0,0,0,381.2,1084.09Z" fill="#cacaca"/>
      <path id="Path_19956" data-name="Path 19956" d="M515.888,993.488H505.22v75.942h10.668Z" fill="#cacaca"/>
      <path id="Path_19957" data-name="Path 19957" d="M501.22,982.83h20V880.238h-20Z" fill="#cacaca"/>
      <path id="Path_19958" data-name="Path 19958" d="M453.88,896.227V872.244a16.68,16.68,0,0,1,16.669-16.654h89.345a16.68,16.68,0,0,1,16.669,16.654v23.983a16.682,16.682,0,0,1-16.669,16.655H470.549a16.682,16.682,0,0,1-16.669-16.655Z" fill="#3f3d56"/>
      <path id="Path_19959" data-name="Path 19959" d="M615.249,1060.16h24.708l11.757-64.033H615.246Z" fill="#ffb8b8"/>
      <path id="Path_19960" data-name="Path 19960" d="M608.947,1084.09H688.62v-1.01a30.978,30.978,0,0,0-31.01-30.98H608.946Z" fill="#2f2e41"/>
      <path id="Path_19961" data-name="Path 19961" d="M652.206,1020.45l49.26-110.365a40.431,40.431,0,0,0-17.773-51.923L576.845,800.916l-48.756-4.144-44.975-4.084-.324.548c-.415.7-10.085,17.388-3.548,35.687,4.958,13.88,17.854,24.722,38.331,32.224,47.8,17.51,103.01,32.476,124.529,38.1a7.04,7.04,0,0,1,4.852,9.18L601.19,1011.15a9.07,9.07,0,0,0,3.776,10.85,9.173,9.173,0,0,0,3.9,1.3l34.2,2.48a8.428,8.428,0,0,0,.867.04,9.058,9.058,0,0,0,8.276-5.37Z" fill="#2f2e41"/>
      <path id="Path_19962" data-name="Path 19962" d="M599.125,1060.16h24.708l11.757-64.033H599.122Z" fill="#ffb8b8"/>
      <path id="Path_19963" data-name="Path 19963" d="M592.823,1084.09H672.5v-1.01a30.978,30.978,0,0,0-31.01-30.98H592.822Z" fill="#2f2e41"/>
      <path id="Path_19964" data-name="Path 19964" d="M634.067,1026.49l49.26-110.364A40.433,40.433,0,0,0,665.553,864.2L558.706,806.957l-48.757-4.144-35.226-3.053.005-.483c-.415.7-10.085,17.389-3.548,35.687,4.958,13.88,7.777,24.722,28.254,32.224,47.8,17.51,103.009,32.476,124.529,38.1a6.958,6.958,0,0,1,4.456,3.544,7.031,7.031,0,0,1,.4,5.636L583.051,1017.19a9.072,9.072,0,0,0,3.775,10.85,9.173,9.173,0,0,0,3.9,1.3l34.2,2.48a8.423,8.423,0,0,0,.867.05,9.089,9.089,0,0,0,8.276-5.38Z" fill="#2f2e41"/>
      <path id="Path_19965" data-name="Path 19965" d="M603.167,551.106a49.5,49.5,0,1,0-59.612,36.675A49.457,49.457,0,0,0,603.167,551.106Z" fill="#ffb8b8"/>
      <path id="Path_19966" data-name="Path 19966" d="M725.642,729.692a337.245,337.245,0,0,0,48.523-90.481,8.66,8.66,0,0,0-4.095-10.43l-70.834-37.922a8.566,8.566,0,0,0-7.509-.3,8.7,8.7,0,0,0-4.961,5.808,206.008,206.008,0,0,1-45.238,84.357,8.685,8.685,0,0,0-2.093,7.343,8.55,8.55,0,0,0,4.413,6.078l70.834,37.922a8.677,8.677,0,0,0,10.96-2.37Z" fill="#ccc"/>
      <path id="Path_19967" data-name="Path 19967" d="M720.808,726.063a2.618,2.618,0,0,1-3.269.675L646.7,688.815a2.508,2.508,0,0,1-1.315-1.807,2.649,2.649,0,0,1,.655-2.271,212.073,212.073,0,0,0,46.571-86.843,2.654,2.654,0,0,1,1.528-1.8,2.514,2.514,0,0,1,2.238.092l70.833,37.922a2.614,2.614,0,0,1,1.249,3.095A331.194,331.194,0,0,1,720.808,726.063Z" fill="#fff"/>
      <path id="Path_19968" data-name="Path 19968" d="M696.026,632.214l48.857,28.612c4.861,2.847,9.263-4.7,4.409-7.538l-48.856-28.612c-4.861-2.847-9.263,4.695-4.41,7.538Z" fill="#ccc"/>
      <path id="Path_19969" data-name="Path 19969" d="M687.289,648.216l48.857,28.612c4.861,2.847,9.263-4.7,4.409-7.538L691.7,640.678c-4.861-2.847-9.263,4.7-4.41,7.538Z" fill="#ccc"/>
      <path id="Path_19970" data-name="Path 19970" d="M680.425,664.158l44.432,26.355c4.421,2.622,9.149-2.8,4.735-5.417L685.16,658.741C680.739,656.119,676.011,661.54,680.425,664.158Z" fill="#ccc"/>
      <path id="Path_19971" data-name="Path 19971" d="M666.9,680.223l48.857,28.613c4.861,2.846,9.263-4.7,4.41-7.538l-48.857-28.612c-4.861-2.847-9.263,4.7-4.41,7.537Z" fill="#ccc"/>
      <path id="Path_19972" data-name="Path 19972" d="M583.55,804.921l-97.96-.585-.027-.7c-1.868-49.108,4.139-93.593,18.364-135.995.2-1.587.419-3.283.632-4.949,2.43-18.97,4.359-34.032,22.414-39.641a12.822,12.822,0,0,1-2.551-6.888A12.526,12.526,0,0,1,527.546,607a12.068,12.068,0,0,1,8.376-4.083l34.868-1.186a8.157,8.157,0,0,1,5.062,1.715,13.9,13.9,0,0,1,4.054,17.57c-.411.817-.568,1.19-.628,1.352,1.24,6.488,4.918,14.2,8.809,22.353C593.66,656.4,599.976,669.636,601.6,683.8a71.422,71.422,0,0,1-1.079,22.913,45.109,45.109,0,0,0-.5,12.3c.318,6.083.618,11.828-2.823,17.383-.877,1.506-1.881,3.111-3.059,4.89L589.3,752.846Z" fill="#ff639d"/>
      <path id="Path_19973" data-name="Path 19973" d="M436.544,873.644V673.653a24.62,24.62,0,0,1,24.6-24.581h6.8a24.62,24.62,0,0,1,24.6,24.581V873.644a24.62,24.62,0,0,1-24.6,24.581h-6.8a24.62,24.62,0,0,1-24.6-24.581Z" fill="#3f3d56"/>
      <path id="Path_19974" data-name="Path 19974" d="M699.238,693.614a21.354,21.354,0,0,0-1.892,2.792l-100.7,7.346L582.831,683.5l-33.318,16.831,20.963,38.231a16.293,16.293,0,0,0,17.8,8.071l112.166-24.775a21.349,21.349,0,1,0-1.2-28.242Z" fill="#ffb6b6"/>
      <path id="Path_19975" data-name="Path 19975" d="M593.254,704.2l-41.167,21.112a9.159,9.159,0,0,1-12.859-5.2L524.4,676.464a25.4,25.4,0,0,1,11.078-34.1c-18.248,9.358,19.758-17.226,34.263,11.01L596.52,690.73a9.151,9.151,0,0,1-3.266,13.472Z" fill="#ff639d"/>
      <path id="Path_19976" data-name="Path 19976" d="M532.646,587.77c-2.98,0-6.268-1.435-9.974-4.342a63.271,63.271,0,0,1-19.316-74.236c2.7-6.432,7.735-15.174,16.443-20.3,6.26-3.681,13.613-5.011,20.014-5.969,5.542-.829,11.153-1.49,16.678-1.96,6.6-.564,14.226-.945,21.181,1.7,5.1,1.935,9.432,5.352,13.627,8.657,1.461,1.15,2.973,2.342,4.487,3.445a33.074,33.074,0,0,0,12.418,6.026,6.8,6.8,0,0,1,4.552,3.331,6.912,6.912,0,0,1,.486,5.716c-.654,1.833-1.244,3.485-.05,5.276a4.721,4.721,0,0,0,3.941,2.006,2.44,2.44,0,0,1,2.065,1.077,2.483,2.483,0,0,1,.27,2.313l-.191.493a3.172,3.172,0,0,1,2.476,1.609,3.249,3.249,0,0,1-.6,4.027,32.639,32.639,0,0,1-15.9,8.313,31.8,31.8,0,0,1-12.376-.028l-.657-.128.081-.728c-16.518-5.886-31.429,4.1-39.93,15.524l-1.228-.774a3.512,3.512,0,0,0,.156-2.76,4.282,4.282,0,0,0-2.119-2.5,5.546,5.546,0,0,0-6.034,1.2,8.216,8.216,0,0,0-2.257,6.236,22.306,22.306,0,0,0,1.823,6.992c.4,1.06.813,2.157,1.149,3.262a26.627,26.627,0,0,1-1.409,18.965c-1.287,2.706-3.614,6.158-7.391,7.227a8.839,8.839,0,0,1-2.419.333Z" fill="#2f2e41"/>
      <path id="Path_19977" data-name="Path 19977" d="M1337.27,1087H161.734a1.734,1.734,0,0,1-1.729-1.73,1.717,1.717,0,0,1,1.729-1.73H1337.27a1.724,1.724,0,0,1,1.73,1.73,1.741,1.741,0,0,1-1.73,1.73Z" fill="#cacaca"/>
      <path id="Path_25492" data-name="Path 25492" d="M5,0c2.761,0,5,2.686,5,6s-2.239,6-5,6S0,9.314,0,6,2.239,0,5,0Z" transform="translate(586 546)" fill="#2f2e41"/>
      <path id="Path_25501" data-name="Path 25501" d="M5,0c2.761,0,5,2.686,5,6s-2.239,6-5,6S0,9.314,0,6,2.239,0,5,0Z" transform="translate(1106 469)" fill="#2f2e41"/>
    </g>
  </g>
  <g id="Group_208" data-name="Group 208" transform="translate(-577.539 113)">
    <circle id="Ellipse_1133" data-name="Ellipse 1133" cx="78.5" cy="78.5" r="78.5" transform="translate(853 204)" fill="#fff"/>
    <path id="Ellipse_1133_-_Outline" data-name="Ellipse 1133 - Outline" d="M78.68,18.469a60.21,60.21,0,1,0,60.21,60.21,60.278,60.278,0,0,0-60.21-60.21M78.68,0A78.68,78.68,0,1,1,0,78.68,78.68,78.68,0,0,1,78.68,0Z" transform="translate(853 204)" fill="#ff639d"/>
    <g id="Group_205" data-name="Group 205" transform="translate(922.02 249.946)">
      <rect id="Rectangle_1267" data-name="Rectangle 1267" width="4.404" height="34.745" rx="2.202" transform="translate(5.383 0)" fill="#ff639d"/>
      <rect id="Rectangle_1268" data-name="Rectangle 1268" width="4.404" height="26.426" rx="2.202" transform="matrix(0.259, -0.966, 0.966, 0.259, 5.216, 35.557)" fill="#ff639d"/>
      <circle id="Ellipse_1134" data-name="Ellipse 1134" cx="8.564" cy="8.564" r="8.564" transform="translate(0 26.426)" fill="#ff639d"/>
    </g>
    <g id="Group_207" data-name="Group 207" transform="translate(926.139 228.38)">
      <circle id="Ellipse_1135" data-name="Ellipse 1135" cx="5.5" cy="5.5" r="5.5" transform="translate(-0.139 -0.38)" fill="#ff639d"/>
      <circle id="Ellipse_1136" data-name="Ellipse 1136" cx="5.5" cy="5.5" r="5.5" transform="translate(-0.139 97.62)" fill="#ff639d"/>
    </g>
    <g id="Group_206" data-name="Group 206" transform="translate(877.379 277.139)">
      <circle id="Ellipse_1138" data-name="Ellipse 1138" cx="5.5" cy="5.5" r="5.5" transform="translate(108.621 -0.139) rotate(90)" fill="#ff639d"/>
      <circle id="Ellipse_1137" data-name="Ellipse 1137" cx="5.5" cy="5.5" r="5.5" transform="translate(10.621 -0.139) rotate(90)" fill="#ff639d"/>
    </g>
  </g>
</svg>
