<svg id="undraw_responsive_re_e1nn" xmlns="http://www.w3.org/2000/svg" xmlns:xlink="http://www.w3.org/1999/xlink" width="1500" height="1500" viewBox="0 0 1500 1500">
  <defs>
    <clipPath id="clip-path">
      <rect id="Rectangle_2398" data-name="Rectangle 2398" width="1210" height="722" transform="translate(145 389)" fill="#fff"/>
    </clipPath>
  </defs>
  <g id="undraw_responsive_re_e1nn-2" data-name="undraw_responsive_re_e1nn">
    <rect id="Rectangle_2397" data-name="Rectangle 2397" width="1500" height="1500" fill="#fff" opacity="0"/>
    <g id="Group_519" data-name="Group 519" transform="translate(0 148)" clip-path="url(#clip-path)">
      <path id="Path_19496" data-name="Path 19496" d="M216.3,942.888c-35.615-12.961-66.53-43.968-70.452-81.679A174.547,174.547,0,0,0,262.7,887.979c15.762-2.045,33.081-5.961,46.569,2.451,8.393,5.233,13.6,14.526,15.994,24.127s2.282,19.624,2.16,29.517l1.109,2.207C291.331,953.506,251.912,955.85,216.3,942.888Z" fill="#f0f0f0"/>
      <path id="Path_19497" data-name="Path 19497" d="M146.617,861.021a149.249,149.249,0,0,0,73.591,54.944,64.255,64.255,0,0,0,19.779,3.782,36.847,36.847,0,0,0,18.712-5.122c5.348-3.015,10.47-6.72,16.458-8.382a22.562,22.562,0,0,1,18.206,3.04c6.716,4.218,11.515,10.6,15.992,17,4.971,7.109,10.022,14.572,17.782,18.887.94.523.074,1.952-.865,1.43-13.5-7.509-18.5-23.435-29.991-33.118-5.362-4.518-12.118-7.447-19.2-5.987-6.2,1.277-11.481,5.092-16.87,8.192a39.316,39.316,0,0,1-18.11,5.69,59.4,59.4,0,0,1-19.852-3.007,144.774,144.774,0,0,1-40.53-20.142,151.957,151.957,0,0,1-36.566-36.411c-.62-.875.852-1.667,1.468-.8Z" fill="#fff"/>
      <path id="Path_19498" data-name="Path 19498" d="M210.455,913.269a22.386,22.386,0,0,1-26.669,11.382c-1.025-.322-.573-1.931.454-1.608A20.729,20.729,0,0,0,209.026,912.4c.476-.964,1.9-.093,1.429.865Z" fill="#fff"/>
      <path id="Path_19499" data-name="Path 19499" d="M256.189,916.512a43.174,43.174,0,0,0-19.925-24.347c-.939-.526-.073-1.955.864-1.43a44.911,44.911,0,0,1,20.683,25.377C258.14,917.138,256.516,917.532,256.189,916.512Z" fill="#fff"/>
      <path id="Path_19500" data-name="Path 19500" d="M169.429,887.111a12.685,12.685,0,0,0,2.087-11.85c-.342-1.021,1.283-1.414,1.622-.4a14.211,14.211,0,0,1-2.28,13.113.862.862,0,0,1-1.147.283.84.84,0,0,1-.282-1.148Z" fill="#fff"/>
      <path id="Path_19501" data-name="Path 19501" d="M235.732,769.6c.231.631.462,1.263.707,1.9a167.15,167.15,0,0,0,11.477,24.535c.337.613.688,1.229,1.042,1.831a176.025,176.025,0,0,0,42.461,48.954,170.8,170.8,0,0,0,21.517,14.538c10.4,5.929,22.149,11.529,29.76,20.29a29.5,29.5,0,0,1,2.238,2.857l-13.795,60.255c-.1.122-.186.247-.287.368l-.44,2.431c-.4-.194-.819-.4-1.223-.6-.235-.112-.466-.237-.7-.349-.155-.079-.311-.158-.456-.22-.052-.026-.1-.053-.142-.076-.144-.062-.272-.135-.4-.194q-3.483-1.752-6.951-3.56c-.014,0-.014,0-.025-.02a251.272,251.272,0,0,1-49.391-33.021c-.446-.392-.9-.786-1.344-1.206a162.98,162.98,0,0,1-18.386-19.246,144.366,144.366,0,0,1-8.561-11.815,119.973,119.973,0,0,1-15.206-34.273c-6.457-24.225-5.1-50.246,7.156-71.746C235.093,770.681,235.4,770.144,235.732,769.6Z" fill="#f0f0f0"/>
      <path id="Path_19502" data-name="Path 19502" d="M236.464,769.909a149.361,149.361,0,0,0,25.693,88.2,64.328,64.328,0,0,0,13.517,14.934,36.852,36.852,0,0,0,18.023,7.182c6.085.813,12.4.94,18.184,3.22a22.579,22.579,0,0,1,12.708,13.394c2.823,7.413,2.816,15.4,2.537,23.207-.309,8.671-.767,17.672,2.831,25.792.436.983-1.115,1.6-1.551.62-6.26-14.127-.667-29.855-4.016-44.508-1.562-6.837-5.194-13.244-11.73-16.347-5.716-2.714-12.232-2.851-18.4-3.621a39.319,39.319,0,0,1-17.884-6.366,59.426,59.426,0,0,1-14.04-14.358,144.868,144.868,0,0,1-20.24-40.5,152.019,152.019,0,0,1-7.284-51.1c.031-1.073,1.683-.819,1.652.247Z" fill="#fff"/>
      <path id="Path_19503" data-name="Path 19503" d="M255.993,850.077a22.385,22.385,0,0,1-28.144-6.976c-.624-.874.705-1.887,1.331-1.011a20.729,20.729,0,0,0,26.193,6.436c.96-.483,1.575,1.071.62,1.551Z" fill="#fff"/>
      <path id="Path_19504" data-name="Path 19504" d="M290.558,880.214a43.2,43.2,0,0,0-1.258-31.442c-.433-.985,1.119-1.6,1.551-.621a44.935,44.935,0,0,1,1.242,32.721C291.738,881.889,290.2,881.225,290.558,880.214Z" fill="#fff"/>
      <path id="Path_19505" data-name="Path 19505" d="M238.978,804.48a12.683,12.683,0,0,0,8.8-8.2c.341-1.022,1.875-.357,1.535.658a14.21,14.21,0,0,1-9.713,9.1.862.862,0,0,1-1.085-.465.839.839,0,0,1,.465-1.086Z" fill="#fff"/>
      <path id="Path_19506" data-name="Path 19506" d="M1294.25,941.643c33.75-17.243,60.63-51.816,59.89-89.723a174.579,174.579,0,0,1-112.69,40.937c-15.89-.091-33.56-1.848-45.91,8.159-7.69,6.226-11.72,16.089-12.91,25.911s.15,19.756,1.48,29.559l-.83,2.327C1221.09,961.408,1260.5,958.886,1294.25,941.643Z" fill="#f0f0f0"/>
      <path id="Path_19507" data-name="Path 19507" d="M1353.35,851.829a149.274,149.274,0,0,1-66.29,63.577,64.218,64.218,0,0,1-19.16,6.186,36.86,36.86,0,0,1-19.2-2.782c-5.68-2.335-11.22-5.381-17.36-6.295a22.579,22.579,0,0,0-17.7,5.257c-6.14,5.011-10.12,11.934-13.78,18.838-4.06,7.667-8.16,15.694-15.33,20.932-.87.634.17,1.946,1.04,1.312,12.47-9.112,15.48-25.533,25.69-36.555,4.77-5.143,11.11-8.88,18.32-8.3,6.31.505,12.02,3.641,17.75,6.055a39.349,39.349,0,0,0,18.68,3.42,59.431,59.431,0,0,0,19.33-5.426,144.657,144.657,0,0,0,37.74-24.973,151.8,151.8,0,0,0,31.82-40.631c.51-.945-1.05-1.55-1.55-.612Z" fill="#fff"/>
      <path id="Path_19508" data-name="Path 19508" d="M1296.41,911.53a22.391,22.391,0,0,0,27.87,8.016c.97-.446.33-1.987-.65-1.541a20.737,20.737,0,0,1-25.91-7.51C1297.13,909.6,1295.82,910.636,1296.41,911.53Z" fill="#fff"/>
      <path id="Path_19509" data-name="Path 19509" d="M1251.42,920.372a43.183,43.183,0,0,1,16.78-26.612c.87-.638-.16-1.95-1.03-1.313a44.941,44.941,0,0,0-17.41,27.728c-.2,1.059,1.46,1.25,1.66.2Z" fill="#fff"/>
      <path id="Path_19510" data-name="Path 19510" d="M1333.91,880.524a12.724,12.724,0,0,1-3.53-11.5c.22-1.056-1.44-1.245-1.66-.2a14.235,14.235,0,0,0,3.88,12.734.858.858,0,0,0,.56.3.838.838,0,0,0,.61-.163.824.824,0,0,0,.31-.558.806.806,0,0,0-.17-.615Z" fill="#fff"/>
      <path id="Path_19511" data-name="Path 19511" d="M1253.67,772.057c-.15.655-.3,1.31-.46,1.971a167.5,167.5,0,0,1-8.38,25.76c-.26.65-.53,1.3-.81,1.945a176.173,176.173,0,0,1-36.12,53.805,171.507,171.507,0,0,1-19.57,17.074c-9.59,7.162-20.57,14.164-27.04,23.8a29.058,29.058,0,0,0-1.87,3.11l21.09,58.1c.11.108.22.221.33.33l.74,2.358c.37-.242.76-.5,1.14-.744.22-.14.43-.293.65-.433.14-.1.29-.2.42-.274.05-.032.1-.065.14-.093.13-.079.25-.167.37-.242,2.16-1.445,4.32-2.908,6.46-4.388.02,0,.02,0,.03-.023a251.643,251.643,0,0,0,44.96-38.845c.39-.443.8-.891,1.18-1.361a162.584,162.584,0,0,0,15.88-21.361,144.7,144.7,0,0,0,7.05-12.778,120.3,120.3,0,0,0,10.88-35.884c3.43-24.835-1.12-50.492-15.92-70.321C1254.44,773.054,1254.07,772.559,1253.67,772.057Z" fill="#f0f0f0"/>
      <path id="Path_19512" data-name="Path 19512" d="M1252.98,772.456a149.385,149.385,0,0,1-14.66,90.687,64.327,64.327,0,0,1-11.58,16.483,36.832,36.832,0,0,1-17,9.344c-5.94,1.555-12.19,2.459-17.65,5.432a22.6,22.6,0,0,0-10.97,14.855c-1.89,7.7-.9,15.628.34,23.343,1.37,8.567,2.93,17.443.36,25.944-.32,1.03,1.3,1.454,1.61.426,4.48-14.791-3.01-29.711-1.48-44.665.71-6.977,3.53-13.783,9.63-17.666,5.34-3.4,11.79-4.333,17.82-5.856a39.288,39.288,0,0,0,16.96-8.517,59.26,59.26,0,0,0,12.17-15.976,144.94,144.94,0,0,0,15.11-42.676,151.848,151.848,0,0,0,.95-51.606c-.16-1.06-1.77-.6-1.61.448Z" fill="#fff"/>
      <path id="Path_19513" data-name="Path 19513" d="M1243.45,854.418a22.392,22.392,0,0,0,27.08-10.384c.51-.945-.93-1.786-1.45-.84a20.72,20.72,0,0,1-25.2,9.608c-1.01-.361-1.43,1.257-.43,1.616Z" fill="#fff"/>
      <path id="Path_19514" data-name="Path 19514" d="M1212.85,888.576a43.219,43.219,0,0,1-2.61-31.357c.31-1.031-1.31-1.456-1.62-.426a44.968,44.968,0,0,0,2.79,32.625c.48.966,1.92.119,1.44-.842Z" fill="#fff"/>
      <path id="Path_19515" data-name="Path 19515" d="M1254.74,807.073a12.675,12.675,0,0,1-9.74-7.059c-.47-.972-1.91-.124-1.44.841a14.187,14.187,0,0,0,10.75,7.834.867.867,0,0,0,.63-.1.85.85,0,0,0,.39-.5.823.823,0,0,0-.08-.633.884.884,0,0,0-.51-.388Z" fill="#fff"/>
      <path id="Path_19516" data-name="Path 19516" d="M1199,413.818H961.2v15.3a3.38,3.38,0,0,0,.762,2.151c-.48,11.962-.762,27.233-.762,43.828V884.265c0,38.352,1.539,69.556,3.424,69.556H1195.57c1.89,0,3.43-31.2,3.43-69.556V475.1c0-16.6-.29-31.866-.76-43.828a3.43,3.43,0,0,0,.76-2.151Z" fill="#fff"/>
      <path id="Path_19517" data-name="Path 19517" d="M1195.57,955.475H964.624c-1.8,0-2.989,0-4.07-21.969-.649-13.184-1.007-30.672-1.007-49.242V475.1c0-16.038.271-31.627.763-43.9.307-7.365.66-13.265,1.047-17.538.76-8.364,1.482-9.777,3.267-9.777H1195.57c1.79,0,2.51,1.413,3.27,9.777.39,4.289.74,10.189,1.05,17.535v0c.49,12.255.76,27.844.76,43.9V884.264c0,18.571-.36,36.059-1.01,49.242C1198.56,955.475,1197.37,955.475,1195.57,955.475Zm-230.006-3.309H1194.63c1.2-4.522,2.71-29.071,2.71-67.9V475.1c0-16.008-.27-31.548-.76-43.759h0c-.3-7.293-.65-13.139-1.03-17.375a48.2,48.2,0,0,0-.93-6.767H965.58a47.748,47.748,0,0,0-.929,6.767c-.383,4.22-.731,10.065-1.037,17.375-.489,12.222-.76,27.763-.76,43.759V884.264C962.854,923.095,964.367,947.644,965.564,952.166Z" fill="#e4e4e4"/>
      <path id="Path_19518" data-name="Path 19518" d="M1195.57,405.545H964.624a3.431,3.431,0,0,0-3.424,3.425v20.152a3.378,3.378,0,0,0,.762,2.151,3.438,3.438,0,0,0,2.662,1.274H1195.57a3.476,3.476,0,0,0,1.48-.337,3.549,3.549,0,0,0,1.19-.937,3.43,3.43,0,0,0,.76-2.151V408.97a3.48,3.48,0,0,0-1.01-2.42,3.425,3.425,0,0,0-2.42-1Z" fill="#cacaca"/>
      <path id="Path_19519" data-name="Path 19519" d="M981.078,422.927a4.864,4.864,0,1,0-4.861-4.864A4.863,4.863,0,0,0,981.078,422.927Z" fill="#fff"/>
      <path id="Path_19520" data-name="Path 19520" d="M999.53,422.927a4.864,4.864,0,1,0-4.861-4.864A4.858,4.858,0,0,0,999.53,422.927Z" fill="#fff"/>
      <path id="Path_19521" data-name="Path 19521" d="M1017.98,422.927a4.864,4.864,0,1,0-4.86-4.864A4.867,4.867,0,0,0,1017.98,422.927Z" fill="#fff"/>
      <path id="Path_19522" data-name="Path 19522" d="M1177.5,411.568h-21.25a1.574,1.574,0,0,0-1.11.464,1.542,1.542,0,0,0-.46,1.108,1.337,1.337,0,0,0,.16.679,1.645,1.645,0,0,0,.57.649,1.57,1.57,0,0,0,.84.244h21.25a1.56,1.56,0,0,0,1.57-1.572,1.557,1.557,0,0,0-.12-.6,1.7,1.7,0,0,0-.34-.51,1.621,1.621,0,0,0-.51-.34,1.586,1.586,0,0,0-.6-.12Z" fill="#fff"/>
      <path id="Path_19523" data-name="Path 19523" d="M1177.5,417.475h-21.25a1.572,1.572,0,1,0,0,3.143h21.25a1.572,1.572,0,0,0,0-3.143Z" fill="#fff"/>
      <path id="Path_19524" data-name="Path 19524" d="M1177.5,423.381h-21.25a1.572,1.572,0,1,0,0,3.143h21.25a1.571,1.571,0,0,0,0-3.143Z" fill="#fff"/>
      <path id="Path_19525" data-name="Path 19525" d="M1103.08,476.723h-43.73a8.286,8.286,0,0,0-8.27,8.272v37.889a8.292,8.292,0,0,0,8.27,8.272h43.73a8.3,8.3,0,0,0,8.27-8.272V484.995a8.291,8.291,0,0,0-8.27-8.272Z" fill="#ff639d"/>
      <path id="Path_19526" data-name="Path 19526" d="M1157.4,555.908H1005.01a3.756,3.756,0,1,0,0,7.512H1157.4a3.756,3.756,0,1,0,0-7.512Z" fill="#e4e4e4"/>
      <path id="Path_19527" data-name="Path 19527" d="M1062.89,573.512h-57.88a3.755,3.755,0,1,0,0,7.511h57.88a3.755,3.755,0,1,0,0-7.511Z" fill="#e4e4e4"/>
      <path id="Path_19528" data-name="Path 19528" d="M1103.08,640.52h-43.73a8.286,8.286,0,0,0-8.27,8.272v37.889a8.292,8.292,0,0,0,8.27,8.272h43.73a8.3,8.3,0,0,0,8.27-8.272V648.792a8.291,8.291,0,0,0-8.27-8.272Z" fill="#ff639d"/>
      <path id="Path_19529" data-name="Path 19529" d="M1157.4,719.705H1005.01a3.756,3.756,0,1,0,0,7.512H1157.4a3.756,3.756,0,1,0,0-7.512Z" fill="#e4e4e4"/>
      <path id="Path_19530" data-name="Path 19530" d="M1062.89,737.311h-57.88a3.756,3.756,0,1,0,0,7.511h57.88a3.756,3.756,0,1,0,0-7.511Z" fill="#e4e4e4"/>
      <path id="Path_19531" data-name="Path 19531" d="M1103.08,804.318h-43.73a8.286,8.286,0,0,0-8.27,8.273V850.48a8.292,8.292,0,0,0,8.27,8.272h43.73a8.3,8.3,0,0,0,8.27-8.272V812.591a8.291,8.291,0,0,0-8.27-8.273Z" fill="#ff639d"/>
      <path id="Path_19532" data-name="Path 19532" d="M1157.4,883.5H1005.01a3.755,3.755,0,1,0,0,7.511H1157.4a3.755,3.755,0,1,0,0-7.511Z" fill="#e4e4e4"/>
      <path id="Path_19533" data-name="Path 19533" d="M1062.89,901.107h-57.88a3.756,3.756,0,1,0,0,7.512h57.88a3.756,3.756,0,1,0,0-7.512Z" fill="#e4e4e4"/>
      <path id="Path_19534" data-name="Path 19534" d="M896.356,394.079a3.43,3.43,0,0,0-3.423-3.425H281.617a3.431,3.431,0,0,0-3.424,3.425v20.152a3.341,3.341,0,0,0,.877,2.267c-.546,13.683-.877,31.717-.877,51.472V922.815c0,42.653,1.539,77.335,3.424,77.335H892.933c1.886,0,3.423-34.682,3.423-77.335V467.97c0-19.755-.33-37.789-.876-51.472a3.337,3.337,0,0,0,.876-2.267Z" fill="#fff"/>
      <path id="Path_19535" data-name="Path 19535" d="M892.933,1001.8H281.617c-1.869,0-3,0-4.072-24.251-.649-14.65-1.006-34.089-1.006-54.734V467.97c0-19.039.312-37.342.878-51.538C278.505,389,279.743,389,281.617,389H892.933c1.873,0,3.112.005,4.2,27.432.566,14.183.877,32.486.877,51.538V922.814c0,20.647-.357,40.085-1.006,54.735C895.929,1001.8,894.8,1001.8,892.933,1001.8Zm-610.351-3.307H891.967c1.353-5.188,2.735-34.316,2.735-75.679V467.97c0-19.009-.311-37.266-.875-51.4h0c-.689-17.378-1.493-22.667-1.877-24.255H282.6c-.385,1.588-1.189,6.877-1.878,24.255-.565,14.154-.875,32.41-.875,51.406V922.814c0,41.363,1.382,70.491,2.735,75.679Z" fill="#e4e4e4"/>
      <path id="Path_19536" data-name="Path 19536" d="M892.933,390.654H281.617a3.431,3.431,0,0,0-3.424,3.425v20.152a3.341,3.341,0,0,0,.877,2.267,3.392,3.392,0,0,0,2.547,1.158H892.933a3.392,3.392,0,0,0,2.547-1.158,3.342,3.342,0,0,0,.876-2.267V394.079a3.43,3.43,0,0,0-3.423-3.425Z" fill="#cacaca"/>
      <path id="Path_19537" data-name="Path 19537" d="M298.071,408.036a4.864,4.864,0,1,0-4.861-4.864A4.863,4.863,0,0,0,298.071,408.036Z" fill="#fff"/>
      <path id="Path_19538" data-name="Path 19538" d="M316.524,408.036a4.864,4.864,0,1,0-4.862-4.864A4.863,4.863,0,0,0,316.524,408.036Z" fill="#fff"/>
      <path id="Path_19539" data-name="Path 19539" d="M334.978,408.036a4.864,4.864,0,1,0-4.862-4.864A4.862,4.862,0,0,0,334.978,408.036Z" fill="#fff"/>
      <path id="Path_19540" data-name="Path 19540" d="M874.857,396.678H853.606a1.572,1.572,0,1,0,0,3.143h21.251a1.572,1.572,0,1,0,0-3.143Z" fill="#fff"/>
      <path id="Path_19541" data-name="Path 19541" d="M874.857,402.584H853.606a1.572,1.572,0,0,0,0,3.144h21.251a1.572,1.572,0,0,0,0-3.144Z" fill="#fff"/>
      <path id="Path_19542" data-name="Path 19542" d="M874.857,408.49H853.606a1.572,1.572,0,0,0,0,3.144h21.251a1.572,1.572,0,0,0,0-3.144Z" fill="#fff"/>
      <path id="Path_19543" data-name="Path 19543" d="M479.209,491.613H407.667a13.546,13.546,0,0,0-13.527,13.534v62a13.546,13.546,0,0,0,13.527,13.534h71.542a13.548,13.548,0,0,0,13.528-13.534v-62a13.548,13.548,0,0,0-13.528-13.534Z" fill="#ff639d"/>
      <path id="Path_19544" data-name="Path 19544" d="M774.291,515.588H524.936a6.146,6.146,0,0,0,0,12.293H774.291a6.146,6.146,0,0,0,0-12.293Z" fill="#e4e4e4"/>
      <path id="Path_19545" data-name="Path 19545" d="M619.647,544.393H524.936a6.146,6.146,0,0,0,0,12.293h94.711a6.146,6.146,0,0,0,0-12.293Z" fill="#e4e4e4"/>
      <path id="Path_19546" data-name="Path 19546" d="M479.209,657.066H407.667A13.546,13.546,0,0,0,394.14,670.6v61.995a13.546,13.546,0,0,0,13.527,13.534h71.542a13.548,13.548,0,0,0,13.528-13.534V670.6a13.548,13.548,0,0,0-13.528-13.534Z" fill="#ff639d"/>
      <path id="Path_19547" data-name="Path 19547" d="M774.291,681.039H524.936a6.146,6.146,0,0,0,0,12.293H774.291a6.146,6.146,0,0,0,0-12.293Z" fill="#e4e4e4"/>
      <path id="Path_19548" data-name="Path 19548" d="M619.647,709.844H524.936a6.147,6.147,0,0,0,0,12.293h94.711a6.147,6.147,0,0,0,0-12.293Z" fill="#e4e4e4"/>
      <path id="Path_19549" data-name="Path 19549" d="M479.209,822.518H407.667a13.546,13.546,0,0,0-13.527,13.534v61.994a13.544,13.544,0,0,0,13.527,13.534h71.542a13.546,13.546,0,0,0,13.528-13.534V836.052a13.548,13.548,0,0,0-13.528-13.534Z" fill="#ff639d"/>
      <path id="Path_19550" data-name="Path 19550" d="M774.291,846.492H524.936a6.146,6.146,0,0,0,0,12.293H774.291a6.146,6.146,0,0,0,0-12.293Z" fill="#e4e4e4"/>
      <path id="Path_19551" data-name="Path 19551" d="M619.647,875.3H524.936a6.147,6.147,0,0,0,0,12.293h94.711a6.147,6.147,0,0,0,0-12.293Z" fill="#e4e4e4"/>
      <path id="Path_19552" data-name="Path 19552" d="M1002.09,1109.35H592.533c-1.889,0-3.425-29.04-3.425-64.73V663.853c0-35.694,1.536-64.73,3.425-64.73H1002.09c1.88,0,3.42,29.036,3.42,64.73V1044.62C1005.51,1080.31,1003.97,1109.35,1002.09,1109.35Z" fill="#fff"/>
      <path id="Path_19553" data-name="Path 19553" d="M1002.09,1111H592.532c-1.732,0-2.984,0-4.071-20.55-.65-12.26-1.007-28.54-1.007-45.83V663.854c0-17.291.357-33.57,1.007-45.838,1.087-20.547,2.339-20.547,4.071-20.547H1002.09c1.73,0,2.98,0,4.07,20.547.65,12.268,1,28.547,1,45.838V1044.62c0,17.29-.35,33.57-1,45.83C1005.07,1111,1003.82,1111,1002.09,1111Zm-408.643-3.31H1001.17c1.19-4.28,2.69-27.12,2.69-63.07V663.854c0-35.952-1.5-58.79-2.69-63.076H593.447c-1.187,4.286-2.685,27.124-2.685,63.076V1044.62C590.762,1080.57,592.26,1103.41,593.447,1107.69Z" fill="#e4e4e4"/>
      <path id="Path_19554" data-name="Path 19554" d="M1002.09,626.126H592.533a3.43,3.43,0,0,1-3.425-3.426V602.549a3.43,3.43,0,0,1,3.425-3.426H1002.09a3.423,3.423,0,0,1,3.42,3.426V622.7a3.423,3.423,0,0,1-3.42,3.426Z" fill="#cacaca"/>
      <path id="Path_19555" data-name="Path 19555" d="M608.981,616.505a4.864,4.864,0,1,0-4.862-4.864A4.863,4.863,0,0,0,608.981,616.505Z" fill="#fff"/>
      <path id="Path_19556" data-name="Path 19556" d="M627.433,616.505a4.864,4.864,0,1,0-4.862-4.864A4.862,4.862,0,0,0,627.433,616.505Z" fill="#fff"/>
      <path id="Path_19557" data-name="Path 19557" d="M645.886,616.505a4.864,4.864,0,1,0-4.862-4.864A4.862,4.862,0,0,0,645.886,616.505Z" fill="#fff"/>
      <path id="Path_19558" data-name="Path 19558" d="M984.007,608.294H962.758a1.574,1.574,0,0,1,0-3.149h21.249a1.575,1.575,0,0,1,0,3.149Z" fill="#fff"/>
      <path id="Path_19559" data-name="Path 19559" d="M984.007,614.2H962.758a1.574,1.574,0,0,1,0-3.149h21.249a1.574,1.574,0,0,1,0,3.149Z" fill="#fff"/>
      <path id="Path_19560" data-name="Path 19560" d="M984.007,620.1H962.758a1.574,1.574,0,0,1,0-3.149h21.249a1.575,1.575,0,0,1,0,3.149Z" fill="#fff"/>
      <path id="Path_19561" data-name="Path 19561" d="M718.384,751.2H666.136a9.893,9.893,0,0,1-9.88-9.885V696.043a9.894,9.894,0,0,1,9.88-9.885h52.248a9.894,9.894,0,0,1,9.881,9.885v45.273a9.893,9.893,0,0,1-9.881,9.885Z" fill="#ff639d"/>
      <path id="Path_19562" data-name="Path 19562" d="M933.878,712.651h-182.1a4.487,4.487,0,0,1,0-8.975h182.1a4.487,4.487,0,0,1,0,8.975Z" fill="#e4e4e4"/>
      <path id="Path_19563" data-name="Path 19563" d="M820.944,733.687H751.781a4.488,4.488,0,0,1,0-8.976h69.163a4.488,4.488,0,1,1,0,8.976Z" fill="#e4e4e4"/>
      <path id="Path_19564" data-name="Path 19564" d="M718.384,885.219H666.136a9.894,9.894,0,0,1-9.88-9.885V830.061a9.893,9.893,0,0,1,9.88-9.885h52.248a9.893,9.893,0,0,1,9.881,9.885v45.273a9.894,9.894,0,0,1-9.881,9.885Z" fill="#ff639d"/>
      <path id="Path_19565" data-name="Path 19565" d="M933.878,846.667h-182.1a4.488,4.488,0,0,1,0-8.976h182.1a4.488,4.488,0,0,1,0,8.976Z" fill="#e4e4e4"/>
      <path id="Path_19566" data-name="Path 19566" d="M820.944,867.7H751.781a4.488,4.488,0,0,1,0-8.975h69.163a4.488,4.488,0,1,1,0,8.975Z" fill="#e4e4e4"/>
      <path id="Path_19567" data-name="Path 19567" d="M718.384,1019.23H666.136a9.879,9.879,0,0,1-9.88-9.88V964.076a9.895,9.895,0,0,1,9.88-9.885h52.248a9.895,9.895,0,0,1,9.881,9.885v45.274a9.879,9.879,0,0,1-9.881,9.88Z" fill="#ff639d"/>
      <path id="Path_19568" data-name="Path 19568" d="M933.878,980.683h-182.1a4.488,4.488,0,0,1,0-8.976h182.1a4.488,4.488,0,0,1,0,8.976Z" fill="#e4e4e4"/>
      <path id="Path_19569" data-name="Path 19569" d="M820.944,1001.72H751.781a4.489,4.489,0,0,1,0-8.978h69.163a4.486,4.486,0,0,1,4.152,6.207,4.545,4.545,0,0,1-.974,1.461,4.676,4.676,0,0,1-1.459.97,4.6,4.6,0,0,1-1.719.34Z" fill="#e4e4e4"/>
    </g>
  </g>
  <path id="Path_12535" data-name="Path 12535" d="M429.492,411.846a71.832,71.832,0,1,0-71.777-71.832A71.805,71.805,0,0,0,429.492,411.846Z" transform="translate(496.247 67.098)" fill="#ff639d"/>
  <path id="Path_12536" data-name="Path 12536" d="M559.021,284.9c-34.786-4.7-74.5,14.111-83.516,48.062a30.39,30.39,0,0,0-57.835,2.97l3.982,2.855a523.544,523.544,0,0,0,226.11-1.023C623.565,312.315,593.807,289.607,559.021,284.9Z" transform="translate(534 89.7)" fill="#e6e6e6"/>
  <path id="Path_12537" data-name="Path 12537" d="M409.838,380.678c-34.786-4.706-74.5,14.111-83.516,48.062a30.39,30.39,0,0,0-57.835,2.97l3.983,2.854a523.544,523.544,0,0,0,226.11-1.023C474.383,408.091,444.625,385.383,409.838,380.678Z" transform="translate(10 -6.076)" fill="#e6e6e6"/>
  <path id="Path_10492" data-name="Path 10492" d="M509.171,151.148l16.8-13.437c-13.051-1.44-18.413,5.678-20.608,11.312-10.2-4.234-21.3,1.315-21.3,1.315l33.613,12.2a25.437,25.437,0,0,0-8.51-11.392Z" transform="translate(24.513 211.346)" fill="#464353"/>
  <path id="Path_10493" data-name="Path 10493" d="M649.171,226.148l16.8-13.437c-13.051-1.44-18.413,5.678-20.608,11.312-10.2-4.234-21.3,1.315-21.3,1.315l33.613,12.2a25.435,25.435,0,0,0-8.51-11.393Z" transform="translate(432.895 110.247)" fill="#464353"/>
</svg>
